<svg xmlns="http://www.w3.org/2000/svg">
<defs>
<font horiz-adv-x="414" id="1bc99c0a-298b-46f9-b325-18b5e5169795">
<font-face font-family="" panose-1="2 11 4 3 2 2 2 2 2 4" ascent="714" descent="-286" units-per-em="1000" alphabetic="0">
</font-face>
<missing-glyph horiz-adv-x="278" />

<glyph unicode="&#xA;" />
<glyph unicode="&#xD;" horiz-adv-x="0" />
<glyph unicode=" " horiz-adv-x="278" />
<glyph unicode="!" horiz-adv-x="259" d="M106 473V714H154V473L142 183H118L106 473ZM104 103H155V0H104V103Z"  />
<glyph unicode="&quot;" horiz-adv-x="315" d="M197 714H235V485H197V714ZM80 714H118V485H80V714Z"  />
<glyph unicode="#" horiz-adv-x="556" d="M147 231H30V264H152L176 437H58V470H181L212 690H245L214 470H383L414 690H447L416 470H526V437H411L387 264H498V231H382L350 0H317L349 231H180L148 0H115L147 231ZM354 264L378 437H209L185 264H354Z"  />
<glyph unicode="$" horiz-adv-x="556" d="M50 235Q50 141 101 84T258 21V354L211 365Q179 372 148 383T91 414T50 464T34 541Q34 558 39 588T66 650T133 704T258 731V780H290V731Q394 729 456 677T522 511H484Q478 609 427 650T290 694V384L368 365Q417 353 450 335T503 293T531 242T539 183Q539 127 518 90T461 29T381 -5T290 -17V-105H258V-17Q203 -12 158 3T80 49T30 124T12 235H50ZM258 393V693Q207 691 172 679T115 646T82 599T72 541Q72 506 83 483T114 444T160 419T217 402L258 393ZM290 21Q333 21 371 30T438 58T484 108T501 183Q501 240 465 276T351 332L290 347V21Z"  />
<glyph unicode="%" horiz-adv-x="778" d="M603 714H643L178 -24H138L603 714ZM206 346Q168 346 138 360T85 398T52 454T40 523Q40 560 51 592T84 649T137 688T207 702Q246 702 277 689T329 651T361 594T372 523Q372 487 361 455T327 399T275 361T206 346ZM205 379Q235 379 259 391T299 423T325 470T334 523Q334 552 326 578T302 625T261 657T206 669Q175 669 151 657T111 625T87 579T78 523Q78 496 87 470T112 424T152 391T205 379ZM406 165Q406 202 417 234T450 291T503 330T573 344Q612 344 643 331T695 293T727 236T738 165Q738 129 727 97T693 41T641 3T572 -12Q534 -12 504 2T451 40T418 96T406 165ZM444 165Q444 138 453 112T478 66T518 33T571 21Q601 21 625 33T665 65T691 112T700 165Q700 194 692 220T668 267T627 299T572 311Q541 311 517 299T477 267T453 221T444 165Z"  />
<glyph unicode="&amp;" horiz-adv-x="593" d="M43 170Q43 214 60 247T105 306T165 353T229 394Q212 415 195 435T164 478T141 525T132 579Q132 607 145 629T179 668T227 693T282 702Q311 702 338 694T386 671T419 632T432 579Q432 541 419 513T384 463T337 422T284 384L454 175Q465 203 471 233T478 294H516Q514 255 505 217T480 143L596 0H545L458 106Q425 51 373 20T255 -12Q210 -12 172 -1T105 33T60 90T43 170ZM262 412Q284 426 307 442T349 479T381 524T394 579Q394 599 384 615T359 644T323 662T282 669Q261 669 241 663T206 644T180 616T170 579Q170 553 180 531T204 488T234 449T262 412ZM81 170Q81 135 96 107T135 60T191 31T255 21Q300 21 333 38T389 77T422 116T433 137L249 366Q221 348 192 330T138 288T97 237T81 170Z"  />
<glyph unicode="&apos;" horiz-adv-x="204" d="M83 714H121V485H83V714Z"  />
<glyph unicode="(" horiz-adv-x="241" d="M194 -184Q133 -84 99 31T65 266Q65 389 99 507T196 731H231Q168 625 136 508T103 266Q103 146 134 33T228 -184H194H194Z"  />
<glyph unicode=")" horiz-adv-x="241" d="M10 -184Q73 -78 105 39T138 281Q138 401 107 514T13 731H47Q108 631 142 516T176 281Q176 158 142 40T45 -184H10H10Z"  />
<glyph unicode="*" horiz-adv-x="352" d="M72 454L153 556L29 597L38 625L161 584V714H190V584L312 625L322 597L199 556L275 454L253 434L176 540L96 434L72 454Z"  />
<glyph unicode="+" horiz-adv-x="600" d="M48 271H281V504H319V271H552V233H319V0H281V233H48V271Z"  />
<glyph unicode="&#x2c;" horiz-adv-x="278" d="M113 103H164V0Q164 -20 161 -39T151 -76T131 -106T100 -126V-93Q111 -88 117 -77T128 -52T133 -24T134 0H113V103Z"  />
<glyph unicode="-" horiz-adv-x="352" d="M69 291H283V253H69V291Z"  />
<glyph unicode="." horiz-adv-x="278" d="M113 103H164V0H113V103Z"  />
<glyph unicode="/" horiz-adv-x="333" d="M305 731H346L28 -17H-13L305 731Z"  />
<glyph unicode="0" horiz-adv-x="556" d="M278 -12Q203 -12 155 20T79 104T39 219T28 345Q28 407 39 470T78 585T155 669T278 702Q353 702 401 670T477 586T517 471T528 345Q528 283 517 220T478 105T401 21T278 -12ZM278 21Q342 21 383 52T448 131T481 236T490 345Q490 397 481 454T449 559T384 638T278 669Q213 669 172 638T108 559T75 454T66 345Q66 293 75 236T107 131T172 52T278 21Z"  />
<glyph unicode="1" horiz-adv-x="556" d="M293 616Q256 577 208 555T108 528V561Q168 570 217 603T297 690H331V0H293V616Z"  />
<glyph unicode="2" horiz-adv-x="556" d="M46 0Q49 48 68 86T116 156T182 215T257 267Q294 292 330 317T394 372T440 435T457 514Q457 549 443 577T406 626T352 658T287 669Q240 669 205 653T147 608T113 541T101 457H63Q69 583 123 642T281 702Q325 702 364 691T432 656T478 597T495 513Q495 452 467 406T395 321T301 250T206 185T130 117T94 38H506V0H46H46Z"  />
<glyph unicode="3" horiz-adv-x="556" d="M74 228Q72 180 85 142T125 77T189 36T275 21Q313 21 349 32T412 64T456 118T473 191Q473 240 453 272T400 323T326 347T241 350V383Q279 381 317 386T387 408T437 454T457 528Q457 564 441 591T398 635T339 660T275 669Q230 669 196 654T140 613T105 551T91 472H53Q53 523 68 565T113 638T183 685T275 702Q317 702 356 692T426 661T476 607T495 528Q495 497 486 470T458 422T415 388T360 370V368Q395 364 423 349T470 311T500 257T511 191Q511 140 492 102T441 39T366 1T275 -12Q218 -12 173 4T96 50T49 125T36 228H74Z"  />
<glyph unicode="4" horiz-adv-x="556" d="M29 214L365 690H403V209H519V176H403V0H365V176H29V214ZM365 209V638H363L67 209H365Z"  />
<glyph unicode="5" horiz-adv-x="556" d="M75 211Q74 168 89 133T132 73T195 35T274 21Q318 21 354 37T416 82T456 148T470 228Q470 270 456 307T415 371T352 414T274 430Q214 430 172 406T97 333H58L130 690H479V657H160L101 382L103 380Q133 422 177 442T274 463Q325 463 368 446T442 397T490 323T508 228Q508 177 491 133T443 57T369 6T274 -12Q224 -12 180 3T103 47T52 117T37 211H75Z"  />
<glyph unicode="6" horiz-adv-x="556" d="M288 -12Q216 -12 169 15T93 86T54 189T42 311Q42 353 46 398T60 487T89 570T135 638T203 685T296 702Q384 702 440 655T507 520H469Q463 553 448 580T411 627T359 658T296 669Q225 669 182 632T117 541T87 424T80 310L82 308Q93 341 114 368T162 415T221 445T288 456Q339 456 381 438T454 389T502 314T519 220Q519 170 502 128T454 54T381 6T288 -12ZM93 220Q93 177 108 141T150 78T211 36T288 21Q330 21 365 37T426 80T466 143T481 220Q481 260 467 297T427 362T366 406T288 423Q245 423 210 407T148 364T108 299T93 220Z"  />
<glyph unicode="7" horiz-adv-x="556" d="M160 0Q166 74 180 150T228 306T317 474T463 657H56V690H501V652Q449 594 401 533T313 396T245 224T204 0H160H160Z"  />
<glyph unicode="8" horiz-adv-x="556" d="M39 198Q39 273 79 320T192 376V378Q129 390 97 430T65 529Q65 578 83 611T131 664T199 693T278 702Q318 702 356 693T425 664T473 611T491 529Q491 471 459 431T364 378V376Q436 368 476 321T517 198Q517 144 498 105T447 39T371 1T278 -12Q228 -12 185 0T109 39T58 104T39 198ZM278 392Q311 392 342 399T398 423T438 466T453 529Q453 568 439 595T400 638T344 662T278 669Q244 669 213 662T157 639T118 595T103 529Q103 492 118 466T157 424T213 400T278 392ZM77 198Q77 152 93 119T137 64T201 32T278 21Q318 21 354 31T418 63T462 118T479 198Q479 241 463 271T419 321T355 350T278 359Q237 359 201 350T137 322T93 272T77 198Z"  />
<glyph unicode="9" horiz-adv-x="556" d="M93 170Q105 104 150 63T266 21Q313 21 347 38T406 84T445 150T468 226T479 303T482 372L480 374Q469 345 452 320T409 276T352 245T279 234Q227 234 184 251T111 300T63 375T46 470Q46 521 63 563T112 637T185 685T279 702Q305 702 333 697T388 680T439 644T481 586T509 499T520 379Q520 337 516 292T502 203T473 120T427 52T359 5T266 -12Q178 -12 122 35T55 170H93ZM279 267Q322 267 357 283T419 326T459 391T474 470Q474 511 459 547T418 611T357 653T279 669Q237 669 202 653T140 610T99 547T84 470Q84 429 99 392T140 328T201 284T279 267Z"  />
<glyph unicode=":" horiz-adv-x="278" d="M113 514H164V411H113V514ZM113 103H164V0H113V103Z"  />
<glyph unicode=";" horiz-adv-x="278" d="M113 514H164V411H113V514ZM113 103H164V0Q164 -20 161 -39T151 -76T131 -106T100 -126V-93Q111 -88 117 -77T128 -52T133 -24T134 0H113V103Z"  />
<glyph unicode="&lt;" horiz-adv-x="600" d="M46 280L554 514V472L79 254L554 34V-8L46 228V280Z"  />
<glyph unicode="=" horiz-adv-x="600" d="M48 369H552V331H48V369ZM48 175H552V137H48V175Z"  />
<glyph unicode="&gt;" horiz-adv-x="600" d="M46 34L521 252L46 472V514L554 278V226L46 -8V34Z"  />
<glyph unicode="?" horiz-adv-x="519" d="M236 181Q236 221 243 251T262 306T290 349T324 386Q342 403 360 421T392 460T414 503T423 552Q423 589 410 615T374 659T322 685T262 693Q217 693 183 678T127 636T93 573T81 493H43Q43 546 57 590T100 665T169 714T265 731Q305 731 340 720T403 687T445 631T461 552Q461 520 454 496T434 451T405 415T372 382Q355 367 338 351T306 311T283 257T274 181H236ZM231 103H282V0H231V103Z"  />
<glyph unicode="@" horiz-adv-x="800" d="M195 282Q195 334 212 387T261 483T336 553T431 580Q455 580 474 573T508 552T531 523T543 489H545L568 560H609L513 264Q508 248 503 232T497 204Q497 189 508 180T536 170Q570 170 602 193T660 254T700 336T716 423Q716 486 690 536T622 623T526 678T417 698Q348 698 288 671T182 596T111 486T84 353Q84 279 113 217T189 111T296 41T419 16Q503 16 575 57T694 168H738Q715 125 681 91T604 33T515 -4T419 -17Q339 -17 271 12T153 93T75 213T46 360Q46 437 75 504T155 622T273 702T415 731Q486 731 548 708T655 644T727 545T754 420Q754 363 733 311T679 220T605 156T525 132Q499 132 480 149T459 203H457Q433 168 399 150T323 132Q294 132 271 144T231 176T205 224T195 282ZM233 287Q233 230 262 198T336 165Q365 165 396 187T452 244Q480 285 498 336T517 429Q517 443 515 463T503 502T475 534T425 547Q383 547 348 521T287 456T247 372T233 287Z"  />
<glyph unicode="A" horiz-adv-x="593" d="M275 714H323L605 0H558L468 229H126L35 0H-12L275 714ZM454 267L301 671H299L140 267H454Z"  />
<glyph unicode="B" horiz-adv-x="630" d="M63 714H349Q413 714 456 698T525 656T562 597T574 529Q574 500 564 474T536 428T492 395T435 377L437 375Q444 376 470 369T524 343T575 289T598 200Q598 151 580 114T530 52T451 13T349 0H63V714ZM349 390Q440 390 485 430T530 537Q530 576 515 602T475 645T418 669T349 676H107V390H349ZM349 38Q445 38 499 78T554 200Q554 246 535 275T487 322T421 345T349 352H107V38H349Z"  />
<glyph unicode="C" horiz-adv-x="704" d="M36 357Q36 435 59 503T125 622T232 702T376 731Q439 731 485 715T562 674T614 620T644 566T659 522T663 501H619Q612 546 590 581T535 642T462 680T376 693Q306 693 251 666T158 594T100 487T80 357Q80 288 100 227T158 121T251 48T376 21Q428 21 473 42T553 99T607 181T631 278H675Q669 214 644 160T579 67T487 5T376 -17Q296 -17 233 12T126 91T59 210T36 357Z"  />
<glyph unicode="D" horiz-adv-x="667" d="M63 714H297Q393 714 456 684T558 604T611 490T627 358Q627 282 608 217T547 103T444 28T295 0H63V714ZM299 38Q349 38 399 53T491 105T557 203T583 358Q583 431 569 483T531 570T477 626T414 658T349 672T290 676H107V38H299Z"  />
<glyph unicode="E" horiz-adv-x="560" d="M63 714H543V676H107V390H517V352H107V38H548V0H63V714Z"  />
<glyph unicode="F" horiz-adv-x="514" d="M63 714H511V676H107V390H471V352H107V0H63V714Z"  />
<glyph unicode="G" horiz-adv-x="741" d="M37 353Q37 429 59 497T125 618T230 700T374 731Q429 731 479 715T568 668T635 593T671 493H629Q604 587 539 640T375 693Q303 693 248 665T156 590T100 482T81 353Q81 285 99 225T154 119T246 48T375 21Q439 21 490 42T576 101T630 192T645 312H382V350H683V0H645V152H643Q630 113 604 82T543 29T464 -5T373 -17Q292 -17 230 12T124 91T59 208T37 353Z"  />
<glyph unicode="H" horiz-adv-x="670" d="M63 714H107V390H563V714H607V0H563V352H107V0H63V714Z"  />
<glyph unicode="I" horiz-adv-x="170" d="M63 714H107V0H63V714Z"  />
<glyph unicode="J" horiz-adv-x="481" d="M217 21Q278 21 310 41T357 92T372 161T374 237V714H418V222Q418 201 418 175T412 123T395 71T361 27T306 -5T222 -17Q150 -17 109 6T49 65T25 144T20 227H64Q61 187 65 150T85 85T132 39T217 21Z"  />
<glyph unicode="K" horiz-adv-x="613" d="M63 714H107V303L556 714H613L287 417L633 0H578L255 387L107 252V0H63V714Z"  />
<glyph unicode="L" horiz-adv-x="500" d="M63 714H107V38H512V0H63V714Z"  />
<glyph unicode="M" horiz-adv-x="809" d="M63 714H126L405 49H407L683 714H746V0H702V660H700L428 0H384L109 660H107V0H63V714Z"  />
<glyph unicode="N" horiz-adv-x="678" d="M63 714H118L569 59H571V714H615V0H563L109 660H107V0H63V714Z"  />
<glyph unicode="O" horiz-adv-x="741" d="M710 357Q710 279 687 211T621 92T514 12T371 -17Q291 -17 228 12T121 91T54 210T31 357Q31 435 54 503T120 622T227 702T371 731Q451 731 514 702T620 623T687 504T710 357ZM75 357Q75 288 95 227T153 121T246 48T371 21Q441 21 495 48T588 120T646 227T666 357Q666 426 646 487T588 593T496 666T371 693Q301 693 246 666T153 594T95 487T75 357Z"  />
<glyph unicode="P" horiz-adv-x="591" d="M63 714H367Q397 714 433 707T501 679T554 618T575 514Q575 420 517 369T351 318H107V0H63V714ZM107 356H358Q406 356 439 370T493 408T522 459T531 515Q531 535 525 562T501 615T451 658T364 676H107V356Z"  />
<glyph unicode="Q" horiz-adv-x="741" d="M573 48Q490 -17 371 -17Q291 -17 228 12T121 91T54 210T31 357Q31 435 54 503T120 622T227 702T371 731Q451 731 514 702T620 623T687 504T710 357Q710 269 683 197T603 74L714 -6L691 -37L573 48ZM568 99Q616 147 641 213T666 357Q666 426 646 487T588 593T496 666T371 693Q301 693 246 666T153 594T95 487T75 357Q75 288 95 227T153 121T246 48T371 21Q470 21 538 74L430 151L453 182L568 99Z"  />
<glyph unicode="R" horiz-adv-x="630" d="M63 714H361Q408 714 449 705T521 674T569 617T587 530Q587 458 547 409T434 347V345Q483 339 511 319T554 270T572 206T576 136Q576 115 576 95T578 58T584 25T597 0H548Q534 25 533 58T531 128T528 199T509 263T459 308T361 325H107V0H63V714ZM361 363Q400 363 433 372T491 402T529 453T543 527Q543 567 528 595T488 642T430 668T361 676H107V363H361Z"  />
<glyph unicode="S" horiz-adv-x="630" d="M529 510Q527 556 510 590T462 647T391 681T300 693Q270 693 236 686T172 662T123 615T104 541Q104 498 125 471T180 428T258 401T347 382Q393 373 436 361T514 327T570 271T591 184Q591 128 567 90T507 28T426 -6T340 -17Q277 -17 222 -4T126 40T62 119T39 236H83Q80 177 100 137T155 70T239 33T340 21Q372 21 408 29T475 56T526 106T547 184Q547 229 526 257T471 303T393 331T303 351Q258 360 214 372T136 404T81 457T60 541Q60 592 81 628T137 687T215 720T300 731Q356 731 404 719T489 680T548 611T573 510H529Z"  />
<glyph unicode="T" horiz-adv-x="519" d="M-14 676V714H533V676H281V0H237V676H-14Z"  />
<glyph unicode="U" horiz-adv-x="672" d="M107 714V286Q107 265 109 237T119 180T141 122T181 71T242 35T331 21Q397 21 441 39T513 92T553 176T565 286V714H609V286Q609 222 596 167T550 71T465 7T331 -17Q268 -17 223 -1T149 40T102 99T76 165T65 230T63 286V714H107Z"  />
<glyph unicode="V" horiz-adv-x="556" d="M277 38H279L526 714H570L303 0H252L-14 714H32L277 38Z"  />
<glyph unicode="W" horiz-adv-x="889" d="M-6 714H39L225 47H227L416 714H471L663 47H665L848 714H895L690 0H640L444 676H442L249 0H200L-6 714Z"  />
<glyph unicode="X" horiz-adv-x="556" d="M1 714H52L278 400L509 714H559L307 367L573 0H520L278 334L35 0H-17L251 367L1 714Z"  />
<glyph unicode="Y" horiz-adv-x="574" d="M546 714H595L308 299V0H264V299L-21 714H29L287 336L546 714Z"  />
<glyph unicode="Z" horiz-adv-x="537" d="M28 714H529V676L45 38H538V0H-1V38L481 676H28V714Z"  />
<glyph unicode="[" horiz-adv-x="241" d="M132 698V-151H231V-184H94V731H231V698H132Z"  />
<glyph unicode="\" horiz-adv-x="333" d="M305 -17L-13 731H28L346 -17H305Z"  />
<glyph unicode="]" horiz-adv-x="241" d="M109 -151V698H10V731H147V-184H10V-151H109Z"  />
<glyph unicode="^" horiz-adv-x="600" d="M519 237L301 657L81 237H39L275 690H327L561 237H519Z"  />
<glyph unicode="_" horiz-adv-x="500" d="M0 -125V-75H500V-125H0Z"  />
<glyph unicode="`" horiz-adv-x="167" d="M104 590L-30 730H21L141 590H104Z"  />
<glyph unicode="a" horiz-adv-x="500" d="M397 102H395Q386 79 369 59T328 22T272 -3T204 -12Q122 -12 77 23T32 133Q32 178 50 206T95 251T156 275T221 285L280 290Q321 293 344 299T380 317T395 347T398 392Q398 413 390 431T365 463T321 485T255 493Q186 493 144 459T97 356H59Q63 441 113 483T257 526Q350 526 392 490T435 394V95Q435 84 435 73T439 53T449 39T469 33Q479 33 497 36V4Q482 0 466 0Q443 0 430 6T409 22T400 45T397 75V102ZM397 292Q383 275 355 269T291 260L227 254Q199 251 171 246T121 227T84 192T70 133Q70 76 106 49T205 21Q270 21 308 44T366 98T391 157T397 196V292Z"  />
<glyph unicode="b" horiz-adv-x="556" d="M65 714H103V405H105Q116 435 136 457T182 495T238 518T300 526Q357 526 398 506T468 451T509 370T523 269Q523 177 498 122T438 37T365 -2T300 -12Q249 -12 214 4T155 41T120 84T105 115H103V0H65V714ZM300 21Q351 21 386 43T443 100T475 180T485 269Q485 312 474 352T439 423T381 474T300 493Q250 493 213 476T152 429T116 358T104 269Q104 222 115 177T149 98T210 42T300 21Z"  />
<glyph unicode="c" horiz-adv-x="519" d="M443 355Q440 389 426 415T388 458T335 484T269 493Q221 493 184 474T122 422T84 348T71 262Q71 210 83 166T120 90T182 39T269 21Q305 21 335 33T389 66T428 116T448 181H486Q480 135 461 99T413 39T347 1T269 -12Q206 -12 162 10T89 71T47 158T33 262Q33 316 48 364T94 448T168 505T269 526Q311 526 347 516T412 484T459 431T481 355H443Z"  />
<glyph unicode="d" horiz-adv-x="556" d="M453 110H451Q419 49 371 19T254 -12Q196 -12 154 10T85 69T45 154T32 256Q32 313 46 362T88 448T160 505T261 526Q292 526 322 518T377 493T422 453T451 399H453V714H491V0H453V110ZM262 21Q311 21 346 41T405 94T440 169T452 256Q452 301 441 343T406 419T347 473T261 493Q210 493 174 474T115 421T81 345T70 256Q70 211 81 169T116 93T176 41T262 21Z"  />
<glyph unicode="e" horiz-adv-x="519" d="M71 252V246Q71 201 83 160T118 88T177 39T260 21Q337 21 382 61T444 174H482Q465 84 409 36T259 -12Q202 -12 160 8T89 64T46 148T32 253Q32 307 46 356T90 443T162 503T265 526Q319 526 360 506T430 452T472 372T487 274Q487 269 487 263T486 252H71ZM448 285Q446 327 434 364T399 430T342 476T265 493Q219 493 184 476T125 430T88 363T72 285H448Z"  />
<glyph unicode="f" horiz-adv-x="241" d="M0 481V514H92V620Q92 647 101 666T125 698T161 716T205 722Q222 722 250 717V684Q222 689 205 689Q173 689 152 675T130 617V514H237V481H130V0H92V481H0Z"  />
<glyph unicode="g" horiz-adv-x="537" d="M481 514V27Q481 -16 471 -56T437 -128T369 -177T260 -196Q219 -196 183 -188T120 -161T77 -112T58 -36H96Q99 -70 113 -94T149 -133T200 -156T260 -163Q313 -163 348 -147T405 -106T434 -48T443 18V136H441Q414 79 368 49T255 19Q198 19 157 38T88 92T47 173T33 273Q33 324 47 370T90 450T159 505T255 526Q316 526 367 495T441 407H443V514H481ZM255 493Q208 493 174 474T117 424T83 354T71 273Q71 228 82 188T117 117T175 70T255 52Q302 52 337 70T395 119T430 189T442 273Q442 316 431 356T396 426T337 475T255 493Z"  />
<glyph unicode="h" horiz-adv-x="519" d="M94 714V404H96Q106 433 124 455T167 494T221 518T280 526Q325 526 356 515T408 486T439 446T456 400T462 356T463 318V0H425V325Q425 344 422 373T405 428T361 474T279 493Q235 493 201 477T143 433T107 365T94 278V0H56V714H94Z"  />
<glyph unicode="i" horiz-adv-x="168" d="M65 611V714H103V611H65ZM65 0V514H103V0H65Z"  />
<glyph unicode="j" horiz-adv-x="168" d="M65 611V714H103V611H65ZM103 514V-55Q103 -81 99 -104T84 -145T52 -173T-2 -184H-18Q-22 -184 -26 -184T-34 -183V-150Q-29 -151 -23 -151T-9 -152Q11 -152 25 -148T48 -132T61 -101T65 -52V514H103Z"  />
<glyph unicode="k" horiz-adv-x="463" d="M58 714H96V241L413 514H468L243 322L484 0H432L213 293L96 194V0H58V714Z"  />
<glyph unicode="l" horiz-adv-x="168" d="M103 714V0H65V714H103Z"  />
<glyph unicode="m" horiz-adv-x="796" d="M57 514H95V409H97Q103 433 118 454T154 492T202 517T258 526Q295 526 322 517T368 492T398 457T413 417H415Q438 471 476 498T578 526Q613 526 642 516T693 484T727 429T739 351V0H701V352Q701 401 686 429T651 471T610 489T578 493Q543 493 514 481T463 445T429 386T417 304V0H379V352Q379 400 365 428T331 471T291 489T258 493Q231 493 202 482T149 448T110 389T95 304V0H57V514Z"  />
<glyph unicode="n" horiz-adv-x="519" d="M56 514H94V404H96Q106 433 124 455T167 494T221 518T280 526Q325 526 356 515T408 486T439 446T456 400T462 356T463 318V0H425V325Q425 344 422 373T405 428T361 474T279 493Q235 493 201 477T143 433T107 365T94 278V0H56V514Z"  />
<glyph unicode="o" horiz-adv-x="537" d="M32 257Q32 312 47 360T93 446T167 504T268 526Q325 526 369 505T443 446T488 361T504 257Q504 202 489 153T443 68T369 10T268 -12Q211 -12 167 9T93 67T48 153T32 257ZM70 257Q70 211 83 169T121 93T183 41T268 21Q316 21 353 40T415 93T453 168T466 257Q466 303 453 345T415 421T353 473T268 493Q220 493 183 474T121 421T83 346T70 257Z"  />
<glyph unicode="p" horiz-adv-x="556" d="M103 396H105Q111 415 125 438T162 480T217 513T292 526Q351 526 394 504T466 445T509 359T523 256Q523 197 509 148T467 64T395 8T292 -12Q228 -12 178 16T105 107H103V-184H65V514H103V396ZM292 21Q342 21 378 40T438 91T473 165T485 256Q485 300 474 342T440 418T381 472T292 493Q241 493 205 473T147 420T114 345T104 256Q104 210 113 168T143 93T201 41T292 21Z"  />
<glyph unicode="q" horiz-adv-x="556" d="M453 115H451Q441 85 422 61T378 21T322 -3T261 -12Q203 -12 160 9T89 66T46 151T32 258Q32 311 45 359T85 445T154 504T254 526Q323 526 371 496T451 404H453V514H491V-184H453V115ZM261 21Q310 21 346 41T406 94T440 170T452 258Q452 302 441 344T406 420T347 473T262 493Q212 493 176 474T117 421T82 346T70 258Q70 211 80 169T114 93T174 41T261 21Z"  />
<glyph unicode="r" horiz-adv-x="278" d="M94 400H97Q104 425 122 447T167 485T226 509T294 517V479Q264 483 226 473T152 429Q138 414 128 400T110 369T99 331T94 281V0H56V514H94V400Z"  />
<glyph unicode="s" horiz-adv-x="481" d="M74 171Q76 135 90 108T126 61T179 31T244 21Q269 21 297 25T350 42T391 75T407 130Q407 173 381 195T316 229T231 248T146 271T80 313T54 394Q54 432 71 457T114 498T174 519T240 526Q280 526 315 517T375 488T415 437T430 362H392Q392 397 381 422T349 462T300 485T240 493Q214 493 188 488T140 471T106 440T92 394Q92 363 107 344T146 314T201 295T263 281Q301 274 334 265T392 239T431 196T445 130Q445 88 426 61T378 18T314 -5T244 -12Q200 -12 163 -1T97 34T53 92T36 171H74Z"  />
<glyph unicode="t" horiz-adv-x="259" d="M245 481H133V122Q133 91 140 73T161 46T196 34T244 33V0Q215 -2 188 0T139 15T106 53T95 122V481H0V514H95V674H133V514H245V481Z"  />
<glyph unicode="u" horiz-adv-x="519" d="M463 0H425V110H423Q413 81 395 59T352 20T298 -4T239 -12Q194 -12 163 -1T111 28T80 68T63 114T57 158T56 196V514H94V189Q94 169 97 141T114 86T158 40T240 21Q283 21 317 37T376 81T412 149T425 236V514H463V0Z"  />
<glyph unicode="v" horiz-adv-x="444" d="M252 0H205L-2 514H42L228 44H230L404 514H446L252 0Z"  />
<glyph unicode="w" horiz-adv-x="704" d="M184 44H186L326 514H377L518 44H520L664 514H706L541 0H494L353 466H351L209 0H161L-2 514H39L184 44Z"  />
<glyph unicode="x" horiz-adv-x="444" d="M196 270L8 514H61L222 299L384 514H433L247 270L450 0H398L222 241L42 0H-6L196 270Z"  />
<glyph unicode="y" horiz-adv-x="444" d="M-6 514H39L230 45L406 514H449L229 -55Q213 -93 200 -120T169 -161Q149 -177 122 -180T49 -184V-151Q90 -151 113 -145T156 -118Q167 -107 179 -78T209 3L-6 514Z"  />
<glyph unicode="z" horiz-adv-x="426" d="M417 33V0H9V36L354 481H36V514H401V478L55 33H417Z"  />
<glyph unicode="{" horiz-adv-x="333" d="M293 698H245Q214 698 204 675T193 595V438Q193 388 184 358T163 310T140 286T123 276Q128 271 139 263T163 238T184 190T193 109V-48Q193 -105 203 -128T245 -151H293V-184H243Q201 -184 178 -159T155 -66V92Q155 122 152 151T141 202T119 239T83 254V292Q105 293 119 307T141 343T152 395T155 454V613Q155 681 178 706T243 731H293V698Z"  />
<glyph unicode="|" horiz-adv-x="222" d="M92 786H130V-214H92V786Z"  />
<glyph unicode="}" horiz-adv-x="333" d="M40 -151H88Q119 -151 129 -128T140 -48V109Q140 159 149 189T170 237T193 263T210 276Q205 279 194 286T170 310T149 357T140 438V595Q140 652 130 675T88 698H40V731H90Q132 731 155 706T178 613V454Q178 424 181 395T192 344T214 307T250 292V254Q228 253 214 239T192 203T181 151T178 92V-66Q178 -134 155 -159T90 -184H40V-151Z"  />
<glyph unicode="~" horiz-adv-x="600" d="M528 284Q518 269 506 254T480 227T447 207T407 199Q379 199 353 209T293 237Q284 241 273 246T249 256T224 264T201 267Q179 267 163 260T134 242T115 217T102 192L73 222Q96 260 122 282T195 305Q225 305 248 297T306 273Q327 263 351 250T408 237Q422 237 436 244T462 262T484 287T500 312L528 284Z"  />
<glyph unicode="&#xA0;" horiz-adv-x="278" />
<glyph unicode="&#xA4;" horiz-adv-x="556" d="M492 104L439 158Q404 127 362 112T277 97Q234 97 193 112T117 158L62 102L35 129L91 184Q61 219 46 260T30 345Q30 388 45 429T91 506L34 562L61 589L117 533Q152 562 193 577T277 593Q320 593 362 578T439 532L493 587L520 560L465 506Q496 471 511 430T526 345Q526 302 511 261T465 185L519 131L492 104ZM278 135Q319 135 356 151T421 196T465 263T482 345Q482 388 466 426T421 493T356 538T278 555Q237 555 200 539T135 494T91 427T74 345Q74 301 90 263T135 197T200 152T278 135Z"  />
<glyph unicode="&#xA6;" horiz-adv-x="222" d="M92 661H130V411H92V661ZM92 161H130V-89H92V161Z"  />
<glyph unicode="&#xA7;" horiz-adv-x="556" d="M411 536Q412 566 404 595T378 647T334 684T275 698Q253 699 231 692T190 671T159 637T147 593Q147 547 173 516T239 460T324 414T409 365T475 302T503 213Q503 155 472 123T392 77Q422 49 435 23T449 -46Q449 -84 436 -110T399 -152T346 -176T281 -184Q237 -184 204 -170T147 -130T111 -69T99 9H137Q138 -24 147 -53T173 -104T217 -138T280 -151Q340 -151 375 -126T411 -46Q411 -13 396 12T355 59T297 98T231 134Q193 156 160 176T102 220T64 272T52 337Q52 361 61 382T85 420T121 450T163 471Q146 483 135 500T117 535T109 568T109 593Q109 624 123 650T160 694T213 722T275 731Q362 731 405 678T449 536H411ZM187 449Q169 442 152 432T121 407T99 376T90 337Q90 311 100 291T126 255T161 226T198 202Q240 177 280 152T363 101Q367 100 375 102T392 110T412 122T430 135Q445 149 455 169T465 213Q465 239 453 260T423 300T382 332T339 359L187 449Z"  />
<glyph unicode="&#xA8;" horiz-adv-x="167" d="M140 603V706H184V603H140ZM-18 603V706H26V603H-18Z"  />
<glyph unicode="&#xA9;" horiz-adv-x="800" d="M400 731Q478 731 546 702T664 622T744 503T774 357Q774 279 745 211T665 93T546 13T400 -17Q322 -17 254 12T136 92T56 211T26 357Q26 435 55 503T135 621T254 701T400 731ZM401 698Q329 698 267 672T160 600T90 492T64 358Q64 287 90 225T161 116T267 43T401 16Q473 16 534 43T640 116T710 225T736 358Q736 430 711 492T641 599T535 671T401 698ZM561 438Q550 495 509 527T409 560Q365 560 331 545T272 503T236 439T223 359Q223 317 236 280T273 214T332 170T411 153Q472 153 509 188T561 281H599Q594 245 578 215T537 164T480 132T411 120Q360 120 318 138T247 188T201 263T185 358Q185 409 200 452T245 527T315 575T408 593Q444 593 476 583T534 553T577 504T599 438H561Z"  />
<glyph unicode="&#xAB;" horiz-adv-x="389" d="M195 252V292L309 423V372L224 272L309 170V121L195 252ZM67 252V292L181 423V372L96 272L181 170V121L67 252Z"  />
<glyph unicode="&#xAC;" horiz-adv-x="600" d="M514 331H48V369H552V108H514V331Z"  />
<glyph unicode="&#xAD;" horiz-adv-x="352" d="M69 253V291H283V253H69Z"  />
<glyph unicode="&#xAE;" horiz-adv-x="800" d="M400 731Q478 731 546 702T664 622T744 503T774 357Q774 279 745 211T665 93T546 13T400 -17Q322 -17 254 12T136 92T56 211T26 357Q26 435 55 503T135 621T254 701T400 731ZM401 698Q329 698 267 672T160 600T90 492T64 357Q64 286 90 224T161 116T267 43T401 16Q473 16 534 43T640 116T710 225T736 358Q736 430 711 492T641 599T535 671T401 698ZM264 578H430Q505 578 539 547T574 456Q574 429 565 409T541 374T505 351T460 339L592 136H550L417 340H302V136H264V578ZM302 373H396Q421 373 446 375T491 386T523 411T536 457Q536 482 526 499T500 526T464 541T424 545H302V373Z"  />
<glyph unicode="&#xB0;" horiz-adv-x="400" d="M200 416Q170 416 144 427T99 457T68 503T57 559Q57 589 68 615T98 660T144 691T200 702Q230 702 256 691T301 661T332 615T343 559Q343 529 332 503T302 458T256 427T200 416ZM200 669Q177 669 158 660T125 636T103 601T95 559Q95 536 103 516T125 481T158 458T200 449Q222 449 241 457T275 481T297 516T305 559Q305 581 297 601T275 636T242 660T200 669Z"  />
<glyph unicode="&#xB1;" horiz-adv-x="600" d="M281 504H319V315H552V277H319V88H281V277H48V315H281V504ZM48 38H552V0H48V38Z"  />
<glyph unicode="&#xB4;" horiz-adv-x="167" d="M146 730H197L63 590H26L146 730Z"  />
<glyph unicode="&#xB5;" horiz-adv-x="528" d="M472 0H434V110H432Q422 81 404 59T361 20T307 -4T248 -12Q191 -12 157 7T103 56V-184H65V514H103V189Q103 169 106 141T123 86T167 40T249 21Q292 21 326 37T385 81T421 149T434 236V514H472V0Z"  />
<glyph unicode="&#xB6;" horiz-adv-x="600" d="M273 324Q229 324 191 339T126 381T82 443T66 518Q66 615 124 664T289 714H506V-146H468V681H311V-146H273V324Z"  />
<glyph unicode="&#xB7;" horiz-adv-x="278" d="M85 317Q85 338 101 354T139 371Q160 371 177 355T194 317Q194 295 178 279T139 262Q117 262 101 279T85 317Z"  />
<glyph unicode="&#xBB;" horiz-adv-x="389" d="M208 170L293 272L208 372V423L322 292V252L208 121V170ZM80 170L165 272L80 372V423L194 292V252L80 121V170Z"  />
<glyph unicode="&#x131;" horiz-adv-x="168" d="M65 0V514H103V0H65Z"  />
<glyph unicode="&#x2D8;" horiz-adv-x="167" d="M219 720Q216 696 205 674T176 636T136 610T88 600Q31 600 -7 631T-52 720H-19Q-13 694 -1 677T25 650T56 637T87 633Q126 633 152 657T186 720H219Z"  />
<glyph unicode="&#x401;" horiz-adv-x="560" d="M63 714H543V676H107V390H517V352H107V38H548V0H63V714ZM355 793V896H399V793H355ZM197 793V896H241V793H197Z"  />
<glyph unicode="&#x402;" horiz-adv-x="714" d="M684 166Q684 105 667 54T619 -35T543 -94T442 -117V-80Q491 -78 528 -59T591 -8T628 68T641 166Q641 216 629 258T592 330T534 377T457 394Q367 394 316 332T264 162V0H220V676H-14V714H533V676H264V304H266Q291 366 341 399T460 432Q512 432 553 413T624 358T668 274T684 166Z"  />
<glyph unicode="&#x403;" horiz-adv-x="485" d="M63 714H499V676H107V0H63V714ZM328 920H379L245 780H208L328 920Z"  />
<glyph unicode="&#x404;" horiz-adv-x="704" d="M677 273Q672 211 648 158T583 66T486 5T360 -17Q286 -17 226 9T124 84T59 201T36 354Q36 441 59 511T126 629T230 704T369 731Q491 731 569 672T666 506H622Q607 595 538 644T366 693Q303 693 253 672T165 612T107 516T80 390H455V352H79Q79 277 99 216T157 112T246 45T362 21Q422 21 470 40T552 93T608 173T634 273H677H677Z"  />
<glyph unicode="&#x405;" horiz-adv-x="630" d="M529 510Q527 556 510 590T462 647T391 681T300 693Q270 693 236 686T172 662T123 615T104 541Q104 498 125 471T180 428T258 401T347 382Q393 373 436 361T514 327T570 271T591 184Q591 128 567 90T507 28T426 -6T340 -17Q277 -17 222 -4T126 40T62 119T39 236H83Q80 177 100 137T155 70T239 33T340 21Q372 21 408 29T475 56T526 106T547 184Q547 229 526 257T471 303T393 331T303 351Q258 360 214 372T136 404T81 457T60 541Q60 592 81 628T137 687T215 720T300 731Q356 731 404 719T489 680T548 611T573 510H529Z"  />
<glyph unicode="&#x406;" horiz-adv-x="170" d="M63 714H107V0H63V714Z"  />
<glyph unicode="&#x407;" horiz-adv-x="170" d="M142 793V896H186V793H142ZM-16 793V896H28V793H-16ZM63 714H107V0H63V714Z"  />
<glyph unicode="&#x408;" horiz-adv-x="481" d="M64 227Q61 187 65 150T85 85T132 39T217 21Q278 21 310 41T357 92T372 161T374 237V714H418V222Q418 201 418 175T412 123T395 71T361 27T306 -5T222 -17Q150 -17 109 6T49 65T25 144T20 227H64Z"  />
<glyph unicode="&#x409;" horiz-adv-x="1017" d="M520 676H229L213 227Q211 163 202 118T174 45T130 3T67 -10Q48 -10 32 -7T2 2V42Q30 28 62 28Q87 28 106 37T139 71T159 134T169 234L186 714H564V401H773Q873 401 930 349T987 201Q987 155 972 118T929 55T860 14T770 0H520V676ZM766 38Q848 38 895 80T943 201Q943 279 896 321T767 363H564V38H766Z"  />
<glyph unicode="&#x40A;" horiz-adv-x="1017" d="M554 401H773Q873 401 930 349T987 201Q987 155 972 118T929 55T860 14T770 0H510V363H107V0H63V714H107V401H510V714H554V401ZM766 38Q848 38 895 80T943 201Q943 279 896 321T767 363H554V38H766Z"  />
<glyph unicode="&#x40B;" horiz-adv-x="718" d="M264 0H220V676H-14V714H533V676H264V374Q299 397 349 414T454 432Q512 432 551 417T615 374T651 309T662 226V0H618V219Q618 256 610 288T583 344T532 380T450 394Q404 394 353 377T264 332V0Z"  />
<glyph unicode="&#x40C;" horiz-adv-x="613" d="M382 920H433L299 780H262L382 920ZM63 714H107V303L556 714H613L287 417L633 0H578L255 387L107 252V0H63V714Z"  />
<glyph unicode="&#x40E;" horiz-adv-x="556" d="M-12 714H36L287 194L525 714H571L267 62Q230 -17 154 -17Q133 -17 113 -11T78 5V48Q93 36 113 29T155 21Q184 21 203 37T237 84L266 148L-12 714ZM419 910Q416 886 405 864T376 826T336 800T288 790Q231 790 193 821T148 910H181Q187 884 199 867T225 840T256 827T287 823Q326 823 352 847T386 910H419Z"  />
<glyph unicode="&#x40F;" horiz-adv-x="670" d="M63 0V714H107V38H563V714H607V0H356V-184H313V0H63Z"  />
<glyph unicode="&#x410;" horiz-adv-x="593" d="M275 714H323L605 0H558L468 229H126L35 0H-12L275 714ZM454 267L301 671H299L140 267H454Z"  />
<glyph unicode="&#x411;" horiz-adv-x="630" d="M107 676V401H384Q484 401 541 349T598 201Q598 155 583 118T540 55T471 14T381 0H63V714H551V676H107ZM377 38Q459 38 506 80T554 201Q554 279 507 321T378 363H107V38H377Z"  />
<glyph unicode="&#x412;" horiz-adv-x="630" d="M63 714H349Q413 714 456 698T525 656T562 597T574 529Q574 500 564 474T536 428T492 395T435 377L437 375Q444 376 470 369T524 343T575 289T598 200Q598 151 580 114T530 52T451 13T349 0H63V714ZM349 390Q440 390 485 430T530 537Q530 576 515 602T475 645T418 669T349 676H107V390H349ZM349 38Q445 38 499 78T554 200Q554 246 535 275T487 322T421 345T349 352H107V38H349Z"  />
<glyph unicode="&#x413;" horiz-adv-x="485" d="M63 714H499V676H107V0H63V714Z"  />
<glyph unicode="&#x414;" horiz-adv-x="670" d="M621 -184V0H62V-184H19V38H82Q120 108 141 184T173 336T186 483T189 615V714H592V38H664V-184H621ZM548 676H233V608Q233 548 231 478T218 333T187 183T130 38H548V676Z"  />
<glyph unicode="&#x415;" horiz-adv-x="560" d="M63 714H543V676H107V390H517V352H107V38H548V0H63V714Z"  />
<glyph unicode="&#x416;" horiz-adv-x="980" d="M468 287L339 405L36 0H-17L308 433L3 714H62L468 340V714H512V339L920 714H977L672 434L997 0H943L640 405L512 288V0H468V287Z"  />
<glyph unicode="&#x417;" horiz-adv-x="624" d="M317 -17Q254 -17 202 -2T112 45T55 123T34 236H78Q80 125 144 73T319 21Q362 21 402 32T472 65T521 121T540 198Q540 245 523 275T476 322T408 345T329 352Q305 352 290 352T258 351V390Q274 389 289 389T329 389Q365 389 400 396T463 421T508 468T525 539Q525 578 510 607T468 655T405 683T325 693Q278 693 238 683T169 651T121 595T100 511H56Q60 568 81 609T138 678T221 718T325 731Q377 731 421 719T499 683T550 624T569 540Q569 502 557 473T523 423T476 391T421 375V373Q458 367 488 355T539 322T572 271T584 198Q584 145 563 105T506 38T421 -3T317 -17Z"  />
<glyph unicode="&#x418;" horiz-adv-x="670" d="M563 659H560L117 0H63V714H107V55H110L552 714H607V0H563V659Z"  />
<glyph unicode="&#x419;" horiz-adv-x="670" d="M563 659H560L117 0H63V714H107V55H110L552 714H607V0H563V659ZM472 910Q469 886 458 864T429 826T389 800T341 790Q284 790 246 821T201 910H234Q240 884 252 867T278 840T309 827T340 823Q379 823 405 847T439 910H472Z"  />
<glyph unicode="&#x41A;" horiz-adv-x="613" d="M63 714H107V303L556 714H613L287 417L633 0H578L255 387L107 252V0H63V714Z"  />
<glyph unicode="&#x41B;" horiz-adv-x="652" d="M589 714V0H545V676H229L213 227Q211 163 202 118T174 45T130 3T67 -10Q48 -10 32 -7T2 2V42Q30 28 62 28Q87 28 106 37T139 71T159 134T169 234L186 714H589Z"  />
<glyph unicode="&#x41C;" horiz-adv-x="809" d="M63 714H126L405 49H407L683 714H746V0H702V660H700L428 0H384L109 660H107V0H63V714Z"  />
<glyph unicode="&#x41D;" horiz-adv-x="670" d="M63 714H107V390H563V714H607V0H563V352H107V0H63V714Z"  />
<glyph unicode="&#x41E;" horiz-adv-x="741" d="M710 357Q710 279 687 211T621 92T514 12T371 -17Q291 -17 228 12T121 91T54 210T31 357Q31 435 54 503T120 622T227 702T371 731Q451 731 514 702T620 623T687 504T710 357ZM75 357Q75 288 95 227T153 121T246 48T371 21Q441 21 495 48T588 120T646 227T666 357Q666 426 646 487T588 593T496 666T371 693Q301 693 246 666T153 594T95 487T75 357Z"  />
<glyph unicode="&#x41F;" horiz-adv-x="670" d="M607 0H563V676H107V0H63V714H607V0Z"  />
<glyph unicode="&#x420;" horiz-adv-x="591" d="M63 714H367Q397 714 433 707T501 679T554 618T575 514Q575 420 517 369T351 318H107V0H63V714ZM107 356H358Q406 356 439 370T493 408T522 459T531 515Q531 535 525 562T501 615T451 658T364 676H107V356Z"  />
<glyph unicode="&#x421;" horiz-adv-x="704" d="M36 357Q36 435 59 503T125 622T232 702T376 731Q439 731 485 715T562 674T614 620T644 566T659 522T663 501H619Q612 546 590 581T535 642T462 680T376 693Q306 693 251 666T158 594T100 487T80 357Q80 288 100 227T158 121T251 48T376 21Q428 21 473 42T553 99T607 181T631 278H675Q669 214 644 160T579 67T487 5T376 -17Q296 -17 233 12T126 91T59 210T36 357Z"  />
<glyph unicode="&#x422;" horiz-adv-x="519" d="M-14 676V714H533V676H281V0H237V676H-14Z"  />
<glyph unicode="&#x423;" horiz-adv-x="556" d="M-12 714H36L287 194L525 714H571L267 62Q230 -17 154 -17Q133 -17 113 -11T78 5V48Q93 36 113 29T155 21Q184 21 203 37T237 84L266 148L-12 714Z"  />
<glyph unicode="&#x424;" horiz-adv-x="722" d="M693 359Q693 290 668 239T600 153T501 101T383 83V0H339V83Q276 83 220 100T122 151T54 238T29 359Q29 428 54 479T122 565T221 617T339 635V714H383V635Q446 635 502 618T600 567T668 480T693 359ZM649 359Q649 419 628 463T569 537T484 582T383 597V121Q437 121 485 136T569 180T627 254T649 359ZM73 359Q73 299 94 255T153 181T238 136T339 121V597Q285 597 237 582T153 538T95 464T73 359Z"  />
<glyph unicode="&#x425;" horiz-adv-x="556" d="M1 714H52L278 400L509 714H559L307 367L573 0H520L278 334L35 0H-17L251 367L1 714Z"  />
<glyph unicode="&#x426;" horiz-adv-x="685" d="M636 0H63V714H107V38H563V714H607V38H679V-184H636V0Z"  />
<glyph unicode="&#x427;" horiz-adv-x="614" d="M507 348Q452 328 391 316T273 304Q207 304 164 319T95 362T59 433T49 530V714H93V533Q93 487 100 452T128 392T184 355T274 342Q328 342 387 354T507 386V714H551V0H507V348H507Z"  />
<glyph unicode="&#x428;" horiz-adv-x="1008" d="M901 714H945V0H63V714H107V38H482V714H526V38H901V714Z"  />
<glyph unicode="&#x429;" horiz-adv-x="1023" d="M901 714H945V38H1017V-184H974V0H63V714H107V38H482V714H526V38H901V714Z"  />
<glyph unicode="&#x42A;" horiz-adv-x="778" d="M231 676H-14V714H275V401H534Q634 401 691 349T748 201Q748 155 733 118T690 55T621 14T531 0H231V676ZM527 38Q609 38 656 80T704 201Q704 279 657 321T528 363H275V38H527Z"  />
<glyph unicode="&#x42B;" horiz-adv-x="800" d="M693 714H737V0H693V714ZM63 714H107V401H366Q466 401 523 349T580 201Q580 155 565 118T522 55T453 14T363 0H63V714ZM359 38Q441 38 488 80T536 201Q536 279 489 321T360 363H107V38H359Z"  />
<glyph unicode="&#x42C;" horiz-adv-x="610" d="M63 714H107V401H366Q466 401 523 349T580 201Q580 155 565 118T522 55T453 14T363 0H63V714ZM359 38Q441 38 488 80T536 201Q536 279 489 321T360 363H107V38H359Z"  />
<glyph unicode="&#x42D;" horiz-adv-x="704" d="M254 390H629Q624 460 604 516T550 611T467 672T355 693Q254 693 184 643T88 506H44Q73 610 151 670T356 731Q431 731 490 705T589 630T651 511T673 354Q673 270 649 202T582 85T477 10T343 -17Q271 -17 215 4T118 65T56 157T29 273H72Q76 219 95 173T149 93T232 40T341 21Q405 21 458 44T549 111T608 216T630 352H254V390Z"  />
<glyph unicode="&#x42E;" horiz-adv-x="980" d="M949 357Q949 279 926 211T860 92T753 12T610 -17Q530 -17 467 11T361 90T294 207T270 352H107V0H63V714H107V390H271Q275 462 300 524T368 633T473 705T610 731Q690 731 753 702T859 623T926 504T949 357ZM314 357Q314 288 334 227T392 121T485 48T610 21Q680 21 734 48T827 120T885 227T905 357Q905 426 885 487T827 593T735 666T610 693Q540 693 485 666T392 594T334 487T314 357Z"  />
<glyph unicode="&#x42F;" horiz-adv-x="630" d="M523 325H274L38 0H-13L229 328Q189 331 155 344T97 381T58 437T44 514Q44 608 102 661T265 714H567V0H523V325ZM265 676Q183 676 135 636T87 515Q87 476 100 447T138 400T194 372T265 363H523V676H265Z"  />
<glyph unicode="&#x430;" horiz-adv-x="500" d="M397 102H395Q386 79 369 59T328 22T272 -3T204 -12Q122 -12 77 23T32 133Q32 178 50 206T95 251T156 275T221 285L280 290Q321 293 344 299T380 317T395 347T398 392Q398 413 390 431T365 463T321 485T255 493Q186 493 144 459T97 356H59Q63 441 113 483T257 526Q350 526 392 490T435 394V95Q435 84 435 73T439 53T449 39T469 33Q479 33 497 36V4Q482 0 466 0Q443 0 430 6T409 22T400 45T397 75V102ZM397 292Q383 275 355 269T291 260L227 254Q199 251 171 246T121 227T84 192T70 133Q70 76 106 49T205 21Q270 21 308 44T366 98T391 157T397 196V292Z"  />
<glyph unicode="&#x431;" horiz-adv-x="537" d="M504 251Q504 192 487 144T440 61T367 7T272 -12Q218 -12 175 8T103 66T57 155T41 271Q41 366 53 436T94 555T165 630T271 665L355 676Q396 681 411 689T432 714H476Q472 697 466 684T446 662T413 648T363 638L280 628Q232 622 198 605T140 557T101 480T77 370H79Q109 443 163 475T279 507Q328 507 369 489T441 438T487 357T504 251ZM466 251Q466 302 452 343T413 413T352 458T276 474Q235 474 199 459T137 415T95 346T79 255Q79 204 93 161T133 87T195 39T274 21Q316 21 351 37T411 83T451 155T466 251Z"  />
<glyph unicode="&#x432;" horiz-adv-x="500" d="M57 0V514H293Q369 514 409 481T449 388Q449 340 423 312T354 275V273Q407 263 437 232T468 143Q468 74 421 37T288 0H57ZM95 481V288H289Q346 288 378 313T411 383Q411 431 380 456T290 481H95ZM287 33Q356 33 393 61T430 144Q430 195 395 225T291 255H95V33H287Z"  />
<glyph unicode="&#x433;" horiz-adv-x="396" d="M94 0H56V514H394V481H94V0Z"  />
<glyph unicode="&#x434;" horiz-adv-x="537" d="M49 0V-161H11V33H72Q115 116 131 218T148 439V514H463V33H528V-161H490V0H49ZM425 481H185V438Q185 318 170 218T112 33H425V481Z"  />
<glyph unicode="&#x435;" horiz-adv-x="519" d="M71 252V246Q71 201 83 160T118 88T177 39T260 21Q337 21 382 61T444 174H482Q465 84 409 36T259 -12Q202 -12 160 8T89 64T46 148T32 253Q32 307 46 356T90 443T162 503T265 526Q319 526 360 506T430 452T472 372T487 274Q487 269 487 263T486 252H71ZM448 285Q446 327 434 364T399 430T342 476T265 493Q219 493 184 476T125 430T88 363T72 285H448Z"  />
<glyph unicode="&#x436;" horiz-adv-x="722" d="M39 0H-11L223 298L13 514H70L342 232V514H380V231L655 514H709L498 300L733 0H681L469 270L380 180V0H342V179L252 270L39 0Z"  />
<glyph unicode="&#x437;" horiz-adv-x="470" d="M421 389Q421 343 391 313T311 274V273Q369 266 401 236T434 149Q434 109 418 79T374 29T311 -2T236 -12Q139 -12 84 32T28 173H66Q66 95 110 58T236 21Q265 21 294 29T345 52T382 92T396 149Q396 206 355 230T239 255H183V289H229Q256 289 283 293T333 309T369 339T383 389Q383 440 344 466T242 493Q171 493 129 464T80 363H42Q44 445 99 485T243 526Q282 526 314 518T370 492T407 449T421 389Z"  />
<glyph unicode="&#x438;" horiz-adv-x="519" d="M425 462H424L103 0H56V514H94V50H95L415 514H463V0H425V462Z"  />
<glyph unicode="&#x439;" horiz-adv-x="519" d="M425 462H424L103 0H56V514H94V50H95L415 514H463V0H425V462ZM395 720Q392 696 381 674T352 636T312 610T264 600Q207 600 169 631T124 720H157Q163 694 175 677T201 650T232 637T263 633Q302 633 328 657T362 720H395Z"  />
<glyph unicode="&#x43A;" horiz-adv-x="463" d="M58 514H96V233L413 514H468L243 314L484 0H432L213 285L96 186V0H58V514Z"  />
<glyph unicode="&#x43B;" horiz-adv-x="524" d="M468 514V0H430V481H190L179 191Q177 133 168 95T142 33T105 0T56 -10Q27 -10 2 1V38Q16 31 28 29T54 26Q74 26 89 34T116 62T133 114T141 194L153 514H468Z"  />
<glyph unicode="&#x43C;" horiz-adv-x="630" d="M94 0H56V514H118L315 47L512 514H574V0H536V478H534L336 0H294L96 478H94V0Z"  />
<glyph unicode="&#x43D;" horiz-adv-x="519" d="M425 257H94V0H56V514H94V290H425V514H463V0H425V257Z"  />
<glyph unicode="&#x43E;" horiz-adv-x="537" d="M32 257Q32 312 47 360T93 446T167 504T268 526Q325 526 369 505T443 446T488 361T504 257Q504 202 489 153T443 68T369 10T268 -12Q211 -12 167 9T93 67T48 153T32 257ZM70 257Q70 211 83 169T121 93T183 41T268 21Q316 21 353 40T415 93T453 168T466 257Q466 303 453 345T415 421T353 473T268 493Q220 493 183 474T121 421T83 346T70 257Z"  />
<glyph unicode="&#x43F;" horiz-adv-x="519" d="M94 481V0H56V514H463V0H425V481H94Z"  />
<glyph unicode="&#x440;" horiz-adv-x="556" d="M103 396H105Q111 415 125 438T162 480T217 513T292 526Q351 526 394 504T466 445T509 359T523 256Q523 197 509 148T467 64T395 8T292 -12Q228 -12 178 16T105 107H103V-184H65V514H103V396ZM292 21Q342 21 378 40T438 91T473 165T485 256Q485 300 474 342T440 418T381 472T292 493Q241 493 205 473T147 420T114 345T104 256Q104 210 113 168T143 93T201 41T292 21Z"  />
<glyph unicode="&#x441;" horiz-adv-x="519" d="M443 355Q440 389 426 415T388 458T335 484T269 493Q221 493 184 474T122 422T84 348T71 262Q71 210 83 166T120 90T182 39T269 21Q305 21 335 33T389 66T428 116T448 181H486Q480 135 461 99T413 39T347 1T269 -12Q206 -12 162 10T89 71T47 158T33 262Q33 316 48 364T94 448T168 505T269 526Q311 526 347 516T412 484T459 431T481 355H443Z"  />
<glyph unicode="&#x442;" horiz-adv-x="444" d="M241 0H203V481H8V514H436V481H241V0Z"  />
<glyph unicode="&#x443;" horiz-adv-x="444" d="M-6 514H39L230 45L406 514H449L229 -55Q213 -93 200 -120T169 -161Q149 -177 122 -180T49 -184V-151Q90 -151 113 -145T156 -118Q167 -107 179 -78T209 3L-6 514Z"  />
<glyph unicode="&#x444;" horiz-adv-x="766" d="M364 63Q344 31 309 10T225 -12Q177 -12 142 9T84 66T49 152T37 257Q37 311 49 359T85 445T146 504T233 526Q282 526 316 504T364 451V714H402V448Q422 480 458 503T541 526Q590 526 625 505T684 446T718 361T729 257Q729 202 717 153T680 68T619 10T536 -12Q487 -12 453 9T402 63V-184H364V63ZM691 257Q691 303 683 345T657 421T608 473T535 493Q509 493 485 482T443 453T413 411T402 359V152Q402 125 412 101T440 60T482 32T533 21Q572 21 601 39T651 89T681 164T691 257ZM75 257Q75 207 84 164T111 89T159 39T228 21Q255 21 280 31T323 59T353 101T364 152V359Q364 386 354 410T327 453T286 482T237 493Q193 493 163 474T113 421T84 346T75 257Z"  />
<glyph unicode="&#x445;" horiz-adv-x="444" d="M196 270L8 514H61L222 299L384 514H433L247 270L450 0H398L222 241L42 0H-6L196 270Z"  />
<glyph unicode="&#x446;" horiz-adv-x="537" d="M490 0H56V514H94V33H425V514H463V33H528V-161H490V0Z"  />
<glyph unicode="&#x447;" horiz-adv-x="483" d="M389 245Q357 234 311 223T211 211Q129 211 86 249T43 376V514H81V374Q81 305 115 275T213 244Q262 244 309 254T389 278V514H427V0H389V245H389Z"  />
<glyph unicode="&#x448;" horiz-adv-x="768" d="M712 0H56V514H94V33H365V514H403V33H674V514H712V0Z"  />
<glyph unicode="&#x449;" horiz-adv-x="789" d="M739 0H56V514H94V33H365V514H403V33H674V514H712V33H777V-161H739V0Z"  />
<glyph unicode="&#x44A;" horiz-adv-x="611" d="M179 481H8V514H217V299H424Q499 299 541 260T583 151Q583 80 540 40T422 0H179V481ZM545 151Q545 203 512 234T418 266H217V33H417Q479 33 512 64T545 151Z"  />
<glyph unicode="&#x44B;" horiz-adv-x="630" d="M536 514H574V0H536V514ZM56 514H94V299H291Q366 299 408 260T450 151Q450 80 407 40T289 0H56V514ZM412 151Q412 203 379 234T285 266H94V33H284Q346 33 379 64T412 151Z"  />
<glyph unicode="&#x44C;" horiz-adv-x="488" d="M56 514H94V299H301Q376 299 418 260T460 151Q460 80 417 40T299 0H56V514ZM422 151Q422 203 389 234T295 266H94V33H294Q356 33 389 64T422 151Z"  />
<glyph unicode="&#x44D;" horiz-adv-x="519" d="M168 285H445Q438 382 390 437T253 493Q183 493 137 458T76 363H38Q55 440 110 483T253 526Q365 526 424 454T484 254Q484 193 468 144T422 60T348 7T249 -12Q158 -12 100 35T30 171H68Q77 99 126 60T248 21Q342 21 393 83T446 252H168V285Z"  />
<glyph unicode="&#x44E;" horiz-adv-x="730" d="M94 257V0H56V514H94V290H226Q230 339 247 382T295 457T366 507T461 526Q518 526 562 505T636 446T681 361T697 257Q697 202 682 153T636 68T562 10T461 -12Q404 -12 360 9T286 67T241 153T225 257H94ZM263 257Q263 211 276 169T314 93T376 41T461 21Q509 21 546 40T608 93T646 168T659 257Q659 303 646 345T608 421T546 473T461 493Q413 493 376 474T314 421T276 346T263 257Z"  />
<glyph unicode="&#x44F;" horiz-adv-x="488" d="M48 0H0L172 223Q145 226 121 236T78 264T50 307T39 367Q39 433 82 473T200 514H432V0H394V222H216L48 0ZM394 481H204Q143 481 111 450T78 367Q78 313 110 284T200 255H394V481Z"  />
<glyph unicode="&#x451;" horiz-adv-x="519" d="M318 603V706H362V603H318ZM160 603V706H204V603H160ZM71 252V246Q71 201 83 160T118 88T177 39T260 21Q337 21 382 61T444 174H482Q465 84 409 36T259 -12Q202 -12 160 8T89 64T46 148T32 253Q32 307 46 356T90 443T162 503T265 526Q319 526 360 506T430 452T472 372T487 274Q487 269 487 263T486 252H71ZM448 285Q446 327 434 364T399 430T342 476T265 493Q219 493 184 476T125 430T88 363T72 285H448Z"  />
<glyph unicode="&#x452;" horiz-adv-x="519" d="M321 589H94V392H96Q106 421 124 443T167 482T221 506T280 514Q325 514 356 503T408 474T439 434T456 388T462 344T463 306V79Q463 -42 406 -114T224 -196V-159Q327 -153 376 -93T425 76V313Q425 332 422 361T405 416T361 462T279 481Q235 481 201 465T143 421T107 353T94 266V0H56V589H-11V622H56V714H94V622H321V589Z"  />
<glyph unicode="&#x453;" horiz-adv-x="396" d="M94 0H56V514H394V481H94V0ZM276 730H327L193 590H156L276 730Z"  />
<glyph unicode="&#x454;" horiz-adv-x="517" d="M484 171Q470 83 411 36T261 -12Q150 -12 91 59T32 254Q32 318 49 368T97 454T172 507T272 526Q359 526 413 484T480 363H442Q432 425 387 459T272 493Q183 493 131 438T71 285H348V252H70Q72 146 120 84T262 21Q335 21 384 60T446 171H484H484Z"  />
<glyph unicode="&#x455;" horiz-adv-x="481" d="M74 171Q76 135 90 108T126 61T179 31T244 21Q269 21 297 25T350 42T391 75T407 130Q407 173 381 195T316 229T231 248T146 271T80 313T54 394Q54 432 71 457T114 498T174 519T240 526Q280 526 315 517T375 488T415 437T430 362H392Q392 397 381 422T349 462T300 485T240 493Q214 493 188 488T140 471T106 440T92 394Q92 363 107 344T146 314T201 295T263 281Q301 274 334 265T392 239T431 196T445 130Q445 88 426 61T378 18T314 -5T244 -12Q200 -12 163 -1T97 34T53 92T36 171H74Z"  />
<glyph unicode="&#x456;" horiz-adv-x="168" d="M65 611V714H103V611H65ZM65 0V514H103V0H65Z"  />
<glyph unicode="&#x457;" horiz-adv-x="168" d="M65 0V514H103V0H65ZM141 603V706H185V603H141ZM-17 603V706H27V603H-17Z"  />
<glyph unicode="&#x458;" horiz-adv-x="168" d="M65 611V714H103V611H65ZM103 514V-55Q103 -81 99 -104T84 -145T52 -173T-2 -184H-18Q-22 -184 -26 -184T-34 -183V-150Q-29 -151 -23 -151T-9 -152Q11 -152 25 -148T48 -132T61 -101T65 -52V514H103Z"  />
<glyph unicode="&#x459;" horiz-adv-x="778" d="M438 514V299H591Q666 299 708 260T750 151Q750 80 707 40T589 0H400V481H190L179 191Q177 133 168 95T142 33T105 0T56 -10Q27 -10 2 1V38Q16 31 28 29T54 26Q74 26 89 34T116 62T133 114T141 194L153 514H438ZM712 151Q712 203 679 234T585 266H438V33H584Q646 33 679 64T712 151Z"  />
<glyph unicode="&#x45A;" horiz-adv-x="772" d="M418 299H585Q660 299 702 260T744 151Q744 80 701 40T583 0H380V266H94V0H56V514H94V299H380V514H418V299ZM706 151Q706 203 673 234T579 266H418V33H578Q640 33 673 64T706 151Z"  />
<glyph unicode="&#x45B;" horiz-adv-x="519" d="M321 589H94V392H96Q106 421 124 443T167 482T221 506T280 514Q325 514 356 503T408 474T439 434T456 388T462 344T463 306V0H425V313Q425 332 422 361T405 416T361 462T279 481Q235 481 201 465T143 421T107 353T94 266V0H56V589H-11V622H56V714H94V622H321V589Z"  />
<glyph unicode="&#x45C;" horiz-adv-x="463" d="M58 514H96V233L413 514H468L243 314L484 0H432L213 285L96 186V0H58V514ZM317 730H368L234 590H197L317 730Z"  />
<glyph unicode="&#x45E;" horiz-adv-x="444" d="M365 720Q362 696 351 674T322 636T282 610T234 600Q177 600 139 631T94 720H127Q133 694 145 677T171 650T202 637T233 633Q272 633 298 657T332 720H365ZM-6 514H39L230 45L406 514H449L229 -55Q213 -93 200 -120T169 -161Q149 -177 122 -180T49 -184V-151Q90 -151 113 -145T156 -118Q167 -107 179 -78T209 3L-6 514Z"  />
<glyph unicode="&#x45F;" horiz-adv-x="519" d="M56 0V514H94V33H425V514H463V0H279V-161H241V0H56Z"  />
<glyph unicode="&#x490;" horiz-adv-x="485" d="M63 714H451V882H494V676H107V0H63V714Z"  />
<glyph unicode="&#x491;" horiz-adv-x="396" d="M94 0H56V514H352V673H390V481H94V0Z"  />
<glyph unicode="&#x2013;" horiz-adv-x="500" d="M0 291H500V253H0V291Z"  />
<glyph unicode="&#x2014;" horiz-adv-x="1000" d="M130 291H870V253H130V291Z"  />
<glyph unicode="&#x2018;" horiz-adv-x="204" d="M143 681Q132 676 126 665T115 640T110 612T109 588H130V485H79V588Q79 608 82 627T92 664T112 694T143 714V681Z"  />
<glyph unicode="&#x2019;" horiz-adv-x="204" d="M125 611Q125 591 122 572T112 535T92 505T61 485V518Q72 523 78 534T89 559T94 587T95 611H74V714H125V611Z"  />
<glyph unicode="&#x201A;" horiz-adv-x="204" d="M125 0Q125 -20 122 -39T112 -76T92 -106T61 -126V-93Q72 -88 78 -77T89 -52T94 -24T95 0H74V103H125V0Z"  />
<glyph unicode="&#x201C;" horiz-adv-x="315" d="M254 681Q243 676 237 665T226 640T221 612T220 588H241V485H190V588Q190 608 193 627T203 664T223 694T254 714V681ZM128 681Q117 676 111 665T100 640T95 612T94 588H115V485H64V588Q64 608 67 627T77 664T97 694T128 714V681Z"  />
<glyph unicode="&#x201D;" horiz-adv-x="315" d="M251 611Q251 591 248 572T238 535T218 505T187 485V518Q198 523 204 534T215 559T220 587T221 611H200V714H251V611ZM125 611Q125 591 122 572T112 535T92 505T61 485V518Q72 523 78 534T89 559T94 587T95 611H74V714H125V611Z"  />
<glyph unicode="&#x201E;" horiz-adv-x="315" d="M251 0Q251 -20 248 -39T238 -76T218 -106T187 -126V-93Q198 -88 204 -77T215 -52T220 -24T221 0H200V103H251V0ZM125 0Q125 -20 122 -39T112 -76T92 -106T61 -126V-93Q72 -88 78 -77T89 -52T94 -24T95 0H74V103H125V0Z"  />
<glyph unicode="&#x2020;" horiz-adv-x="556" d="M259 514V714H297V514H502V481H297V-146H259V481H54V514H259Z"  />
<glyph unicode="&#x2021;" horiz-adv-x="556" d="M297 714V514H502V481H297V87H502V54H297V-146H259V54H54V87H259V481H54V514H259V714H297Z"  />
<glyph unicode="&#x2022;" horiz-adv-x="500" d="M72 357Q72 394 86 426T124 483T180 521T250 535Q287 535 319 521T376 483T415 427T429 357Q429 320 415 288T377 231T320 192T250 178Q213 178 181 192T124 230T86 287T72 357Z"  />
<glyph unicode="&#x2026;" horiz-adv-x="1000" d="M807 103H858V0H807V103ZM474 103H525V0H474V103ZM141 103H192V0H141V103Z"  />
<glyph unicode="&#x2030;" horiz-adv-x="1074" d="M570 714H610L145 -24H105L570 714ZM193 702Q229 702 257 690T304 655T334 602T344 535Q344 498 334 467T305 413T258 377T193 364Q116 364 78 411T40 535Q40 571 51 601T82 654T130 689T193 702ZM192 669Q135 669 107 631T78 535Q78 506 84 481T104 437T139 408T192 397Q220 397 241 407T277 436T298 480T306 535Q306 562 299 586T277 629T241 658T192 669ZM882 -12Q805 -12 768 35T730 158Q730 194 741 224T771 277T819 313T882 326Q918 326 946 313T993 278T1023 225T1034 158Q1034 83 995 36T882 -12ZM527 -12Q449 -12 412 35T374 158Q374 194 385 224T416 277T464 313T527 326Q563 326 591 313T638 278T668 225T678 158Q678 83 639 36T527 -12ZM882 21Q910 21 931 31T967 60T988 104T996 158Q996 185 989 209T967 252T931 282T882 293Q825 293 797 255T768 158Q768 129 774 104T794 61T829 32T882 21ZM525 21Q553 21 574 31T610 60T632 104T640 158Q640 185 633 209T611 252T575 282T525 293Q468 293 440 255T412 158Q412 129 418 104T437 61T472 32T525 21Z"  />
<glyph unicode="&#x2039;" horiz-adv-x="259" d="M67 252V292L181 423V372L96 272L181 170V121L67 252Z"  />
<glyph unicode="&#x203A;" horiz-adv-x="259" d="M78 170L163 272L78 372V423L192 292V252L78 121V170Z"  />
<glyph unicode="&#x20AC;" horiz-adv-x="556" d="M509 557Q499 590 481 610T445 642Q417 660 389 664T337 669Q326 669 309 668T272 662T230 645T188 613Q171 596 159 574T137 527T123 477T116 430H448L433 397H113Q112 384 112 372T111 347Q111 335 111 324T113 301H396L381 268H117Q121 229 134 186T171 108Q191 78 214 61T259 35T303 24T341 21Q364 21 389 25T437 38Q457 46 479 60T522 99V53Q508 40 492 29T453 10Q427 -1 396 -6T336 -12Q272 -12 222 13T139 86Q112 124 97 173T77 268H12L27 301H75Q70 352 75 397H12L27 430H77Q79 457 85 486T103 544T131 599T171 645Q194 665 217 676T263 693T304 700T337 702Q368 702 401 697T464 672Q482 661 500 643T530 595L509 557Z"  />
<glyph unicode="&#x2116;" horiz-adv-x="950" d="M63 690H118L529 59H531V690H575V0H523L109 636H107V0H63V690ZM768 126Q736 126 711 137T669 167T643 213T634 271Q634 302 643 328T669 374T711 405T768 416Q800 416 825 405T867 375T893 329T902 271Q902 240 893 214T867 168T825 137T768 126ZM768 160Q818 160 841 192T865 271Q865 317 842 349T768 382Q718 382 695 350T671 271Q671 225 694 193T768 160ZM636 0V40H910V0H636Z"  />
<glyph unicode="&#x2122;" horiz-adv-x="990" d="M694 368L846 714H905V302H873V681H870L703 302H685L518 681H515V302H483V714H542L694 368ZM404 681H261V302H229V681H85V714H404V681Z"  />
<glyph unicode="&#xE002;" horiz-adv-x="167" d="M146 920H197L63 780H26L146 920Z"  />
<glyph unicode="&#xE00F;" horiz-adv-x="167" d="M219 910Q216 886 205 864T176 826T136 800T88 790Q31 790 -7 821T-52 910H-19Q-13 884 -1 867T25 840T56 827T87 823Q126 823 152 847T186 910H219Z"  />

</font>
</defs>
</svg>
