<svg xmlns="http://www.w3.org/2000/svg">
<defs>
<font horiz-adv-x="395" id="6be38bc3-96b3-47e3-a9ef-e1a184b54d64">
<font-face font-family="" panose-1="2 11 3 3 2 2 2 2 2 4" ascent="931" descent="-286" units-per-em="1000" alphabetic="0">
</font-face>
<missing-glyph horiz-adv-x="278" />

<glyph unicode="&#xA;" />
<glyph unicode="&#xD;" horiz-adv-x="0" />
<glyph unicode=" " horiz-adv-x="278" />
<glyph unicode="!" horiz-adv-x="185" d="M83 714H103V182H83V714ZM83 98H103V0H83V98Z"  />
<glyph unicode="&quot;" horiz-adv-x="278" d="M185 714H205V489H185V714ZM73 714H93V489H73V714Z"  />
<glyph unicode="#" horiz-adv-x="556" d="M160 229H35V249H165L189 426H63V446H194L225 680H245L214 446H385L416 680H436L405 446H521V426H400L376 249H493V229H372L341 0H321L352 229H180L149 0H129L160 229ZM356 249L380 426H209L185 249H356Z"  />
<glyph unicode="$" horiz-adv-x="556" d="M26 237Q26 175 43 132T92 61T168 20T265 4V360Q222 370 180 381T103 411T48 463T27 547Q27 599 48 634T104 691T180 722T265 731V774H285V730Q335 729 377 717T451 679T501 613T523 514H503Q501 566 484 603T438 663T370 698T285 710V376L293 374Q343 361 387 349T465 317T517 264T537 175Q537 124 515 88T457 29T376 -6T285 -17V-105H265V-16Q208 -14 160 1T78 48T24 125T6 237H26ZM265 711Q227 711 189 703T119 676T67 626T47 547Q47 502 65 474T113 429T183 401T265 381V711ZM285 3Q327 3 368 12T443 43T496 96T517 176Q517 227 496 258T441 307T366 336T285 355V3Z"  />
<glyph unicode="%" horiz-adv-x="685" d="M564 714H587L111 -34H88L564 714ZM173 350Q134 350 105 364T58 401T30 455T21 519Q21 556 31 588T60 643T108 679T173 692Q249 692 288 644T328 520Q328 485 318 455T288 401T239 364T173 350ZM173 370Q206 370 231 382T274 414T299 462T308 519Q308 588 275 630T173 672Q104 672 73 629T41 519Q41 489 49 462T73 414T115 382T173 370ZM357 157Q357 194 367 226T396 281T444 317T509 330Q585 330 624 282T664 158Q664 123 654 93T624 39T575 2T509 -12Q470 -12 441 2T394 39T366 93T357 157ZM377 157Q377 127 385 100T409 52T451 20T509 8Q542 8 567 20T610 52T635 100T644 157Q644 226 611 268T509 310Q440 310 409 267T377 157Z"  />
<glyph unicode="&amp;" horiz-adv-x="574" d="M44 160Q44 204 62 238T108 301T170 351T236 394Q221 415 203 437T169 483T141 531T130 581Q130 615 143 640T176 682T223 706T276 714Q306 714 332 705T379 679T410 637T422 581Q422 545 407 518T368 468T317 426T265 389L453 151Q463 173 471 205T477 277H497Q498 232 490 200T467 133L572 0H546L457 113Q427 58 376 21T248 -17Q210 -17 174 -5T109 30T62 86T44 160ZM253 404Q274 419 300 437T348 476T386 524T402 581Q402 607 392 628T364 663T325 686T277 694Q251 694 228 687T188 665T160 630T150 583Q150 566 156 549T174 512T206 465T253 404ZM64 160Q64 122 80 93T121 43T180 13T248 3Q320 3 368 39T444 132L248 378Q218 359 186 338T126 292T82 234T64 160Z"  />
<glyph unicode="&apos;" horiz-adv-x="167" d="M74 714H94V489H74V714Z"  />
<glyph unicode="(" horiz-adv-x="222" d="M185 -177Q156 -120 134 -66T98 44T76 158T68 282Q68 400 97 514T184 731H204Q147 628 118 514T88 282Q88 161 117 45T205 -177H185H185Z"  />
<glyph unicode=")" horiz-adv-x="222" d="M18 -177Q75 -74 104 40T134 272Q134 393 105 509T17 731H37Q66 674 88 620T124 510T146 396T154 272Q154 154 125 40T38 -177H18H18Z"  />
<glyph unicode="*" horiz-adv-x="352" d="M74 451L162 555L32 598L38 617L164 574V714H184V574L316 617L320 598L190 555L273 446L257 434L174 542L90 438L74 451Z"  />
<glyph unicode="+" horiz-adv-x="600" d="M48 263H290V506H310V263H552V243H310V0H290V243H48V263Z"  />
<glyph unicode="&#x2c;" horiz-adv-x="278" d="M129 98H149V0Q149 -45 140 -73T105 -119V-99Q118 -86 123 -64T129 0V98Z"  />
<glyph unicode="-" horiz-adv-x="333" d="M79 278H254V258H79V278Z"  />
<glyph unicode="." horiz-adv-x="278" d="M129 98H149V0H129V98Z"  />
<glyph unicode="/" horiz-adv-x="333" d="M320 731H340L13 -17H-7L320 731Z"  />
<glyph unicode="0" horiz-adv-x="556" d="M278 -12Q204 -12 155 19T76 100T34 213T21 340Q21 404 33 467T76 580T155 661T278 692Q351 692 400 661T480 580T522 467T535 340Q535 276 523 213T480 100T401 19T278 -12ZM278 8Q348 8 393 38T466 117T504 224T515 340Q515 397 504 456T466 563T394 641T278 672Q208 672 163 642T90 563T52 456T41 340Q41 283 52 224T90 117T162 39T278 8Z"  />
<glyph unicode="1" horiz-adv-x="556" d="M298 654H296Q265 611 216 580T115 534V554Q146 564 170 576T215 603T255 637T296 680H318V0H298V654Z"  />
<glyph unicode="2" horiz-adv-x="556" d="M55 0Q54 43 73 78T123 143T192 201T269 256Q308 283 345 311T411 369T457 434T475 509Q475 549 461 579T421 630T361 661T286 672Q233 672 195 656T133 612T98 544T87 457H67Q68 569 122 630T286 692Q329 692 367 681T434 646T478 589T495 509Q495 452 465 407T390 321T291 246T192 175T112 102T75 20H513V0H55H55Z"  />
<glyph unicode="3" horiz-adv-x="556" d="M60 230Q56 176 71 135T116 65T190 23T287 8Q328 8 366 19T433 54T479 110T497 188Q497 232 483 263T442 314T380 344T302 356H253V376H302Q335 376 367 383T426 408T468 454T484 525Q483 566 466 594T422 639T361 664T291 672Q193 672 135 622T79 469H59Q57 580 120 636T291 692Q331 692 369 683T438 654T486 602T504 525Q504 453 463 413T358 367V365Q388 362 416 351T467 318T503 264T517 188Q517 141 499 104T449 41T375 2T287 -12Q229 -12 182 4T102 51T53 127T40 230H60Z"  />
<glyph unicode="4" horiz-adv-x="556" d="M34 201L374 680H399V197H522V177H399V0H379V177H34V201ZM379 197V652H377L54 197H379Z"  />
<glyph unicode="5" horiz-adv-x="556" d="M57 218Q55 168 70 129T113 63T182 22T273 8Q322 8 362 23T430 67T473 136T488 226Q488 273 473 312T429 380T361 425T273 441Q213 441 162 415T83 337H58L131 680H480V660H147L85 369H87Q116 417 164 439T273 461Q325 461 368 444T443 395T491 321T508 226Q508 172 491 128T443 53T369 5T273 -12Q220 -12 176 3T101 48T52 121T37 218H57Z"  />
<glyph unicode="6" horiz-adv-x="556" d="M84 95Q55 140 47 197T39 321Q39 384 51 450T92 570T171 658T295 692Q339 692 375 679T439 642T483 588T505 520H485Q475 566 454 595T405 642T349 665T294 672Q243 672 206 655T142 607T99 538T73 456T60 370T58 287H60Q67 323 87 354T137 408T204 445T282 458Q326 458 368 441T444 393T497 319T517 223Q517 172 498 129T447 55T372 6T282 -12Q247 -12 217 -3T161 22T117 56T84 95ZM67 223Q67 178 84 139T130 71T198 25T282 8Q327 8 366 25T434 71T480 139T497 223Q497 268 480 307T434 375T366 421T282 438Q237 438 198 421T130 375T84 307T67 223Z"  />
<glyph unicode="7" horiz-adv-x="556" d="M168 0Q167 100 188 190T250 361T347 517T473 660H61V680H495V653Q426 584 369 511T272 359T210 191T188 0H168H168Z"  />
<glyph unicode="8" horiz-adv-x="556" d="M31 190Q31 268 77 316T205 373V375Q176 379 151 391T106 422T76 466T65 520Q65 566 81 598T127 652T195 682T278 692Q322 692 361 683T429 652T474 599T491 520Q491 491 480 466T450 423T406 392T351 375V373Q432 365 478 317T525 190Q525 137 505 99T452 36T373 0T278 -12Q228 -12 183 -1T105 36T51 99T31 190ZM278 382Q312 382 346 390T408 414T453 457T471 520Q471 563 455 592T411 639T350 664T278 672Q241 672 207 665T145 640T102 593T85 520Q85 484 102 458T147 415T209 390T278 382ZM51 190Q51 141 69 107T119 50T192 18T278 8Q323 8 364 18T436 50T486 106T505 190Q505 239 486 272T436 325T363 353T278 362Q234 362 193 354T121 325T70 272T51 190Z"  />
<glyph unicode="9" horiz-adv-x="556" d="M71 160Q81 114 102 85T151 38T207 15T262 8Q338 8 385 46T457 142T491 267T498 393H496Q488 357 468 326T419 272T352 235T274 222Q230 222 188 239T112 287T59 361T39 457Q39 508 58 551T109 625T184 674T274 692Q309 692 339 683T395 658T439 624T472 585Q502 540 510 483T518 359Q518 296 506 230T465 110T386 22T261 -12Q217 -12 181 1T117 38T73 92T51 160H71ZM274 242Q319 242 358 259T426 305T472 373T489 457Q489 502 472 541T426 609T358 655T274 672Q229 672 190 655T122 609T76 541T59 457Q59 412 76 373T122 305T190 259T274 242Z"  />
<glyph unicode=":" horiz-adv-x="278" d="M129 514H149V416H129V514ZM129 98H149V0H129V98Z"  />
<glyph unicode=";" horiz-adv-x="278" d="M129 514H149V416H129V514ZM129 98H149V0Q149 -45 140 -73T105 -119V-99Q118 -86 123 -64T129 0V98Z"  />
<glyph unicode="&lt;" horiz-adv-x="600" d="M46 265L554 514V493L64 253L554 13V-8L46 241V265Z"  />
<glyph unicode="=" horiz-adv-x="600" d="M48 360H552V340H48V360ZM48 166H552V146H48V166Z"  />
<glyph unicode="&gt;" horiz-adv-x="600" d="M46 13L536 253L46 493V514L554 265V241L46 -8V13Z"  />
<glyph unicode="?" horiz-adv-x="500" d="M232 182Q232 216 237 243T253 294T283 343T330 394Q336 400 352 413T385 447T416 497T429 565Q429 600 416 627T379 673T323 701T252 711Q202 711 165 695T102 651T65 582T55 493H35Q33 545 47 589T89 664T158 713T252 731Q293 731 329 720T391 688T433 636T449 565Q449 527 439 499T413 449T380 412T351 386Q324 360 305 339T275 295T258 245T252 182H232ZM232 98H252V0H232V98Z"  />
<glyph unicode="@" horiz-adv-x="800" d="M194 277Q194 323 211 374T259 468T334 538T431 566Q479 566 517 544T568 481H570L594 547H615L504 259Q495 237 490 218T487 184T499 161T529 152Q560 152 594 172T656 226T704 308T723 411Q723 473 700 525T637 614T540 671T419 692Q346 692 284 666T175 593T103 485T77 353Q77 268 104 204T179 96T288 30T419 8Q465 8 507 20T586 53T655 104T709 166H732Q708 126 673 93T597 37T511 1T419 -12Q352 -12 287 9T171 75T89 189T57 353Q57 431 85 496T163 610T279 685T419 712Q486 712 545 691T648 631T717 536T743 411Q743 353 723 303T672 214T602 154T527 132Q498 132 481 149T468 195H466Q438 157 402 145T330 132Q301 132 276 143T233 174T205 220T194 277ZM214 277Q214 250 223 228T248 188T286 162T334 152Q354 152 375 157T417 175T455 212T488 272L559 456Q552 481 538 498T506 526T467 541T427 546Q380 546 341 520T273 453T230 366T214 277Z"  />
<glyph unicode="A" horiz-adv-x="575" d="M-12 0L278 714H304L586 0H564L470 235H106L11 0H-12ZM462 255L292 694H290L114 255H462Z"  />
<glyph unicode="B" horiz-adv-x="611" d="M47 714H354Q396 714 432 703T496 670T539 614T555 536Q555 504 544 475T512 424T465 389T404 373V371Q439 370 470 358T525 323T563 268T577 194Q577 146 560 110T511 49T437 13T342 0H47V714ZM354 382Q390 382 422 391T480 420T520 469T535 536Q535 576 521 606T483 655T425 684T354 694H67V382H354ZM351 20Q394 20 432 30T497 62T541 116T557 193Q557 239 540 271T494 324T429 353T354 362H67V20H351Z"  />
<glyph unicode="C" horiz-adv-x="685" d="M348 3Q412 3 463 24T551 82T611 170T642 280H662Q653 215 628 161T564 67T470 5T348 -17Q277 -17 218 10T115 87T49 203T25 351Q25 416 43 483T102 606T206 696T361 731Q432 731 485 708T573 649T627 573T646 500H626Q623 539 603 576T549 644T467 692T361 711Q302 711 256 695T175 651T115 587T75 510T52 429T45 351Q45 283 65 220T124 109T219 32T348 3Z"  />
<glyph unicode="D" horiz-adv-x="648" d="M54 714H304Q357 714 411 698T509 641T580 531T608 357Q608 261 580 193T505 83T398 20T273 0H54V714ZM278 20Q341 20 397 40T496 102T563 207T588 357Q588 457 563 522T497 625T405 679T299 694H74V20H278Z"  />
<glyph unicode="E" horiz-adv-x="537" d="M54 714H528V694H74V382H501V362H74V20H532V0H54V714Z"  />
<glyph unicode="F" horiz-adv-x="481" d="M54 714H494V694H74V382H454V362H74V0H54V714Z"  />
<glyph unicode="G" horiz-adv-x="722" d="M32 357Q32 435 55 503T121 622T226 702T367 731Q427 731 477 714T566 666T629 590T663 491H643Q634 541 611 581T552 651T469 695T367 711Q292 711 234 683T135 607T73 495T52 357Q52 284 72 220T132 107T231 31T370 3Q429 3 481 23T571 80T632 167T654 277V314H377V334H674V-1H654V177H652Q624 86 549 35T367 -17Q284 -17 222 12T117 93T54 212T32 357Z"  />
<glyph unicode="H" horiz-adv-x="648" d="M54 714H74V382H574V714H594V0H574V362H74V0H54V714Z"  />
<glyph unicode="I" horiz-adv-x="128" d="M54 714H74V0H54V714Z"  />
<glyph unicode="J" horiz-adv-x="463" d="M18 221H38V178Q38 90 81 47T208 3Q251 3 283 13T338 46T372 107T384 201V714H404V186Q404 141 394 104T360 40T300 -2T208 -17Q157 -17 121 -2T62 39T29 100T18 178V221Z"  />
<glyph unicode="K" horiz-adv-x="593" d="M54 714H74V280L569 714H599L254 410L619 0H592L238 398L74 253V0H54V714Z"  />
<glyph unicode="L" horiz-adv-x="481" d="M54 714H74V20H491V0H54V714Z"  />
<glyph unicode="M" horiz-adv-x="780" d="M54 714H87L389 26H391L693 714H726V0H706V689H704L401 0H379L76 689H74V0H54V714Z"  />
<glyph unicode="N" horiz-adv-x="648" d="M54 714H84L572 25H574V714H594V0H564L76 689H74V0H54V714Z"  />
<glyph unicode="O" horiz-adv-x="721" d="M32 357Q32 433 53 501T116 620T219 701T361 731Q441 731 502 701T605 620T668 501T690 357Q690 281 669 213T606 94T503 13T361 -17Q281 -17 220 13T117 94T54 213T32 357ZM52 357Q53 280 74 215T135 103T232 30T361 3Q433 3 490 29T586 103T647 215T670 357Q669 434 648 499T587 611T490 684T361 711Q289 711 232 685T136 611T75 499T52 357Z"  />
<glyph unicode="P" horiz-adv-x="574" d="M74 0H54V714H343Q446 714 503 665T560 519Q560 472 543 436T496 375T424 338T333 325H74V0ZM74 345H343Q385 345 421 356T483 390T525 445T540 519Q540 604 492 649T343 694H74V345Z"  />
<glyph unicode="Q" horiz-adv-x="721" d="M571 58Q531 23 479 3T361 -17Q281 -17 220 13T117 94T54 213T32 357Q32 433 53 501T116 620T219 701T361 731Q441 731 502 701T605 620T668 501T690 357Q690 272 664 198T584 71L699 -8L689 -22L571 58ZM427 156L438 172L567 83Q616 131 642 200T670 357Q669 434 648 499T587 611T490 684T361 711Q289 711 232 685T136 611T75 499T52 357Q53 280 74 215T135 103T232 30T361 3Q419 3 467 20T553 70L427 156Z"  />
<glyph unicode="R" horiz-adv-x="611" d="M74 0H54V714H346Q458 714 510 670T564 531Q566 459 526 412T411 347V345Q456 339 484 324T527 283T547 224T552 147Q552 132 553 110T556 65T561 25T569 0H547Q542 11 539 29T535 69T533 111T532 150Q532 194 526 228T499 286T442 322T343 335H74V0ZM74 355H341Q381 355 417 365T482 397T527 452T544 533Q543 609 498 651T351 694H74V355Z"  />
<glyph unicode="S" horiz-adv-x="611" d="M531 514Q529 569 511 606T462 667T389 700T299 711Q261 711 222 704T150 677T96 627T75 547Q75 499 96 470T152 423T231 395T321 374Q371 361 415 349T493 317T545 264T565 175Q565 124 543 88T485 29T404 -6T313 -17Q252 -17 201 -3T112 42T54 121T34 237H54Q54 173 73 129T126 56T208 16T313 3Q355 3 396 12T471 43T524 96T545 176Q545 230 522 261T462 311T381 339T295 359Q251 369 209 380T132 410T76 462T55 547Q55 600 77 635T134 692T212 722T299 731Q351 731 396 720T474 683T528 616T551 514H531Z"  />
<glyph unicode="T" horiz-adv-x="500" d="M-17 694V714H517V694H260V0H240V694H-17Z"  />
<glyph unicode="U" horiz-adv-x="632" d="M558 714H578V266Q578 122 511 53T316 -17Q188 -17 121 52T54 266V714H74V266Q74 137 133 70T316 3Q440 3 499 70T558 266V714Z"  />
<glyph unicode="V" horiz-adv-x="538" d="M536 714H556L284 0H262L-18 714H2L272 26H274L536 714Z"  />
<glyph unicode="W" horiz-adv-x="870" d="M860 714H880L673 0H646L436 689H434L228 0H201L-10 714H11L213 25H215L421 714H450L659 25H661L860 714Z"  />
<glyph unicode="X" horiz-adv-x="520" d="M510 714H535L275 367L547 0H522L261 351L-2 0H-27L248 367L-12 714H14L261 383L510 714Z"  />
<glyph unicode="Y" horiz-adv-x="538" d="M544 714H568L279 301V0H259V301L-30 714H-5L269 322L544 714Z"  />
<glyph unicode="Z" horiz-adv-x="500" d="M508 20V0H-19V27L480 694H9V714H500V687L1 20H508Z"  />
<glyph unicode="[" horiz-adv-x="222" d="M209 731V711H116V-157H209V-177H96V731H209Z"  />
<glyph unicode="\" horiz-adv-x="333" d="M320 -17L-7 731H13L340 -17H320Z"  />
<glyph unicode="]" horiz-adv-x="222" d="M13 -177V-157H106V711H13V731H126V-177H13Z"  />
<glyph unicode="^" horiz-adv-x="600" d="M541 227H521L300 660L79 227H59L290 680H310L541 227Z"  />
<glyph unicode="_" horiz-adv-x="500" d="M0 -125V-75H500V-125H0Z"  />
<glyph unicode="`" horiz-adv-x="130" d="M-38 732H-9L116 588H101L-38 732Z"  />
<glyph unicode="a" horiz-adv-x="481" d="M54 355Q56 391 69 422T106 477T166 513T250 526Q284 526 314 519T368 495T405 449T420 379V52Q420 37 426 30T442 21T463 18T485 20V0Q477 -1 470 -1T455 -1Q433 -1 417 10T400 50V117H398Q390 92 372 69T328 28T268 -1T194 -12Q116 -12 69 23T22 127Q22 175 37 204T78 249T135 272T199 281Q252 284 290 286T352 296T388 319T400 364Q400 387 396 412T377 458T331 492T250 506Q169 506 124 467T74 355H54ZM400 302H398Q388 288 367 281T319 269T261 264T199 261Q169 259 141 254T90 234T55 194T42 127Q42 105 49 84T75 46T121 19T192 8Q242 8 281 25T346 69T386 133T400 207V302Z"  />
<glyph unicode="b" horiz-adv-x="537" d="M75 370H77Q95 440 148 483T283 526Q336 526 377 504T445 445T487 359T502 256Q502 198 487 149T444 64T375 8T283 -12Q244 -12 211 -1T151 32T106 81T77 144H75V0H55V714H75V370ZM75 256Q75 206 89 161T129 82T194 28T283 8Q333 8 370 28T432 82T469 161T482 256Q482 301 471 345T435 425T373 483T283 506Q189 506 132 442T75 256Z"  />
<glyph unicode="c" horiz-adv-x="500" d="M469 175Q465 132 448 98T404 39T339 1T259 -12Q204 -12 162 8T90 64T46 146T31 246Q31 301 45 352T89 441T164 503T271 526Q307 526 340 515T399 483T442 431T465 358H445Q439 395 423 423T384 469T332 497T271 506Q209 506 167 483T100 422T63 338T51 246Q51 199 64 156T104 80T169 28T259 8Q296 8 329 19T388 53T430 105T449 175H469Z"  />
<glyph unicode="d" horiz-adv-x="537" d="M455 714H475V0H455V144H453Q443 110 424 82T379 32T320 0T247 -12Q196 -12 156 8T87 64T43 149T28 256Q28 310 42 359T84 445T153 504T247 526Q329 526 382 483T453 370H455V714ZM455 256Q455 377 398 441T247 506Q194 506 157 484T95 426T60 346T48 256Q48 206 60 162T97 83T159 28T247 8Q296 8 335 28T400 82T441 161T455 256Z"  />
<glyph unicode="e" horiz-adv-x="500" d="M45 253Q46 201 57 157T93 79T155 27T248 8Q329 8 382 50T449 178H469Q464 134 446 99T398 39T331 1T250 -12Q190 -13 148 7T78 64T38 150T25 257Q25 321 44 371T94 455T165 508T250 526Q310 526 353 503T424 442T464 355T475 253H45ZM455 273Q455 320 442 362T404 437T340 487T252 506Q210 506 174 490T110 444T65 370T45 273H455Z"  />
<glyph unicode="f" horiz-adv-x="204" d="M-1 494V514H87V628Q87 659 96 676T121 701T153 712T188 714Q202 714 212 713T231 710V690Q217 692 206 693T184 694Q136 694 122 677T107 621V514H218V494H107V0H87V494H-1Z"  />
<glyph unicode="g" horiz-adv-x="519" d="M446 172H444Q436 137 416 111T368 66T308 38T242 28Q188 28 148 48T82 101T42 179T28 274Q28 326 42 371T84 451T153 506T249 526Q286 526 318 515T375 483T418 436T444 377H446V514H466V17Q466 -89 410 -139T252 -189Q213 -189 178 -180T116 -152T73 -102T56 -27H76Q77 -65 91 -92T130 -136T185 -161T251 -169Q345 -169 395 -125T446 17V172ZM445 274Q445 318 433 360T396 434T334 486T249 506Q199 506 162 488T99 437T61 363T48 274Q48 226 60 185T97 114T158 66T241 48Q290 48 328 66T392 114T431 186T445 274Z"  />
<glyph unicode="h" horiz-adv-x="500" d="M55 714H75V387H77Q84 417 99 442T138 486T193 515T262 526Q302 526 335 514T393 479T431 421T445 341V0H425V338Q425 383 412 414T377 466T325 496T262 506Q216 506 181 489T123 442T87 373T75 291V0H55V714Z"  />
<glyph unicode="i" horiz-adv-x="130" d="M75 613H55V714H75V613ZM75 0H55V514H75V0Z"  />
<glyph unicode="j" horiz-adv-x="130" d="M75 613H55V714H75V613ZM75 -75Q75 -110 67 -130T43 -161T4 -174T-49 -177V-157Q-20 -157 0 -155T32 -145T49 -118T55 -68V514H75V-75Z"  />
<glyph unicode="k" horiz-adv-x="444" d="M75 194V0H55V714H75V219L430 514H459L223 318L476 0H449L208 304L75 194Z"  />
<glyph unicode="l" horiz-adv-x="130" d="M55 714H75V0H55V714Z"  />
<glyph unicode="m" horiz-adv-x="778" d="M55 514H75V387H77Q84 417 99 442T136 486T184 515T241 526Q301 528 341 496T395 406H397Q412 460 456 493T560 526Q606 526 637 512T688 474T715 415T723 338V0H703V338Q703 376 697 407T674 460T630 494T560 506Q522 506 493 492T442 452T410 395T399 326V0H379V330Q379 366 374 398T353 454T311 492T241 506Q203 506 172 489T120 442T87 373T75 291V0H55V514Z"  />
<glyph unicode="n" horiz-adv-x="500" d="M55 514H75V387H77Q84 417 99 442T138 486T193 515T262 526Q302 526 335 514T393 479T431 421T445 341V0H425V338Q425 383 412 414T377 466T325 496T262 506Q216 506 181 489T123 442T87 373T75 291V0H55V514Z"  />
<glyph unicode="o" horiz-adv-x="519" d="M28 257Q28 309 43 358T87 444T160 503T260 526Q316 526 359 504T431 444T476 358T491 257Q491 204 476 156T432 70T359 10T259 -12Q203 -12 160 10T87 69T43 155T28 257ZM48 257Q48 208 61 163T102 84T168 29T260 8Q311 8 350 28T417 83T457 163T471 257Q471 305 458 350T417 429T351 485T260 506Q208 506 169 485T102 430T62 350T48 257Z"  />
<glyph unicode="p" horiz-adv-x="537" d="M75 -177H55V514H75V370H77Q87 404 105 432T150 482T210 514T283 526Q334 526 374 506T443 450T487 365T502 258Q502 204 488 155T446 69T377 10T283 -12Q201 -12 148 31T77 144H75V-177ZM283 8Q335 8 373 30T435 88T470 168T482 258Q482 307 470 352T433 431T371 486T283 506Q233 506 195 486T130 432T89 353T75 258Q75 137 132 73T283 8Z"  />
<glyph unicode="q" horiz-adv-x="537" d="M455 514H475V-177H455V144H453Q435 74 382 31T247 -12Q194 -12 153 10T84 69T42 155T28 258Q28 316 43 365T86 450T155 506T247 526Q286 526 319 515T379 482T424 433T453 370H455V514ZM455 258Q455 308 441 353T401 432T335 486T247 506Q197 506 160 486T98 432T61 352T48 258Q48 213 59 169T95 89T156 31T247 8Q341 8 398 72T455 258Z"  />
<glyph unicode="r" horiz-adv-x="259" d="M75 0H55V514H75V387H77Q84 415 99 441T139 486T198 516T279 526V506Q226 509 188 492T124 444T87 373T75 291V0Z"  />
<glyph unicode="s" horiz-adv-x="463" d="M390 362Q390 401 378 428T344 472T292 498T224 506Q170 506 139 492T93 458T74 422T70 397Q70 359 85 339T127 307Q154 296 185 288T259 269Q289 261 318 253T371 229T409 191T424 131Q424 92 408 65T365 21T305 -4T238 -12Q135 -12 83 33T30 176H50Q50 89 98 49T238 8Q266 8 295 14T349 35T388 73T404 129Q404 163 389 184T349 218T292 240T227 256Q190 265 162 273T112 291Q80 305 65 330T50 397Q50 418 59 441T89 483T143 514T224 526Q310 526 360 487T410 362H390Z"  />
<glyph unicode="t" horiz-adv-x="241" d="M110 494V100Q110 71 116 55T133 31T155 22T179 20Q194 20 206 20T223 23V3Q214 2 206 1T174 0Q139 0 115 20T90 96V494H-5V514H90V676H110V514H226V494H110Z"  />
<glyph unicode="u" horiz-adv-x="500" d="M445 0H425V127H423Q416 97 401 72T362 28T307 -1T238 -12Q198 -12 165 0T107 35T69 93T55 173V514H75V176Q75 131 88 100T123 48T175 18T238 8Q284 8 319 25T377 72T413 141T425 223V514H445V0Z"  />
<glyph unicode="v" horiz-adv-x="407" d="M397 514H419L225 0H200L-12 514H12L211 20H213L397 514Z"  />
<glyph unicode="w" horiz-adv-x="685" d="M673 514H693L529 0H503L343 494H341L180 0H152L-8 514H12L165 20H167L326 514H357L515 20H517L673 514Z"  />
<glyph unicode="x" horiz-adv-x="407" d="M380 514H404L216 266L422 0H397L203 251L10 0H-15L191 266L4 514H30L203 281L380 514Z"  />
<glyph unicode="y" horiz-adv-x="407" d="M398 514H419L182 -105Q172 -131 158 -145T127 -167T89 -175T46 -177V-157Q71 -157 90 -156T122 -148T146 -128T166 -91L203 5L-12 514H10L214 27L398 514Z"  />
<glyph unicode="z" horiz-adv-x="407" d="M402 20V0H5V25L365 494H32V514H386V489L26 20H402Z"  />
<glyph unicode="{" horiz-adv-x="333" d="M230 -177Q188 -177 173 -150T157 -66V97Q157 158 143 199T85 270V290Q101 293 114 308T137 346T152 398T157 457V622Q157 679 172 705T230 731H280V711H232Q202 711 190 689T177 604V440Q177 418 173 393T160 345T138 304T105 278Q138 262 157 217T177 114V-48Q177 -81 180 -102T190 -136T207 -152T232 -157H280V-177H230Z"  />
<glyph unicode="|" horiz-adv-x="222" d="M101 -214V786H121V-214H101Z"  />
<glyph unicode="}" horiz-adv-x="333" d="M103 731Q145 731 160 704T176 620V457Q176 396 190 354T248 284V264Q231 261 218 246T196 208T181 156T176 97V-68Q176 -125 161 -151T103 -177H53V-157H101Q131 -157 143 -135T156 -50V114Q156 136 160 161T173 209T195 250T228 276Q195 292 176 337T156 440V602Q156 635 153 656T143 690T126 706T101 711H53V731H103Z"  />
<glyph unicode="~" horiz-adv-x="600" d="M523 295Q513 279 502 264T478 236T449 217T414 209Q389 209 366 219T317 241Q291 253 263 265T195 278Q161 278 138 258T97 205L77 211Q96 246 124 272T195 298Q222 300 252 289T312 264Q342 251 368 240T415 229Q430 229 442 235T465 252T485 275T503 301L523 295Z"  />
<glyph unicode="&#xA0;" horiz-adv-x="278" />
<glyph unicode="&#xA4;" horiz-adv-x="556" d="M503 579L517 565L460 508Q493 473 509 430T526 340Q526 295 510 252T460 172L517 115L503 101L446 158Q411 126 368 110T278 92Q233 92 190 108T110 158L53 101L39 115L96 172Q63 208 47 251T30 340Q31 386 47 429T96 508L39 565L53 579L110 522Q146 555 189 571T278 588Q324 588 367 572T446 522L503 579ZM506 340Q506 387 488 428T439 501T367 550T278 568Q231 568 190 550T117 501T68 429T50 340Q50 293 68 252T117 179T189 130T278 112Q325 112 366 130T439 179T488 251T506 340Z"  />
<glyph unicode="&#xA6;" horiz-adv-x="222" d="M121 661V411H101V661H121ZM121 -89H101V161H121V-89Z"  />
<glyph unicode="&#xA7;" horiz-adv-x="556" d="M422 546Q420 624 382 667T269 711Q250 711 226 706T180 687T145 652T133 596Q135 558 151 536T190 497Q208 484 223 475T255 456T287 438T325 416Q379 381 412 355T465 305T492 258T499 204Q499 177 487 154T456 114T418 84T382 68Q421 36 432 6T441 -55Q438 -90 424 -115T387 -156T337 -181T278 -189Q193 -189 147 -139T103 5H123Q123 -34 131 -65T158 -120T206 -156T278 -169Q317 -169 344 -158T388 -129T413 -92T421 -55Q421 -35 419 -20T408 10T384 40T341 74Q307 98 259 127T165 187Q129 211 108 231T76 271T61 310T57 350Q57 374 66 396T91 436T125 467T166 489Q146 506 130 531T113 598Q113 640 130 666T172 706T224 726T271 731Q310 731 342 718T396 680T430 622T442 546H422ZM479 205Q479 230 473 251T448 294T397 341T314 399Q302 407 284 418T247 439T211 459T184 475Q173 472 155 463T120 437T90 397T77 342Q77 331 79 316T92 284T122 246T177 203Q199 189 224 173T275 141T323 109T363 82Q378 85 398 94T436 120T466 157T479 205Z"  />
<glyph unicode="&#xA8;" horiz-adv-x="130" d="M133 614V695H153V614H133ZM-23 614V695H-3V614H-23Z"  />
<glyph unicode="&#xA9;" horiz-adv-x="800" d="M26 357Q26 435 55 503T135 621T254 701T400 731Q478 731 546 702T664 622T744 503T774 357Q774 279 745 211T665 93T546 13T400 -17Q322 -17 254 12T136 92T56 211T26 357ZM46 357Q46 283 73 219T149 106T261 31T400 3Q473 3 537 30T650 106T726 218T754 357Q754 430 726 494T650 607T538 683T400 711Q326 711 262 683T149 607T74 495T46 357ZM573 428Q568 461 553 485T516 526T466 551T408 559Q361 559 325 543T263 500T224 434T211 352Q211 308 224 270T264 202T327 157T411 140Q466 140 511 175T573 276H593Q577 207 529 164T411 120Q361 120 320 138T251 187T207 260T191 351Q191 400 206 442T248 514T316 562T408 579Q443 579 474 569T531 540T572 493T593 428H573Z"  />
<glyph unicode="&#xAB;" horiz-adv-x="352" d="M262 121L159 260V276L262 415V380L179 268L262 156V121ZM169 121L66 260V276L169 415V380L86 268L169 156V121Z"  />
<glyph unicode="&#xAC;" horiz-adv-x="600" d="M532 340H48V360H552V93H532V340Z"  />
<glyph unicode="&#xAD;" horiz-adv-x="333" d="M79 278H254V258H79V278Z"  />
<glyph unicode="&#xAE;" horiz-adv-x="800" d="M26 357Q26 435 55 503T135 621T254 701T400 731Q478 731 546 702T664 622T744 503T774 357Q774 279 745 211T665 93T546 13T400 -17Q322 -17 254 12T136 92T56 211T26 357ZM46 357Q46 283 73 219T149 106T261 31T400 3Q473 3 537 30T650 106T726 218T754 357Q754 430 726 494T650 607T538 683T400 711Q326 711 262 683T149 607T74 495T46 357ZM274 565H415Q488 565 522 535T557 449Q557 422 548 402T524 368T488 347T445 337L577 135H552L423 334H294V135H274V565ZM398 354Q420 354 444 356T489 369T523 398T537 449Q537 479 527 497T499 526T460 541T413 545H294V354H398Z"  />
<glyph unicode="&#xB0;" horiz-adv-x="400" d="M343 549Q343 519 332 493T302 447T257 416T200 404Q170 404 144 415T99 445T68 491T57 549Q57 578 68 604T98 649T144 680T200 692Q230 692 256 681T301 650T332 604T343 549ZM323 549Q323 574 314 596T289 635T250 662T200 672Q175 672 153 662T114 635T87 595T77 549Q77 522 87 499T114 460T153 434T200 424Q226 424 248 433T287 460T313 500T323 549Z"  />
<glyph unicode="&#xB1;" horiz-adv-x="600" d="M290 506H310V308H552V288H310V90H290V288H48V308H290V506ZM48 20H552V0H48V20Z"  />
<glyph unicode="&#xB4;" horiz-adv-x="130" d="M171 732L25 588H10L142 732H171Z"  />
<glyph unicode="&#xB5;" horiz-adv-x="500" d="M445 0H425V127H423Q416 97 401 72T362 28T307 -1T238 -12Q181 -12 139 10T75 85V-177H55V514H75V176Q75 131 88 100T123 48T175 18T238 8Q284 8 319 25T377 72T413 141T425 223V514H445V0Z"  />
<glyph unicode="&#xB6;" horiz-adv-x="600" d="M491 714V-140H471V694H308V-140H288V328Q238 328 198 343T128 384T82 444T66 518Q66 614 124 664T289 714H491Z"  />
<glyph unicode="&#xB7;" horiz-adv-x="278" d="M107 340Q107 354 116 363T139 372Q153 372 162 363T171 340Q171 326 162 317T139 308Q125 308 116 317T107 340Z"  />
<glyph unicode="&#xBB;" horiz-adv-x="352" d="M183 415L286 276V260L183 121V156L266 268L183 380V415ZM90 415L193 276V260L90 121V156L173 268L90 380V415Z"  />
<glyph unicode="&#x131;" horiz-adv-x="130" d="M55 0V514H75V0H55Z"  />
<glyph unicode="&#x2D8;" horiz-adv-x="130" d="M-38 714Q-33 675 -6 651T62 627Q105 627 134 648T168 714H188Q182 663 148 635T62 607Q13 607 -19 636T-58 714H-38Z"  />
<glyph unicode="&#x401;" horiz-adv-x="537" d="M350 804V885H370V804H350ZM194 804V885H214V804H194ZM54 714H528V694H74V382H501V362H74V20H532V0H54V714Z"  />
<glyph unicode="&#x402;" horiz-adv-x="687" d="M643 161Q643 216 629 262T589 340T526 390T444 408Q397 408 359 390T294 338T251 259T236 156V0H216V694H-11V714H523V694H236V272H238Q262 343 313 385T444 428Q493 428 533 409T602 355T647 270T663 161Q663 100 647 50T602 -35T532 -90T442 -110V-90Q488 -90 525 -73T588 -22T629 57T643 161Z"  />
<glyph unicode="&#x403;" horiz-adv-x="463" d="M54 714H473V694H74V0H54V714ZM361 922L215 778H200L332 922H361Z"  />
<glyph unicode="&#x404;" horiz-adv-x="685" d="M659 237Q646 179 619 132T552 52T463 1T354 -17Q278 -17 218 12T115 91T51 209T28 355Q28 426 49 493T111 614T215 699T359 731Q419 731 469 715T556 671T617 603T650 515H630Q610 609 538 660T356 711Q290 711 236 686T142 617T78 513T49 382H468V362H48V355Q48 286 67 223T126 110T222 32T354 3Q411 3 458 20T541 69T602 144T639 237H659H659Z"  />
<glyph unicode="&#x405;" horiz-adv-x="611" d="M531 514Q529 569 511 606T462 667T389 700T299 711Q261 711 222 704T150 677T96 627T75 547Q75 499 96 470T152 423T231 395T321 374Q371 361 415 349T493 317T545 264T565 175Q565 124 543 88T485 29T404 -6T313 -17Q252 -17 201 -3T112 42T54 121T34 237H54Q54 173 73 129T126 56T208 16T313 3Q355 3 396 12T471 43T524 96T545 176Q545 230 522 261T462 311T381 339T295 359Q251 369 209 380T132 410T76 462T55 547Q55 600 77 635T134 692T212 722T299 731Q351 731 396 720T474 683T528 616T551 514H531Z"  />
<glyph unicode="&#x406;" horiz-adv-x="128" d="M54 714H74V0H54V714Z"  />
<glyph unicode="&#x407;" horiz-adv-x="128" d="M133 804V885H153V804H133ZM-23 804V885H-3V804H-23ZM54 714H74V0H54V714Z"  />
<glyph unicode="&#x408;" horiz-adv-x="463" d="M384 714H404V186Q404 141 394 104T360 40T300 -2T208 -17Q157 -17 121 -2T62 39T29 100T18 178V221H38V178Q38 90 81 47T208 3Q251 3 283 13T338 46T372 107T384 201V714Z"  />
<glyph unicode="&#x409;" horiz-adv-x="994" d="M514 694H217L201 240Q198 166 187 119T158 43T116 5T62 -6Q30 -6 0 8V30Q29 14 62 14Q87 14 108 24T144 60T169 129T181 240L197 714H534V400H745Q850 400 910 350T970 202Q970 107 909 54T743 0H514V694ZM742 20Q838 20 893 67T949 202Q949 290 895 335T744 380H534V20H742Z"  />
<glyph unicode="&#x40A;" horiz-adv-x="994" d="M504 0V380H74V0H54V714H74V400H504V714H524V400H745Q850 400 910 350T970 202Q970 107 909 54T743 0H504ZM742 20Q838 20 893 67T949 202Q949 290 895 335T744 380H524V20H742Z"  />
<glyph unicode="&#x40B;" horiz-adv-x="690" d="M216 0V694H-11V714H523V694H236V357Q278 389 333 410T446 431Q552 431 598 373T645 213V0H625V211Q625 306 584 358T444 411Q392 411 337 391T236 334V0H216Z"  />
<glyph unicode="&#x40C;" horiz-adv-x="593" d="M54 714H74V280L569 714H599L254 410L619 0H592L238 398L74 253V0H54V714ZM417 922L271 778H256L388 922H417Z"  />
<glyph unicode="&#x40E;" horiz-adv-x="537" d="M-7 714H15L269 178L524 714H545L243 78Q229 49 215 31T186 2T153 -13T117 -17Q93 -17 74 -11T43 3V25Q54 17 75 10T119 3Q151 3 176 20T227 91L257 153L-7 714ZM166 904Q171 865 198 841T266 817Q309 817 338 838T372 904H392Q386 853 352 825T266 797Q217 797 185 826T146 904H166Z"  />
<glyph unicode="&#x40F;" horiz-adv-x="648" d="M574 20V714H594V0H334V-177H314V0H54V714H74V20H574Z"  />
<glyph unicode="&#x410;" horiz-adv-x="575" d="M-12 0L278 714H304L586 0H564L470 235H106L11 0H-12ZM462 255L292 694H290L114 255H462Z"  />
<glyph unicode="&#x411;" horiz-adv-x="611" d="M47 0V714H521V694H67V400H352Q457 400 517 350T577 202Q577 107 516 54T350 0H47ZM349 20Q445 20 500 67T556 202Q556 290 502 335T351 380H67V20H349Z"  />
<glyph unicode="&#x412;" horiz-adv-x="611" d="M47 714H354Q396 714 432 703T496 670T539 614T555 536Q555 504 544 475T512 424T465 389T404 373V371Q439 370 470 358T525 323T563 268T577 194Q577 146 560 110T511 49T437 13T342 0H47V714ZM354 382Q390 382 422 391T480 420T520 469T535 536Q535 576 521 606T483 655T425 684T354 694H67V382H354ZM351 20Q394 20 432 30T497 62T541 116T557 193Q557 239 540 271T494 324T429 353T354 362H67V20H351Z"  />
<glyph unicode="&#x413;" horiz-adv-x="463" d="M54 714H473V694H74V0H54V714Z"  />
<glyph unicode="&#x414;" horiz-adv-x="657" d="M624 -177V0H24V-177H4V20H70Q111 95 134 177T168 341T182 496T185 628V714H564V20H644V-177H624ZM544 694H205V623Q205 563 202 489T188 335T155 174T94 20H544V694Z"  />
<glyph unicode="&#x415;" horiz-adv-x="537" d="M54 714H528V694H74V382H501V362H74V20H532V0H54V714Z"  />
<glyph unicode="&#x416;" horiz-adv-x="978" d="M16 0H-11L332 403L28 714H56L479 281V714H499V281L922 714H950L646 403L989 0H962L632 389L499 254V0H479V254L346 389L16 0Z"  />
<glyph unicode="&#x417;" horiz-adv-x="600" d="M308 711Q197 711 142 660T76 513H56Q67 616 127 673T308 731Q360 731 403 719T478 682T526 623T543 541Q543 510 535 483T510 435T465 399T401 378V376Q469 368 512 323T556 207Q556 155 537 114T484 43T403 -1T300 -17Q177 -17 106 48T35 237H55Q55 122 119 63T300 3Q353 3 396 17T470 58T518 122T535 207Q535 279 484 322T341 366H241V386H341Q426 386 474 426T522 541Q522 621 465 666T308 711Z"  />
<glyph unicode="&#x418;" horiz-adv-x="648" d="M85 0H54V714H74V17L563 714H594V0H574V697L85 0Z"  />
<glyph unicode="&#x419;" horiz-adv-x="648" d="M85 0H54V714H74V17L563 714H594V0H574V697L85 0ZM222 904Q227 865 254 841T322 817Q365 817 394 838T428 904H448Q442 853 408 825T322 797Q273 797 241 826T202 904H222Z"  />
<glyph unicode="&#x41A;" horiz-adv-x="593" d="M54 714H74V280L569 714H599L254 410L619 0H592L238 398L74 253V0H54V714Z"  />
<glyph unicode="&#x41B;" horiz-adv-x="638" d="M584 714V0H564V694H217L201 240Q198 166 187 119T158 43T116 5T62 -6Q30 -6 0 8V30Q29 14 62 14Q87 14 108 24T144 60T169 129T181 240L197 714H584Z"  />
<glyph unicode="&#x41C;" horiz-adv-x="780" d="M54 714H87L389 26H391L693 714H726V0H706V689H704L401 0H379L76 689H74V0H54V714Z"  />
<glyph unicode="&#x41D;" horiz-adv-x="648" d="M54 714H74V382H574V714H594V0H574V362H74V0H54V714Z"  />
<glyph unicode="&#x41E;" horiz-adv-x="721" d="M32 357Q32 433 53 501T116 620T219 701T361 731Q441 731 502 701T605 620T668 501T690 357Q690 281 669 213T606 94T503 13T361 -17Q281 -17 220 13T117 94T54 213T32 357ZM52 357Q53 280 74 215T135 103T232 30T361 3Q433 3 490 29T586 103T647 215T670 357Q669 434 648 499T587 611T490 684T361 711Q289 711 232 685T136 611T75 499T52 357Z"  />
<glyph unicode="&#x41F;" horiz-adv-x="648" d="M74 694V0H54V714H594V0H574V694H74Z"  />
<glyph unicode="&#x420;" horiz-adv-x="574" d="M74 0H54V714H343Q446 714 503 665T560 519Q560 472 543 436T496 375T424 338T333 325H74V0ZM74 345H343Q385 345 421 356T483 390T525 445T540 519Q540 604 492 649T343 694H74V345Z"  />
<glyph unicode="&#x421;" horiz-adv-x="685" d="M348 3Q412 3 463 24T551 82T611 170T642 280H662Q653 215 628 161T564 67T470 5T348 -17Q277 -17 218 10T115 87T49 203T25 351Q25 416 43 483T102 606T206 696T361 731Q432 731 485 708T573 649T627 573T646 500H626Q623 539 603 576T549 644T467 692T361 711Q302 711 256 695T175 651T115 587T75 510T52 429T45 351Q45 283 65 220T124 109T219 32T348 3Z"  />
<glyph unicode="&#x422;" horiz-adv-x="500" d="M-17 694V714H517V694H260V0H240V694H-17Z"  />
<glyph unicode="&#x423;" horiz-adv-x="537" d="M-7 714H15L269 178L524 714H545L243 78Q229 49 215 31T186 2T153 -13T117 -17Q93 -17 74 -11T43 3V25Q54 17 75 10T119 3Q151 3 176 20T227 91L257 153L-7 714Z"  />
<glyph unicode="&#x424;" horiz-adv-x="714" d="M347 86Q283 86 226 102T124 152T54 237T28 360Q28 431 54 482T124 568T225 618T347 634V714H367V634Q431 634 488 618T590 568T660 483T686 360Q686 289 660 238T590 152T489 102T367 86V0H347V86ZM666 360Q666 426 643 473T578 552T483 599T367 614V106Q428 106 482 121T578 167T642 246T666 360ZM48 360Q48 294 71 247T136 168T231 121T347 106V614Q285 614 231 599T136 553T72 474T48 360Z"  />
<glyph unicode="&#x425;" horiz-adv-x="520" d="M510 714H535L275 367L547 0H522L261 351L-2 0H-27L248 367L-12 714H14L261 383L510 714Z"  />
<glyph unicode="&#x426;" horiz-adv-x="667" d="M554 20V714H574V20H654V-177H634V0H54V714H74V20H554Z"  />
<glyph unicode="&#x427;" horiz-adv-x="609" d="M535 0V362Q469 334 404 319T279 303Q207 303 162 319T90 367T55 445T45 551V714H65V553Q65 498 73 455T106 383T171 339T279 323Q333 323 399 338T535 383V714H555V0H535Z"  />
<glyph unicode="&#x428;" horiz-adv-x="988" d="M914 20V714H934V0H54V714H74V20H484V714H504V20H914Z"  />
<glyph unicode="&#x429;" horiz-adv-x="1027" d="M914 20V714H934V20H1014V-177H994V0H54V714H74V20H484V714H504V20H914Z"  />
<glyph unicode="&#x42A;" horiz-adv-x="770" d="M240 694H-17V714H260V400H521Q626 400 686 350T746 202Q746 107 685 54T519 0H240V694ZM518 20Q614 20 669 67T725 202Q725 290 671 335T520 380H260V20H518Z"  />
<glyph unicode="&#x42B;" horiz-adv-x="758" d="M684 714H704V0H684V714ZM54 714H74V400H335Q440 400 500 350T560 202Q560 107 499 54T333 0H54V714ZM332 20Q428 20 483 67T539 202Q539 290 485 335T334 380H74V20H332Z"  />
<glyph unicode="&#x42C;" horiz-adv-x="584" d="M54 714H74V400H335Q440 400 500 350T560 202Q560 107 499 54T333 0H54V714ZM332 20Q428 20 483 67T539 202Q539 290 485 335T334 380H74V20H332Z"  />
<glyph unicode="&#x42D;" horiz-adv-x="685" d="M43 237Q55 187 79 144T139 70T221 21T325 3Q403 3 461 31T559 107T617 219T637 355V362H217V382H636Q631 454 609 514T549 618T459 686T339 711Q230 711 159 658T58 515H38Q52 561 77 600T140 669T227 714T338 731Q419 731 479 700T578 616T637 496T657 355Q657 275 635 207T571 89T466 11T325 -17Q266 -17 217 1T129 52T63 132T23 237H43Z"  />
<glyph unicode="&#x42E;" horiz-adv-x="935" d="M246 362H74V0H54V714H74V382H246Q249 454 272 517T337 628T438 703T575 731Q655 731 716 701T819 620T882 501T904 357Q904 281 883 213T820 94T717 13T575 -17Q495 -17 434 13T331 94T268 213T246 357V362ZM266 357Q267 280 288 215T349 103T446 30T575 3Q647 3 704 29T800 103T861 215T884 357Q883 434 862 499T801 611T704 684T575 711Q503 711 446 685T350 611T289 499T266 357Z"  />
<glyph unicode="&#x42F;" horiz-adv-x="611" d="M23 0H-4L265 335Q217 335 177 347T108 382T63 440T47 522Q47 616 103 665T269 714H557V0H537V335H291L23 0ZM537 694H265Q168 694 118 650T68 522Q68 480 82 449T121 397T182 366T261 355H537V694Z"  />
<glyph unicode="&#x430;" horiz-adv-x="481" d="M54 355Q56 391 69 422T106 477T166 513T250 526Q284 526 314 519T368 495T405 449T420 379V52Q420 37 426 30T442 21T463 18T485 20V0Q477 -1 470 -1T455 -1Q433 -1 417 10T400 50V117H398Q390 92 372 69T328 28T268 -1T194 -12Q116 -12 69 23T22 127Q22 175 37 204T78 249T135 272T199 281Q252 284 290 286T352 296T388 319T400 364Q400 387 396 412T377 458T331 492T250 506Q169 506 124 467T74 355H54ZM400 302H398Q388 288 367 281T319 269T261 264T199 261Q169 259 141 254T90 234T55 194T42 127Q42 105 49 84T75 46T121 19T192 8Q242 8 281 25T346 69T386 133T400 207V302Z"  />
<glyph unicode="&#x431;" horiz-adv-x="519" d="M491 255Q491 196 474 147T427 62T355 8T263 -12Q212 -12 171 8T99 65T53 151T36 260Q36 358 49 428T89 546T156 620T253 656L346 671Q387 678 404 687T427 714H447Q444 702 439 692T423 675T395 662T350 652L260 638Q208 630 173 609T115 553T78 466T53 347H55Q70 393 94 424T146 473T205 499T264 507Q313 507 354 490T426 441T474 361T491 255ZM471 255Q471 309 456 352T414 425T348 471T264 487Q222 487 184 471T118 426T73 355T56 260Q56 203 71 157T113 77T179 26T264 8Q310 8 348 26T413 76T456 154T471 255Z"  />
<glyph unicode="&#x432;" horiz-adv-x="483" d="M55 514H287Q359 514 398 481T437 388Q437 338 410 309T335 272V270Q389 262 421 230T453 138Q453 72 407 36T279 0H55V514ZM75 280H286Q346 280 381 308T417 388Q417 441 383 467T289 494H75V280ZM75 20H280Q352 20 392 49T433 138Q433 195 396 227T286 260H75V20Z"  />
<glyph unicode="&#x433;" horiz-adv-x="379" d="M55 0V514H379V494H75V0H55Z"  />
<glyph unicode="&#x434;" horiz-adv-x="518" d="M439 20H510V-177H490V0H24V-177H4V20H62Q90 75 106 137T131 262T141 390T143 514H439V20ZM419 494H162Q162 441 160 381T151 259T128 136T84 20H419V494Z"  />
<glyph unicode="&#x435;" horiz-adv-x="500" d="M45 253Q46 201 57 157T93 79T155 27T248 8Q329 8 382 50T449 178H469Q464 134 446 99T398 39T331 1T250 -12Q190 -13 148 7T78 64T38 150T25 257Q25 321 44 371T94 455T165 508T250 526Q310 526 353 503T424 442T464 355T475 253H45ZM455 273Q455 320 442 362T404 437T340 487T252 506Q210 506 174 490T110 444T65 370T45 273H455Z"  />
<glyph unicode="&#x436;" horiz-adv-x="682" d="M13 0H-13L221 294L11 514H39L331 208V514H351V208L643 514H671L461 294L695 0H669L446 280L351 182V0H331V182L236 280L13 0Z"  />
<glyph unicode="&#x437;" horiz-adv-x="457" d="M231 506Q150 506 110 471T62 370H42Q49 441 93 483T231 526Q318 526 364 489T411 387Q411 342 387 311T308 271V269Q331 266 351 257T387 232T412 195T421 148Q421 73 369 31T223 -12Q129 -12 78 36T26 171H46Q46 90 92 49T223 8Q304 8 352 43T401 148Q401 199 363 229T260 260H186V280H260Q321 280 356 307T391 387Q391 444 349 475T231 506Z"  />
<glyph unicode="&#x438;" horiz-adv-x="500" d="M55 0V514H75V18H77L414 514H445V0H425V496H423L86 0H55Z"  />
<glyph unicode="&#x439;" horiz-adv-x="500" d="M55 0V514H75V18H77L414 514H445V0H425V496H423L86 0H55ZM148 714Q153 675 180 651T248 627Q291 627 320 648T354 714H374Q368 663 334 635T248 607Q199 607 167 636T128 714H148Z"  />
<glyph unicode="&#x43A;" horiz-adv-x="444" d="M75 181V0H55V514H75V206L430 514H459L222 310L476 0H449L207 296L75 181Z"  />
<glyph unicode="&#x43B;" horiz-adv-x="518" d="M463 514V0H443V495H187L175 205Q172 144 163 104T138 39T102 4T56 -6Q28 -6 3 6V28Q28 14 56 14Q77 14 94 23T124 54T145 115T156 210L168 514H463Z"  />
<glyph unicode="&#x43C;" horiz-adv-x="614" d="M55 0V514H86L307 21L528 514H559V0H539V490H537L319 0H295L77 490H75V0H55Z"  />
<glyph unicode="&#x43D;" horiz-adv-x="500" d="M55 0V514H75V277H425V514H445V0H425V257H75V0H55Z"  />
<glyph unicode="&#x43E;" horiz-adv-x="519" d="M28 257Q28 309 43 358T87 444T160 503T260 526Q316 526 359 504T431 444T476 358T491 257Q491 204 476 156T432 70T359 10T259 -12Q203 -12 160 10T87 69T43 155T28 257ZM48 257Q48 208 61 163T102 84T168 29T260 8Q311 8 350 28T417 83T457 163T471 257Q471 305 458 350T417 429T351 485T260 506Q208 506 169 485T102 430T62 350T48 257Z"  />
<glyph unicode="&#x43F;" horiz-adv-x="500" d="M55 0V514H445V0H425V494H75V0H55Z"  />
<glyph unicode="&#x440;" horiz-adv-x="537" d="M75 -177H55V514H75V370H77Q87 404 105 432T150 482T210 514T283 526Q334 526 374 506T443 450T487 365T502 258Q502 204 488 155T446 69T377 10T283 -12Q201 -12 148 31T77 144H75V-177ZM283 8Q335 8 373 30T435 88T470 168T482 258Q482 307 470 352T433 431T371 486T283 506Q233 506 195 486T130 432T89 353T75 258Q75 137 132 73T283 8Z"  />
<glyph unicode="&#x441;" horiz-adv-x="500" d="M469 175Q465 132 448 98T404 39T339 1T259 -12Q204 -12 162 8T90 64T46 146T31 246Q31 301 45 352T89 441T164 503T271 526Q307 526 340 515T399 483T442 431T465 358H445Q439 395 423 423T384 469T332 497T271 506Q209 506 167 483T100 422T63 338T51 246Q51 199 64 156T104 80T169 28T259 8Q296 8 329 19T388 53T430 105T449 175H469Z"  />
<glyph unicode="&#x442;" horiz-adv-x="408" d="M194 0V494H-7V514H415V494H214V0H194Z"  />
<glyph unicode="&#x443;" horiz-adv-x="407" d="M398 514H419L182 -105Q172 -131 158 -145T127 -167T89 -175T46 -177V-157Q71 -157 90 -156T122 -148T146 -128T166 -91L203 5L-12 514H10L214 27L398 514Z"  />
<glyph unicode="&#x444;" horiz-adv-x="762" d="M734 256Q734 191 719 141T677 57T612 6T529 -12Q484 -12 447 8T393 61Q392 60 391 61V-177H371V61Q371 61 369 61Q347 26 310 7T230 -12Q185 -12 148 5T84 57T43 141T28 256Q28 391 84 458T234 526Q276 526 313 507T369 454H371V714H391V453H393Q412 485 450 505T531 526Q625 526 679 459T734 256ZM714 256Q714 383 664 444T531 506Q504 506 479 497T434 471T403 431T391 379V138Q391 108 402 84T432 43T476 17T529 8Q568 8 602 23T661 70T700 147T714 256ZM371 379Q371 407 360 430T330 471T286 497T234 506Q193 506 159 491T100 445T62 367T48 256Q48 194 61 148T99 70T157 24T230 8Q258 8 283 17T328 43T359 84T371 138V379Z"  />
<glyph unicode="&#x445;" horiz-adv-x="407" d="M380 514H404L216 266L422 0H397L203 251L10 0H-15L191 266L4 514H30L203 281L380 514Z"  />
<glyph unicode="&#x446;" horiz-adv-x="524" d="M445 514V20H516V-177H496V0H55V514H75V20H425V514H445Z"  />
<glyph unicode="&#x447;" horiz-adv-x="462" d="M387 255Q351 240 305 226T201 212Q120 212 78 252T35 380V514H55V381Q55 303 94 268T202 232Q254 232 301 246T387 277V514H407V0H387V255H387Z"  />
<glyph unicode="&#x448;" horiz-adv-x="758" d="M703 514V0H55V514H75V20H369V514H389V20H683V514H703Z"  />
<glyph unicode="&#x449;" horiz-adv-x="782" d="M703 514V20H774V-177H754V0H55V514H75V20H369V514H389V20H683V514H703Z"  />
<glyph unicode="&#x44A;" horiz-adv-x="607" d="M588 146Q588 80 546 40T428 0H194V494H-7V514H214V288H431Q506 288 547 250T588 146ZM568 146Q568 203 534 235T431 268H214V20H428Q497 20 532 54T568 146Z"  />
<glyph unicode="&#x44B;" horiz-adv-x="600" d="M545 0H525V514H545V0ZM428 146Q428 80 386 40T268 0H55V514H75V288H271Q346 288 387 250T428 146ZM408 146Q408 203 374 235T271 268H75V20H268Q337 20 372 54T408 146Z"  />
<glyph unicode="&#x44C;" horiz-adv-x="468" d="M449 146Q449 80 407 40T289 0H55V514H75V288H292Q367 288 408 250T449 146ZM429 146Q429 203 395 235T292 268H75V20H289Q358 20 393 54T429 146Z"  />
<glyph unicode="&#x44D;" horiz-adv-x="500" d="M47 167Q61 87 112 48T239 8Q338 8 393 71T450 253H170V273H450Q444 381 395 443T248 506Q174 506 124 468T56 367H35Q53 439 109 482T248 526Q302 526 343 507T413 453T455 367T470 255Q470 129 409 59T240 -12Q155 -12 98 33T26 167H47Z"  />
<glyph unicode="&#x44E;" horiz-adv-x="700" d="M75 257V0H55V514H75V277H209Q212 326 228 371T274 451T345 505T441 526Q497 526 540 504T612 444T657 358T672 257Q672 204 657 156T613 70T540 10T440 -12Q384 -12 341 10T268 69T224 155T209 257H75ZM229 257Q229 208 242 163T283 84T349 29T441 8Q492 8 531 28T598 83T638 163T652 257Q652 305 639 350T598 429T532 485T441 506Q389 506 350 485T283 430T243 350T229 257Z"  />
<glyph unicode="&#x44F;" horiz-adv-x="476" d="M25 0H-2L186 236Q154 237 127 246T80 272T49 315T37 375Q37 438 79 476T200 514H421V0H401V236H212L25 0ZM401 494H200Q130 494 94 463T57 375Q57 313 95 285T196 256H401V494Z"  />
<glyph unicode="&#x451;" horiz-adv-x="500" d="M322 614V695H342V614H322ZM166 614V695H186V614H166ZM45 253Q46 201 57 157T93 79T155 27T248 8Q329 8 382 50T449 178H469Q464 134 446 99T398 39T331 1T250 -12Q190 -13 148 7T78 64T38 150T25 257Q25 321 44 371T94 455T165 508T250 526Q310 526 353 503T424 442T464 355T475 253H45ZM455 273Q455 320 442 362T404 437T340 487T252 506Q210 506 174 490T110 444T65 370T45 273H455Z"  />
<glyph unicode="&#x452;" horiz-adv-x="500" d="M425 328Q425 373 412 404T377 456T325 486T262 496Q216 496 181 479T123 432T87 363T75 281V0H55V593H-23V613H55V714H75V613H307V593H75V377H77Q84 407 99 432T138 476T193 505T262 516Q302 516 335 504T393 469T431 411T445 331V59Q445 -55 387 -118T225 -189V-169Q319 -161 372 -105T425 59V328Z"  />
<glyph unicode="&#x453;" horiz-adv-x="379" d="M55 0V514H379V494H75V0H55ZM311 732L165 588H150L282 732H311Z"  />
<glyph unicode="&#x454;" horiz-adv-x="500" d="M470 167Q456 79 398 34T254 -12Q148 -12 88 58T28 254Q28 315 44 365T90 451T162 506T257 526Q297 526 332 515T394 482T439 432T465 367H444Q437 397 421 422T380 466T324 495T256 506Q209 506 172 490T109 443T67 369T48 273H328V253H48Q50 134 104 71T255 8Q331 8 383 47T449 167H470H470Z"  />
<glyph unicode="&#x455;" horiz-adv-x="463" d="M390 362Q390 401 378 428T344 472T292 498T224 506Q170 506 139 492T93 458T74 422T70 397Q70 359 85 339T127 307Q154 296 185 288T259 269Q289 261 318 253T371 229T409 191T424 131Q424 92 408 65T365 21T305 -4T238 -12Q135 -12 83 33T30 176H50Q50 89 98 49T238 8Q266 8 295 14T349 35T388 73T404 129Q404 163 389 184T349 218T292 240T227 256Q190 265 162 273T112 291Q80 305 65 330T50 397Q50 418 59 441T89 483T143 514T224 526Q310 526 360 487T410 362H390Z"  />
<glyph unicode="&#x456;" horiz-adv-x="130" d="M75 613H55V714H75V613ZM75 0H55V514H75V0Z"  />
<glyph unicode="&#x457;" horiz-adv-x="130" d="M55 0V514H75V0H55ZM133 614V695H153V614H133ZM-23 614V695H-3V614H-23Z"  />
<glyph unicode="&#x458;" horiz-adv-x="130" d="M75 613H55V714H75V613ZM75 -75Q75 -110 67 -130T43 -161T4 -174T-49 -177V-157Q-20 -157 0 -155T32 -145T49 -118T55 -68V514H75V-75Z"  />
<glyph unicode="&#x459;" horiz-adv-x="768" d="M749 146Q749 80 707 40T589 0H412V495H187L175 205Q172 144 163 104T138 39T102 4T56 -6Q28 -6 3 6V28Q28 14 56 14Q77 14 94 23T124 54T145 115T156 210L168 514H432V288H592Q667 288 708 250T749 146ZM729 146Q729 203 695 235T592 268H432V20H589Q658 20 693 54T729 146Z"  />
<glyph unicode="&#x45A;" horiz-adv-x="748" d="M55 0V514H75V284H375V514H395V284H572Q647 284 688 247T729 144Q729 79 687 40T569 0H375V264H75V0H55ZM709 144Q709 199 675 231T572 264H395V20H569Q638 20 673 54T709 144Z"  />
<glyph unicode="&#x45B;" horiz-adv-x="500" d="M425 328Q425 373 412 404T377 456T325 486T262 496Q216 496 181 479T123 432T87 363T75 281V0H55V593H-23V613H55V714H75V613H307V593H75V377H77Q84 407 99 432T138 476T193 505T262 516Q302 516 335 504T393 469T431 411T445 331V0H425V328Z"  />
<glyph unicode="&#x45C;" horiz-adv-x="444" d="M75 181V0H55V514H75V206L430 514H459L222 310L476 0H449L207 296L75 181ZM359 732L213 588H198L330 732H359Z"  />
<glyph unicode="&#x45E;" horiz-adv-x="407" d="M109 714Q114 675 141 651T209 627Q252 627 281 648T315 714H335Q329 663 295 635T209 607Q160 607 128 636T89 714H109ZM398 514H419L182 -105Q172 -131 158 -145T127 -167T89 -175T46 -177V-157Q71 -157 90 -156T122 -148T146 -128T166 -91L203 5L-12 514H10L214 27L398 514Z"  />
<glyph unicode="&#x45F;" horiz-adv-x="500" d="M445 514V0H260V-177H240V0H55V514H75V20H425V514H445Z"  />
<glyph unicode="&#x490;" horiz-adv-x="463" d="M54 714H447V875H467V694H74V0H54V714Z"  />
<glyph unicode="&#x491;" horiz-adv-x="379" d="M55 0V514H353V671H373V494H75V0H55Z"  />
<glyph unicode="&#x2013;" horiz-adv-x="500" d="M0 278H500V258H0V278Z"  />
<glyph unicode="&#x2014;" horiz-adv-x="1000" d="M870 258H130V278H870V258Z"  />
<glyph unicode="&#x2018;" horiz-adv-x="167" d="M73 489V607Q73 634 75 651T82 680T96 699T118 714V694Q103 684 98 665T93 607V489H73Z"  />
<glyph unicode="&#x2019;" horiz-adv-x="167" d="M94 714V596Q94 569 92 552T85 523T71 504T49 489V509Q64 519 69 538T74 596V714H94Z"  />
<glyph unicode="&#x201A;" horiz-adv-x="167" d="M93 98V0Q93 -45 84 -73T48 -119V-99Q62 -86 67 -64T73 0V98H93Z"  />
<glyph unicode="&#x201C;" horiz-adv-x="278" d="M183 489V607Q183 634 185 651T192 680T206 699T228 714V694Q213 684 208 665T203 607V489H183ZM83 489V607Q83 634 85 651T92 680T106 699T128 714V694Q113 684 108 665T103 607V489H83Z"  />
<glyph unicode="&#x201D;" horiz-adv-x="278" d="M195 714V596Q195 569 193 552T186 523T172 504T150 489V509Q165 519 170 538T175 596V714H195ZM95 714V596Q95 569 93 552T86 523T72 504T50 489V509Q65 519 70 538T75 596V714H95Z"  />
<glyph unicode="&#x201E;" horiz-adv-x="278" d="M195 98V0Q195 -45 186 -73T150 -119V-99Q164 -86 169 -64T175 0V98H195ZM95 98V0Q95 -45 86 -73T50 -119V-99Q64 -86 69 -64T75 0V98H95Z"  />
<glyph unicode="&#x2020;" horiz-adv-x="556" d="M288 714V471H496V451H288V-140H268V451H60V471H268V714H288Z"  />
<glyph unicode="&#x2021;" horiz-adv-x="556" d="M60 57V77H268V497H60V517H268V714H288V517H496V497H288V77H496V57H288V-140H268V57H60Z"  />
<glyph unicode="&#x2022;" horiz-adv-x="500" d="M72 357Q72 394 86 426T124 483T180 521T250 535Q287 535 319 521T376 483T415 427T429 357Q429 320 415 288T377 231T320 192T250 178Q213 178 181 192T124 230T86 287T72 357Z"  />
<glyph unicode="&#x2026;" horiz-adv-x="1000" d="M843 0H823V98H843V0ZM510 0H490V98H510V0ZM177 0H157V98H177V0Z"  />
<glyph unicode="&#x2030;" horiz-adv-x="1037" d="M565 714H588L112 -34H89L565 714ZM21 519Q21 556 31 588T60 643T108 679T173 692Q249 692 288 644T328 520Q328 485 318 455T288 401T239 364T173 350Q134 350 105 364T58 401T30 455T21 519ZM41 519Q41 489 49 462T73 414T115 382T173 370Q206 370 231 382T274 414T299 462T308 519Q308 588 275 630T173 672Q104 672 73 629T41 519ZM709 157Q709 194 719 226T748 281T796 317T861 330Q937 330 976 282T1016 158Q1016 123 1006 93T976 39T927 2T861 -12Q822 -12 793 2T746 39T718 93T709 157ZM349 157Q349 194 359 226T388 281T436 317T501 330Q577 330 616 282T656 158Q656 123 646 93T616 39T567 2T501 -12Q462 -12 433 2T386 39T358 93T349 157ZM729 157Q729 127 737 100T761 52T803 20T861 8Q894 8 919 20T962 52T987 100T996 157Q996 226 963 268T861 310Q792 310 761 267T729 157ZM369 157Q369 127 377 100T401 52T443 20T501 8Q534 8 559 20T602 52T627 100T636 157Q636 226 603 268T501 310Q432 310 401 267T369 157Z"  />
<glyph unicode="&#x2039;" horiz-adv-x="259" d="M169 121L66 260V276L169 415V380L86 268L169 156V121Z"  />
<glyph unicode="&#x203A;" horiz-adv-x="259" d="M90 415L193 276V260L90 121V156L173 268L90 380V415Z"  />
<glyph unicode="&#x20AC;" horiz-adv-x="556" d="M567 73Q480 -15 357 -15Q294 -15 244 7T156 68T94 158T61 269H0L7 286H60Q59 291 59 296T58 307V328Q58 342 58 357T60 386H0L7 403H62Q70 464 93 517T155 610T246 672T364 695Q418 695 463 679T550 629L541 613Q499 645 458 661T363 677Q303 677 254 656T169 597T111 510T82 403H489L480 386H80Q79 374 79 362T78 338Q78 311 81 286H459L450 269H83Q92 215 114 167T172 82T254 24T360 3Q485 3 567 100V73Z"  />
<glyph unicode="&#x2116;" horiz-adv-x="969" d="M54 680H84L552 25H554V680H574V0H544L76 655H74V0H54V680ZM794 438Q830 438 857 425T903 389T931 337T941 278Q941 248 932 219T903 168T857 132T794 118Q758 118 731 131T685 167T657 219T647 278Q647 308 656 337T685 388T731 424T794 438ZM794 418Q763 418 740 406T700 375T676 330T667 278Q667 252 675 227T700 182T740 150T794 138Q825 138 848 150T888 181T912 226T921 278Q921 304 913 329T888 374T848 406T794 418ZM656 20H932V0H656V20Z"  />
<glyph unicode="&#x2122;" horiz-adv-x="990" d="M496 714H530L692 330L854 714H888V302H868V694H866L702 302H682L518 694H516V302H496V714ZM232 694H82V714H402V694H252V302H232V694Z"  />
<glyph unicode="&#xE002;" horiz-adv-x="130" d="M171 922L25 778H10L142 922H171Z"  />
<glyph unicode="&#xE00B;" horiz-adv-x="130" d="M133 804V885H153V804H133ZM-23 804V885H-3V804H-23Z"  />
<glyph unicode="&#xE00F;" horiz-adv-x="130" d="M-38 904Q-33 865 -6 841T62 817Q105 817 134 838T168 904H188Q182 853 148 825T62 797Q13 797 -19 826T-58 904H-38Z"  />

</font>
</defs>
</svg>
