<svg xmlns="http://www.w3.org/2000/svg">
<defs>
<font horiz-adv-x="463" id="ae1dea8c-a953-4845-b616-74a257ba72e6">
<font-face font-family="" panose-1="2 11 6 4 2 2 2 2 2 4" ascent="952" descent="-286" units-per-em="1000" alphabetic="0">
</font-face>
<missing-glyph horiz-adv-x="278" />

<glyph unicode="&#xA;" />
<glyph unicode="&#xD;" horiz-adv-x="0" />
<glyph unicode=" " horiz-adv-x="278" />
<glyph unicode="!" horiz-adv-x="278" d="M77 508V714H202V508L169 199H110L77 508ZM72 125H206V0H72V125Z"  />
<glyph unicode="&quot;" horiz-adv-x="444" d="M259 714H361V432H259V714ZM83 714H185V432H83V714Z"  />
<glyph unicode="#" horiz-adv-x="556" d="M128 210H34V285H139L157 415H63V490H167L196 700H277L247 490H358L387 700H468L438 490H524V415H428L410 285H495V210H400L370 0H290L319 210H209L179 0H99L128 210ZM330 285L348 415H237L219 285H330Z"  />
<glyph unicode="$" horiz-adv-x="556" d="M131 217Q130 151 160 113T259 73V315Q218 326 178 341T105 381T52 443T32 535Q32 583 50 619T100 680T173 718T259 731V809H302V731Q347 731 387 719T456 683T503 622T521 536H407Q405 587 381 614T302 641V430Q347 418 390 402T466 361T519 299T539 208Q539 152 521 111T470 42T395 0T302 -17V-95H259V-17Q205 -16 160 0T83 45T34 118T17 217H131ZM259 641Q205 641 176 619T146 543Q146 519 156 502T181 473T217 454T259 441V641ZM302 73Q356 77 390 104T425 192Q425 220 415 239T387 271T347 292T302 306V73Z"  />
<glyph unicode="%" horiz-adv-x="1000" d="M649 724H725L338 -24H260L649 724ZM249 316Q204 316 172 332T120 375T91 438T82 515Q82 555 91 591T121 655T173 698T249 714Q293 714 324 698T376 655T406 592T416 515Q416 474 407 438T378 375T326 332T249 316ZM248 381Q269 381 284 391T308 420T321 462T326 515Q326 540 323 564T310 607T286 637T248 649Q225 649 210 638T187 607T175 564T172 515Q172 487 176 463T189 420T212 392T248 381ZM584 185Q584 225 593 261T623 325T675 368T751 384Q795 384 826 368T878 325T908 262T918 185Q918 144 909 108T880 45T828 2T751 -14Q706 -14 674 2T622 45T593 108T584 185ZM674 185Q674 157 678 133T691 90T714 62T750 51Q771 51 786 61T810 90T823 132T828 185Q828 210 825 234T812 277T788 307T750 319Q727 319 712 308T689 277T677 234T674 185Z"  />
<glyph unicode="&amp;" horiz-adv-x="648" d="M32 198Q32 236 46 267T83 323T135 369T196 405Q168 441 146 477T124 561Q124 600 137 631T175 684T231 719T299 731Q333 731 365 721T422 689T462 635T477 560Q477 528 467 501T439 452T398 411T348 379L459 245Q465 262 471 284T481 341H581Q576 293 563 249T525 166L662 0H522L457 80Q417 31 369 9T257 -14Q207 -14 166 0T95 42T49 108T32 198ZM291 448Q307 459 322 470T349 495T368 526T375 564Q375 599 355 622T302 646Q270 646 248 625T226 567Q226 549 232 534T248 503T269 475T291 448ZM146 196Q146 138 178 107T261 76Q292 76 314 84T351 105T377 131T396 156L256 330Q240 320 221 310T186 285T158 249T146 196Z"  />
<glyph unicode="&apos;" horiz-adv-x="278" d="M88 714H190V432H88V714Z"  />
<glyph unicode="(" horiz-adv-x="278" d="M193 -191Q163 -143 137 -92T91 15T60 135T49 270Q49 391 86 508T193 731H286Q226 622 195 510T163 270Q163 143 193 30T286 -191H193H193Z"  />
<glyph unicode=")" horiz-adv-x="278" d="M-8 -191Q52 -83 83 29T115 269Q115 396 85 509T-8 731H85Q115 683 141 632T186 524T217 404T229 269Q229 148 192 32T85 -191H-8H-8Z"  />
<glyph unicode="*" horiz-adv-x="370" d="M60 440L130 534L19 572L41 637L151 594V714H219V594L328 637L352 572L238 534L308 440L255 401L184 499L116 401L60 440Z"  />
<glyph unicode="+" horiz-adv-x="600" d="M48 304H249V506H351V304H552V202H351V0H249V202H48V304Z"  />
<glyph unicode="&#x2c;" horiz-adv-x="278" d="M69 135H208V0Q207 -63 170 -104T73 -158V-97Q106 -89 122 -61T138 0H69V135Z"  />
<glyph unicode="-" horiz-adv-x="389" d="M49 326H340V218H49V326Z"  />
<glyph unicode="." horiz-adv-x="278" d="M69 135H208V0H69V135Z"  />
<glyph unicode="/" horiz-adv-x="352" d="M265 731H374L87 -17H-22L265 731Z"  />
<glyph unicode="0" horiz-adv-x="556" d="M278 -14Q203 -14 156 20T82 108T46 226T36 350Q36 410 45 474T81 591T155 679T278 714Q353 714 400 680T474 592T510 474T520 350Q520 290 511 226T475 109T401 21T278 -14ZM278 81Q315 81 340 102T379 160T400 246T406 350Q406 405 400 453T380 539T340 597T278 619Q240 619 216 598T177 539T156 454T150 350Q150 295 156 246T176 161T215 103T278 81Z"  />
<glyph unicode="1" horiz-adv-x="556" d="M225 494H53V584Q89 584 123 590T184 610T231 646T257 700H350V0H225V494Z"  />
<glyph unicode="2" horiz-adv-x="556" d="M39 0Q40 88 80 152T193 265Q227 290 264 314T331 364T382 422T404 495Q404 514 400 535T382 575T346 606T286 619Q252 619 230 606T194 569T174 513T166 444H52Q52 502 67 551T114 637T189 693T293 714Q357 714 400 693T469 640T507 571T518 499Q518 443 496 401T438 325T362 264T282 211T215 159T176 102H517V0H39H39Z"  />
<glyph unicode="3" horiz-adv-x="556" d="M145 230Q143 166 176 124T277 81Q334 81 372 113T411 206Q411 247 395 271T353 307T295 323T228 325V410Q256 409 284 414T334 431T369 466T383 520Q383 565 353 592T274 619Q244 619 222 607T186 575T164 529T158 476H44Q46 527 62 570T109 646T181 696T276 714Q317 714 356 702T427 667T478 609T497 527Q497 473 473 434T398 377V375Q458 363 491 316T525 200Q525 150 505 111T451 44T372 1T277 -14Q216 -14 171 3T95 53T48 130T31 230H145Z"  />
<glyph unicode="4" horiz-adv-x="556" d="M24 279L324 700H432V256H522V166H432V0H324V166H24V279ZM324 256V564H322L112 256H324Z"  />
<glyph unicode="5" horiz-adv-x="556" d="M149 199Q154 142 187 112T278 81Q314 81 339 93T379 126T401 175T408 235Q408 264 400 290T376 337T335 369T275 381Q239 381 208 368T162 317H48L123 700H485V598H208L172 420L174 418Q197 444 232 457T303 471Q355 471 396 454T465 405T507 330T522 237Q522 195 509 151T466 70T390 10T280 -14Q229 -14 186 -1T109 40T57 106T35 199H149Z"  />
<glyph unicode="6" horiz-adv-x="556" d="M289 -14Q212 -14 163 14T85 92T45 208T34 352Q34 415 47 479T92 595T173 681T298 714Q339 714 376 700T443 661T489 601T509 523H395Q391 566 365 592T293 619Q246 619 219 595T177 534T157 455T148 379L150 377Q173 419 213 439T301 460Q353 460 394 442T463 393T507 318T522 225Q522 174 506 131T458 55T384 4T289 -14ZM159 227Q159 198 167 172T191 126T230 93T285 81Q316 81 339 93T377 126T400 172T408 227Q408 255 401 281T378 326T339 358T285 370Q254 370 231 359T191 328T167 282T159 227Z"  />
<glyph unicode="7" horiz-adv-x="556" d="M128 0Q134 83 156 164T214 321T297 466T398 598H35V700H514V605Q459 543 414 477T336 336T281 178T253 0H128H128Z"  />
<glyph unicode="8" horiz-adv-x="556" d="M31 206Q31 272 65 317T159 377V379Q111 397 86 434T60 523Q60 614 116 664T278 714Q384 714 440 664T496 523Q496 472 471 435T397 379V377Q457 362 491 317T525 206Q525 155 507 114T455 45T377 1T278 -14Q225 -14 180 1T101 44T50 114T31 206ZM278 414Q326 414 357 440T388 517Q388 569 356 596T278 624Q232 624 200 597T168 517Q168 466 199 440T278 414ZM145 206Q145 143 183 110T278 76Q335 76 373 109T411 206Q411 264 373 296T278 329Q221 329 183 297T145 206Z"  />
<glyph unicode="9" horiz-adv-x="556" d="M161 177Q165 134 191 108T263 81Q309 81 336 105T379 166T399 244T408 321L406 323Q383 281 343 260T255 239Q205 239 165 256T95 303T50 377T34 475Q34 526 50 569T97 645T173 696T275 714Q349 714 397 686T472 608T511 491T522 348Q522 285 509 221T464 105T383 19T258 -14Q217 -14 180 0T113 39T67 99T47 177H161ZM270 329Q302 329 326 341T365 373T389 420T397 476Q397 504 389 530T366 575T326 607T270 619Q239 619 216 608T178 576T156 530T148 476Q148 447 155 421T178 374T216 342T270 329Z"  />
<glyph unicode=":" horiz-adv-x="278" d="M69 506H208V371H69V506ZM69 135H208V0H69V135Z"  />
<glyph unicode=";" horiz-adv-x="278" d="M69 506H208V371H69V506ZM69 135H208V0Q207 -63 170 -104T73 -158V-97Q106 -89 122 -61T138 0H69V135Z"  />
<glyph unicode="&lt;" horiz-adv-x="600" d="M46 289L554 514V412L180 253L554 94V-8L46 217V289Z"  />
<glyph unicode="=" horiz-adv-x="600" d="M48 405H552V303H48V405ZM48 203H552V101H48V203Z"  />
<glyph unicode="&gt;" horiz-adv-x="600" d="M46 94L420 253L46 412V514L554 289V217L46 -8V94Z"  />
<glyph unicode="?" horiz-adv-x="556" d="M223 194Q223 237 227 268T242 322T266 362T301 397Q317 411 331 423T357 449T375 482T382 525Q382 555 372 576T346 611T314 630T284 636Q221 636 192 596T163 487H49Q49 542 65 587T113 664T189 713T289 731Q335 731 374 718T443 679T490 615T507 529Q507 493 500 468T480 425T451 392T419 363Q400 347 384 332T356 299T338 255T331 194H223ZM208 125H342V0H208V125Z"  />
<glyph unicode="@" horiz-adv-x="800" d="M196 298Q196 346 212 392T256 475T325 534T415 557Q450 557 479 540T527 485L545 542H615L543 279Q539 267 537 255T534 233Q534 223 538 217T553 210Q576 210 599 226T641 272T671 340T683 426Q683 482 662 526T605 602T520 649T416 666Q352 666 300 643T209 579T150 484T129 366Q129 293 151 234T213 134T307 71T425 48Q491 48 549 73T650 147H720Q672 69 594 26T421 -17Q344 -17 276 11T158 91T78 213T49 370Q49 446 78 511T158 626T274 703T416 731Q483 731 543 710T650 649T723 556T751 438Q751 363 726 307T664 214T586 159T515 140Q492 140 475 154T456 198H454Q434 175 404 158T342 141Q310 141 284 153T238 187T207 237T196 298ZM281 307Q281 267 302 242T361 216Q391 216 416 233T459 277T487 335T498 394Q498 412 492 428T475 456T450 475T419 482Q388 482 363 465T319 423T291 366T281 307Z"  />
<glyph unicode="A" horiz-adv-x="667" d="M267 714H400L675 0H541L474 189H189L122 0H-7L267 714ZM441 284L334 591H331L223 284H441Z"  />
<glyph unicode="B" horiz-adv-x="704" d="M76 714H423Q519 714 577 670T635 537Q635 483 609 445T533 385V383Q599 369 633 321T667 199Q667 157 652 121T605 58T523 16T404 0H76V714ZM405 415Q450 415 480 440T510 514Q510 568 483 590T405 612H201V415H405ZM422 102Q479 102 510 131T542 215Q542 269 511 297T422 325H201V102H422Z"  />
<glyph unicode="C" horiz-adv-x="722" d="M38 357Q38 433 61 501T129 620T236 701T380 731Q441 731 493 715T586 667T651 590T683 487H558Q542 550 500 589T380 629Q323 629 282 606T214 545T176 457T163 357Q163 306 175 257T214 170T281 108T380 85Q422 85 454 99T508 139T544 199T562 272H684Q680 208 656 155T593 64T499 4T380 -17Q300 -17 237 12T129 93T62 212T38 357Z"  />
<glyph unicode="D" horiz-adv-x="722" d="M76 714H372Q454 714 514 686T612 610T668 496T687 357Q687 283 669 218T612 105T514 28T372 0H76V714ZM324 102Q397 102 443 121T516 175T552 256T562 357Q562 411 553 457T517 538T444 592T324 612H201V102H324Z"  />
<glyph unicode="E" horiz-adv-x="630" d="M76 714H590V606H201V419H561V317H201V108H597V0H76V714Z"  />
<glyph unicode="F" horiz-adv-x="593" d="M76 714H569V606H201V419H524V317H201V0H76V714Z"  />
<glyph unicode="G" horiz-adv-x="759" d="M43 357Q43 433 66 501T134 620T241 701T385 731Q443 731 495 716T589 670T657 593T691 487H569Q564 522 548 548T506 593T450 620T385 629Q328 629 287 606T219 545T181 457T168 357Q168 306 180 257T219 170T286 108T385 85Q482 83 532 136T585 281H395V376H699V0H619L600 84Q550 27 500 5T385 -17Q305 -17 242 12T134 93T67 212T43 357Z"  />
<glyph unicode="H" horiz-adv-x="722" d="M73 714H198V430H523V714H648V0H523V322H198V0H73V714Z"  />
<glyph unicode="I" horiz-adv-x="278" d="M76 714H201V0H76V714Z"  />
<glyph unicode="J" horiz-adv-x="537" d="M13 250H138V213Q138 152 158 119T236 85Q266 85 285 94T316 120T332 164T336 223V714H461V230Q461 183 453 139T421 60T350 4T226 -17Q169 -17 129 0T63 48T25 121T13 212V250Z"  />
<glyph unicode="K" horiz-adv-x="685" d="M76 714H201V389L519 714H673L388 429L693 0H537L303 341L201 240V0H76V714Z"  />
<glyph unicode="L" horiz-adv-x="574" d="M76 714H201V108H564V0H76V714Z"  />
<glyph unicode="M" horiz-adv-x="889" d="M74 714H250L447 155H449L641 714H815V0H696V551H694L496 0H393L195 551H193V0H74V714Z"  />
<glyph unicode="N" horiz-adv-x="722" d="M71 714H203L529 188H531V714H650V0H518L193 525H190V0H71V714Z"  />
<glyph unicode="O" horiz-adv-x="760" d="M380 731Q460 731 523 701T631 620T698 501T722 357Q722 280 699 212T631 93T524 13T380 -17Q300 -17 237 12T129 93T62 212T38 357Q38 433 61 501T129 620T236 701T380 731ZM380 629Q323 629 282 606T214 545T176 457T163 357Q163 306 175 257T214 170T281 108T380 85Q437 85 478 108T546 169T584 257T597 357Q597 408 585 457T546 544T479 606T380 629Z"  />
<glyph unicode="P" horiz-adv-x="667" d="M76 714H391Q467 714 515 692T589 637T624 565T634 493Q634 460 625 422T589 350T515 296T391 274H201V0H76V714ZM201 376H384Q405 376 427 382T467 401T497 437T509 494Q509 529 499 552T472 588T433 607T386 612H201V376Z"  />
<glyph unicode="Q" horiz-adv-x="760" d="M713 3L652 -65L548 26Q508 3 465 -7T380 -17Q300 -17 237 12T129 93T62 212T38 357Q38 433 61 501T129 620T236 701T380 731Q460 731 523 701T631 620T698 501T722 357Q722 321 717 283T699 209T667 141T621 83L713 3ZM388 165L448 234L535 158Q569 200 583 251T597 357Q597 408 585 457T546 544T479 606T380 629Q323 629 282 606T214 545T176 457T163 357Q163 306 175 257T214 170T281 108T380 85Q400 85 420 89T460 102L388 165Z"  />
<glyph unicode="R" horiz-adv-x="704" d="M76 714H417Q535 714 594 663T653 521Q653 470 638 437T603 383T564 353T535 341V339Q551 337 569 329T604 304T630 258T641 188Q641 125 650 74T680 0H546Q532 23 530 51T527 105Q527 154 521 189T499 248T456 283T385 294H201V0H76V714ZM201 389H406Q528 389 528 503Q528 537 518 558T491 592T451 608T404 612H201V389Z"  />
<glyph unicode="S" horiz-adv-x="648" d="M158 238Q158 197 172 168T211 121T268 94T339 85Q380 85 409 94T456 119T482 153T490 193Q490 234 472 253T431 281Q393 295 343 307T218 340Q172 352 142 371T93 415T68 466T60 521Q60 575 82 614T142 680T226 718T321 731Q376 731 426 717T513 673T573 602T595 503H470Q465 572 424 600T316 629Q294 629 271 625T229 610T198 581T185 536Q185 498 208 477T270 444Q274 443 301 436T363 419T429 402T476 389Q511 378 537 359T580 316T606 263T615 207Q615 147 591 105T526 35T435 -4T331 -17Q270 -17 216 -2T122 44T58 123T33 238H158Z"  />
<glyph unicode="T" horiz-adv-x="593" d="M8 714H586V606H359V0H234V606H8V714Z"  />
<glyph unicode="U" horiz-adv-x="722" d="M68 714H193V298Q193 262 196 225T216 159T266 110T361 91Q422 91 455 110T505 158T525 225T529 298V714H654V257Q654 188 633 137T574 52T481 0T361 -17Q295 -17 241 0T149 51T89 137T68 257V714Z"  />
<glyph unicode="V" horiz-adv-x="611" d="M-5 714H125L304 149H306L489 714H616L372 0H233L-5 714Z"  />
<glyph unicode="W" horiz-adv-x="944" d="M6 714H133L262 168H264L408 714H536L676 168H678L811 714H938L741 0H614L471 546H469L323 0H194L6 714Z"  />
<glyph unicode="X" horiz-adv-x="648" d="M14 714H163L325 462L494 714H634L398 370L651 0H499L321 273L140 0H-3L250 370L14 714Z"  />
<glyph unicode="Y" horiz-adv-x="648" d="M262 280L-6 714H139L328 394L514 714H654L387 280V0H262V280Z"  />
<glyph unicode="Z" horiz-adv-x="630" d="M55 714H598V619L182 108H608V0H23V102L439 606H55V714Z"  />
<glyph unicode="[" horiz-adv-x="296" d="M72 731H295V641H180V-101H295V-191H72V731Z"  />
<glyph unicode="\" horiz-adv-x="352" d="M374 -17H265L-22 731H87L374 -17Z"  />
<glyph unicode="]" horiz-adv-x="296" d="M224 -191H1V-101H116V641H1V731H224V-191Z"  />
<glyph unicode="^" horiz-adv-x="600" d="M84 335L264 700H336L516 335H414L300 582L186 335H84Z"  />
<glyph unicode="_" horiz-adv-x="500" d="M0 -125V-75H500V-125H0Z"  />
<glyph unicode="`" horiz-adv-x="241" d="M105 732L196 589H113L-29 732H105Z"  />
<glyph unicode="a" horiz-adv-x="556" d="M493 115Q493 94 498 85T520 76Q528 76 534 76T548 78V-1Q542 -3 533 -5T513 -10T493 -13T476 -14Q441 -14 418 0T388 49Q354 16 305 1T209 -14Q173 -14 141 -5T85 23T47 70T32 137Q32 185 49 214T93 260T155 285T226 298L289 306Q341 313 363 325T386 371Q386 393 376 407T350 428T315 438T279 441Q231 441 200 421T165 359H51Q54 409 75 442T128 495T202 523T286 531Q324 531 361 523T427 497T475 451T493 381V115ZM379 259Q362 248 345 244T291 235L245 229Q225 226 208 221T176 206T154 182T146 147Q146 127 154 114T176 92T208 80T244 76Q266 76 290 81T334 98T366 128T379 174V259Z"  />
<glyph unicode="b" horiz-adv-x="611" d="M63 714H177V450H179Q203 488 245 509T333 531Q394 531 439 510T515 451T560 363T575 256Q575 203 562 155T521 69T451 9T352 -14Q326 -14 300 -11T249 3T206 29T173 71H171V0H63V714ZM461 258Q461 293 452 326T425 384T380 425T318 441Q246 441 210 392T173 258Q173 219 182 186T211 128T256 90T318 76Q357 76 384 92T428 133T453 191T461 258Z"  />
<glyph unicode="c" horiz-adv-x="556" d="M409 344Q402 392 371 416T291 441Q269 441 244 434T198 406T163 348T149 253Q149 221 156 189T180 132T223 92T286 76Q337 76 369 106T409 194H523Q507 92 447 39T286 -14Q225 -14 179 6T100 62T52 147T35 253Q35 311 51 362T99 450T178 509T290 531Q335 531 375 520T447 485T499 427T523 344H409Z"  />
<glyph unicode="d" horiz-adv-x="611" d="M547 0H439V70H437Q414 25 370 6T277 -14Q216 -14 171 7T95 66T50 153T35 262Q35 332 54 383T104 467T176 515T259 531Q283 531 308 527T356 512T398 487T431 450H433V714H547V0ZM149 253Q149 220 157 188T183 131T228 91T292 76Q330 76 357 92T402 134T428 192T437 259Q437 346 399 393T294 441Q254 441 227 425T182 382T157 321T149 253Z"  />
<glyph unicode="e" horiz-adv-x="556" d="M149 229Q149 199 157 171T183 122T226 89T288 76Q339 76 369 97T414 162H522Q513 120 491 87T438 32T369 -2T288 -14Q227 -14 180 6T101 62T52 148T35 258Q35 313 52 362T102 449T181 509T285 531Q346 531 394 506T475 438T521 342T529 229H149ZM415 304Q413 331 404 356T378 399T338 429T285 441Q255 441 231 431T189 402T161 358T149 304H415Z"  />
<glyph unicode="f" horiz-adv-x="315" d="M9 517H94V560Q94 609 106 639T138 686T183 708T237 714Q293 714 317 707V618Q306 621 294 622T264 624Q241 624 225 613T208 570V517H305V432H208V0H94V432H9V517Z"  />
<glyph unicode="g" horiz-adv-x="593" d="M538 27Q538 -91 473 -148T284 -205Q245 -205 206 -197T134 -170T79 -120T53 -44H167Q172 -68 184 -83T212 -106T249 -117T291 -120Q360 -120 392 -86T424 12V91H422Q398 48 357 24T267 0Q205 0 162 21T90 80T48 167T35 272Q35 324 51 371T97 453T170 510T269 531Q318 531 359 511T422 446H424V517H538V27ZM285 90Q323 90 349 105T392 146T416 204T424 270Q424 303 416 334T392 389T349 427T285 441Q247 441 221 425T179 384T156 326T149 261Q149 229 157 199T181 144T223 105T285 90Z"  />
<glyph unicode="h" horiz-adv-x="574" d="M60 714H174V449H176Q197 484 238 507T331 531Q416 531 465 487T514 355V0H400V325Q398 386 374 413T299 441Q270 441 247 431T208 402T183 358T174 305V0H60V714Z"  />
<glyph unicode="i" horiz-adv-x="241" d="M63 714H177V606H63V714ZM63 517H177V0H63V517Z"  />
<glyph unicode="j" horiz-adv-x="241" d="M63 714H177V606H63V714ZM63 517H177V-44Q177 -121 143 -163T29 -205Q12 -205 1 -204T-22 -201V-111Q-2 -115 17 -115Q48 -115 55 -96T63 -39V517Z"  />
<glyph unicode="k" horiz-adv-x="537" d="M63 714H177V308L383 517H523L325 327L542 0H403L245 251L177 185V0H63V714Z"  />
<glyph unicode="l" horiz-adv-x="241" d="M63 714H177V0H63V714Z"  />
<glyph unicode="m" horiz-adv-x="870" d="M60 517H168V445H171Q197 483 232 507T330 531Q377 531 417 510T475 445Q504 485 542 508T637 531Q719 531 764 491T810 357V0H696V302Q696 333 694 358T683 402T654 431T602 441Q544 441 518 405T492 303V0H378V332Q378 386 359 413T287 441Q265 441 245 432T209 406T184 364T174 307V0H60V517Z"  />
<glyph unicode="n" horiz-adv-x="574" d="M60 517H168V441L170 439Q196 482 238 506T331 531Q416 531 465 487T514 355V0H400V325Q398 386 374 413T299 441Q270 441 247 431T208 402T183 358T174 305V0H60V517Z"  />
<glyph unicode="o" horiz-adv-x="593" d="M297 -14Q235 -14 187 6T105 63T54 149T36 259Q36 318 53 368T104 454T186 510T297 531Q359 531 407 511T489 454T540 368T558 259Q558 199 541 149T490 63T408 7T297 -14ZM297 76Q335 76 363 92T409 134T435 192T444 259Q444 292 436 325T409 383T363 425T297 441Q259 441 231 425T185 384T159 325T150 259Q150 225 158 193T185 134T231 92T297 76Z"  />
<glyph unicode="p" horiz-adv-x="611" d="M63 517H171V447H173Q197 492 239 511T333 531Q394 531 439 510T515 451T560 363T575 256Q575 203 562 155T521 69T451 9T352 -14Q327 -14 302 -10T254 5T212 30T179 67H177V-191H63V517ZM461 258Q461 293 452 326T425 384T380 425T318 441Q246 441 210 392T173 258Q173 219 182 186T211 128T256 90T318 76Q357 76 384 92T428 133T453 191T461 258Z"  />
<glyph unicode="q" horiz-adv-x="611" d="M547 -191H433V67H431Q402 24 356 5T258 -14Q201 -14 159 8T90 68T49 154T35 256Q35 313 50 363T95 450T170 509T277 531Q328 531 370 512T437 447H439V517H547V-191ZM149 258Q149 224 156 192T181 134T226 92T292 76Q366 76 401 126T437 258Q437 343 401 392T292 441Q257 441 230 426T185 385T158 326T149 258Z"  />
<glyph unicode="r" horiz-adv-x="352" d="M60 517H167V417H169Q174 438 188 458T223 494T269 521T320 531Q340 531 347 530T363 528V418Q351 420 339 421T314 423Q285 423 260 412T215 378T185 322T174 246V0H60V517Z"  />
<glyph unicode="s" horiz-adv-x="519" d="M146 166Q151 116 184 96T263 76Q279 76 299 78T338 88T367 108T378 144Q377 166 362 180T324 202T270 217T209 230Q177 237 148 247T95 274T57 317T43 383Q43 425 63 453T115 499T185 524T259 531Q299 531 336 523T402 495T450 446T475 372H356Q348 413 319 427T251 441Q239 441 223 439T192 432T167 416T157 388Q157 367 171 354T209 333T263 318T325 305Q356 298 386 288T439 261T477 218T492 154Q492 108 471 76T417 24T342 -5T261 -14Q212 -14 171 -3T99 30T51 86T32 166H146Z"  />
<glyph unicode="t" horiz-adv-x="333" d="M8 517H94V672H208V517H311V432H208V156Q208 138 209 125T216 103T233 90T263 85Q275 85 287 85T311 89V1Q292 -1 274 -3T237 -5Q192 -5 165 3T122 28T101 70T94 127V432H8V517Z"  />
<glyph unicode="u" horiz-adv-x="574" d="M514 0H402V72H400Q379 33 338 10T253 -14Q151 -14 106 36T60 189V517H174V200Q174 132 200 104T273 76Q309 76 333 87T372 116T393 161T400 217V517H514V0Z"  />
<glyph unicode="v" horiz-adv-x="519" d="M9 517H133L264 120H266L392 517H510L325 0H197L9 517Z"  />
<glyph unicode="w" horiz-adv-x="778" d="M13 517H134L235 131H237L334 517H449L542 131H544L649 517H765L603 0H486L390 384H388L293 0H173L13 517Z"  />
<glyph unicode="x" horiz-adv-x="537" d="M199 272L20 517H158L266 358L379 517H511L335 278L533 0H396L265 191L138 0H4L199 272Z"  />
<glyph unicode="y" horiz-adv-x="519" d="M3 517H128L263 131H265L396 517H515L314 -28Q300 -63 287 -95T254 -151T205 -190T131 -205Q91 -205 52 -199V-103Q66 -105 79 -107T106 -110Q145 -110 160 -91T186 -38L199 2L3 517Z"  />
<glyph unicode="z" horiz-adv-x="500" d="M42 517H462V437L166 90H477V0H22V80L308 427H42V517Z"  />
<glyph unicode="{" horiz-adv-x="296" d="M-4 315Q6 315 22 318T53 329T79 352T90 388V594Q90 629 104 655T138 698T180 723T218 731H309V641H254Q235 641 224 635T207 618T200 595T198 571V376Q198 346 186 327T158 295T124 278T94 271V269Q106 268 123 264T157 249T186 216T198 158V-31Q198 -42 199 -54T207 -77T224 -94T254 -101H309V-191H218Q202 -191 180 -183T138 -158T104 -115T90 -54V144Q90 168 79 184T53 209T22 221T-4 225V315Z"  />
<glyph unicode="|" horiz-adv-x="222" d="M60 786H162V-214H60V786Z"  />
<glyph unicode="}" horiz-adv-x="296" d="M300 225Q289 225 273 222T242 210T217 188T206 152V-54Q206 -89 192 -115T158 -158T116 -183T78 -191H-13V-101H42Q61 -101 72 -95T89 -78T96 -55T98 -31V164Q98 195 110 214T138 245T172 262T202 269V271Q190 272 173 276T139 291T110 324T98 382V571Q98 582 97 594T89 617T72 634T42 641H-13V731H78Q94 731 116 723T158 698T192 655T206 594V396Q206 372 216 356T242 331T273 319T300 315V225Z"  />
<glyph unicode="~" horiz-adv-x="600" d="M194 338Q225 338 253 328T308 304T358 281T405 270Q434 270 455 286T495 338L531 254Q523 238 512 223T486 195T451 176T406 168Q373 168 345 178T290 202T241 225T195 236Q166 236 145 220T105 168L69 252Q77 268 88 283T114 311T149 330T194 338Z"  />
<glyph unicode="&#xA0;" horiz-adv-x="278" />
<glyph unicode="&#xA4;" horiz-adv-x="556" d="M20 146L77 207Q27 263 27 349Q27 391 39 429T77 493L20 554L77 611L134 555Q159 576 198 588T280 601Q320 601 357 589T417 556L475 613L536 552L480 494Q503 470 515 432T527 351Q527 309 515 271T479 205L534 146L479 91L422 149Q397 125 359 112T279 99Q234 99 196 111T132 148L76 90L20 146ZM279 201Q309 201 335 213T379 245T408 293T419 351Q419 381 409 407T380 454T336 487T280 499Q249 499 223 487T177 455T146 408T135 349Q135 318 146 291T176 244T222 213T279 201Z"  />
<glyph unicode="&#xA6;" horiz-adv-x="222" d="M60 661H162V411H60V661ZM60 161H162V-89H60V161Z"  />
<glyph unicode="&#xA7;" horiz-adv-x="556" d="M377 542Q375 584 351 612T283 641Q252 641 227 621T201 566Q201 534 225 511T287 468T368 427T448 380T510 320T535 238Q535 215 527 192T504 150T471 116T429 94Q456 71 470 42T484 -34Q484 -76 468 -108T424 -161T361 -194T286 -205Q240 -205 201 -192T134 -152T88 -88T70 0H178Q182 -54 207 -84T283 -115Q321 -115 345 -97T370 -34Q370 -7 355 14T316 53T261 87T198 120Q165 136 134 154T78 196T38 248T22 312Q22 369 50 404T130 461Q108 484 98 507T87 562Q87 602 104 633T149 686T212 719T284 731Q327 731 363 718T427 681T469 621T485 542H377ZM191 405Q164 397 147 376T130 325Q130 319 131 311T138 292T155 270T185 247L367 145Q393 156 410 176T427 227Q427 249 413 268T357 310L191 405Z"  />
<glyph unicode="&#xA8;" horiz-adv-x="241" d="M263 710V602H149V710H263ZM-23 602V710H91V602H-23Z"  />
<glyph unicode="&#xA9;" horiz-adv-x="800" d="M767 357Q767 273 738 204T658 86T541 10T401 -17Q320 -17 253 11T137 90T61 208T33 357Q33 441 62 510T142 628T260 704T401 731Q474 731 540 704T657 628T737 510T767 357ZM687 357Q687 425 665 482T604 580T513 643T401 666Q340 666 288 644T196 580T135 482T113 357Q113 293 133 237T190 139T281 73T401 48Q461 48 513 70T604 134T665 231T687 357ZM590 285Q584 249 568 221T529 172T476 142T413 131Q365 131 326 148T259 195T216 267T201 357Q201 402 215 441T257 509T323 555T411 572Q480 572 529 534T589 421H521Q513 459 484 483T411 507Q379 507 355 495T315 463T290 416T281 357Q281 324 290 295T316 244T358 209T413 196Q458 196 487 221T521 285H590Z"  />
<glyph unicode="&#xAB;" d="M248 216V328L403 451V348L308 272L403 196V93L248 216ZM50 216V328L205 451V348L110 272L205 196V93L50 216Z"  />
<glyph unicode="&#xAC;" horiz-adv-x="600" d="M450 303H48V405H552V108H450V303Z"  />
<glyph unicode="&#xAD;" horiz-adv-x="389" d="M49 326H340V218H49V326Z"  />
<glyph unicode="&#xAE;" horiz-adv-x="800" d="M767 357Q767 273 738 204T658 86T541 10T401 -17Q320 -17 253 11T137 90T61 208T33 357Q33 441 62 510T142 628T260 704T401 731Q474 731 540 704T657 628T737 510T767 357ZM687 357Q687 425 665 482T604 580T513 643T401 666Q340 666 288 644T196 580T135 482T113 357Q113 293 133 237T190 139T281 73T401 48Q461 48 513 70T604 134T665 231T687 357ZM327 143H259V557H416Q491 557 529 529T567 438Q567 382 536 356T459 325L575 143H498L391 320H327V143ZM403 378Q422 378 439 379T470 388T491 407T499 443Q499 462 491 473T469 490T440 497T409 499H327V378H403Z"  />
<glyph unicode="&#xB0;" horiz-adv-x="400" d="M50 564Q50 595 62 622T94 670T141 702T200 714Q231 714 258 702T306 670T338 623T350 564Q350 533 338 506T306 458T259 426T200 414Q169 414 142 426T94 458T62 505T50 564ZM106 564Q106 544 113 527T133 498T163 478T200 470Q219 470 236 477T266 497T286 527T294 564Q294 583 287 600T267 630T237 650T200 658Q180 658 163 651T134 631T114 601T106 564Z"  />
<glyph unicode="&#xB1;" horiz-adv-x="600" d="M249 506H351V381H552V279H351V154H249V279H48V381H249V506ZM48 102H552V0H48V102Z"  />
<glyph unicode="&#xB4;" horiz-adv-x="241" d="M135 732H270L128 589H45L135 732Z"  />
<glyph unicode="&#xB5;" horiz-adv-x="574" d="M514 0H402V72H400Q385 47 368 31T332 4T295 -10T259 -14Q236 -14 214 -9T174 12V-191H60V517H174V200Q174 132 200 104T273 76Q309 76 333 87T372 116T393 161T400 217V517H514V0Z"  />
<glyph unicode="&#xB6;" horiz-adv-x="600" d="M246 344Q197 344 158 357T90 395T47 453T31 526Q31 576 48 612T95 670T169 703T264 714H523V-160H443V649H326V-160H246V344Z"  />
<glyph unicode="&#xB7;" horiz-adv-x="278" d="M64 302Q64 317 70 330T86 353T110 370T139 376Q154 376 167 370T191 354T208 330T214 302Q214 272 192 249T139 226Q108 226 86 249T64 302Z"  />
<glyph unicode="&#xBB;" d="M413 328V216L258 93V196L353 272L258 348V451L413 328ZM215 328V216L60 93V196L155 272L60 348V451L215 328Z"  />
<glyph unicode="&#x131;" horiz-adv-x="241" d="M63 0V517H177V0H63Z"  />
<glyph unicode="&#x2D8;" horiz-adv-x="241" d="M17 731Q25 689 54 672T124 655Q162 655 189 674T225 731H282Q274 659 230 625T116 590Q47 590 6 626T-41 731H17Z"  />
<glyph unicode="&#x401;" horiz-adv-x="630" d="M76 714H590V606H201V419H561V317H201V108H597V0H76V714ZM473 904V796H359V904H473ZM187 796V904H301V796H187Z"  />
<glyph unicode="&#x402;" horiz-adv-x="786" d="M214 0V606H8V714H586V606H339V358Q368 399 413 420T516 442Q574 442 618 422T692 366T737 280T752 168Q752 102 732 49T677 -42T594 -100T488 -120H474V-24Q506 -23 534 -13T582 20T615 78T627 163Q627 252 595 298T491 344Q424 344 382 296T339 163V0H214Z"  />
<glyph unicode="&#x403;" horiz-adv-x="577" d="M76 714H570V606H201V0H76V714ZM326 926H461L319 783H236L326 926Z"  />
<glyph unicode="&#x404;" horiz-adv-x="722" d="M558 501Q543 564 497 596T375 629Q326 629 290 612T227 566T186 500T166 422H470V321H163Q166 273 180 231T221 156T286 104T374 85Q457 85 501 125T562 239H683Q675 181 650 134T585 53T493 1T376 -17Q301 -17 239 9T132 84T63 201T38 356Q38 433 60 501T126 621T232 701T377 731Q437 731 488 717T578 675T645 603T683 501H558Z"  />
<glyph unicode="&#x405;" horiz-adv-x="648" d="M158 238Q158 197 172 168T211 121T268 94T339 85Q380 85 409 94T456 119T482 153T490 193Q490 234 472 253T431 281Q393 295 343 307T218 340Q172 352 142 371T93 415T68 466T60 521Q60 575 82 614T142 680T226 718T321 731Q376 731 426 717T513 673T573 602T595 503H470Q465 572 424 600T316 629Q294 629 271 625T229 610T198 581T185 536Q185 498 208 477T270 444Q274 443 301 436T363 419T429 402T476 389Q511 378 537 359T580 316T606 263T615 207Q615 147 591 105T526 35T435 -4T331 -17Q270 -17 216 -2T122 44T58 123T33 238H158Z"  />
<glyph unicode="&#x406;" horiz-adv-x="278" d="M76 714H201V0H76V714Z"  />
<glyph unicode="&#x407;" horiz-adv-x="278" d="M282 904V796H168V904H282ZM-4 796V904H110V796H-4ZM76 714H201V0H76V714Z"  />
<glyph unicode="&#x408;" horiz-adv-x="537" d="M461 230Q461 183 453 139T421 60T350 4T226 -17Q169 -17 129 0T63 48T25 121T13 212V250H138V213Q138 152 158 119T236 85Q266 85 285 94T316 120T332 164T336 223V714H461V230Z"  />
<glyph unicode="&#x409;" horiz-adv-x="1057" d="M1024 221Q1024 115 960 58T779 0H486V606H275L260 223Q255 108 208 46T76 -17Q35 -17 4 -4V93Q18 89 28 87T50 85Q71 85 86 91T112 115T129 162T137 239L155 714H611V440H779Q897 440 960 384T1024 221ZM899 218Q899 275 865 306T772 338H611V103H774Q899 103 899 218Z"  />
<glyph unicode="&#x40A;" horiz-adv-x="1035" d="M1002 221Q1002 115 938 58T757 0H482V338H198V0H73V714H198V441H482V714H607V440H757Q875 440 938 384T1002 221ZM877 218Q877 275 843 306T750 338H607V103H752Q877 103 877 218Z"  />
<glyph unicode="&#x40B;" horiz-adv-x="786" d="M500 442Q566 442 612 426T687 382T729 315T742 230V0H617V206Q617 268 585 300T480 332Q442 332 405 328T339 315V0H214V606H8V714H586V606H339V423Q357 427 378 430T420 436T462 440T500 442Z"  />
<glyph unicode="&#x40C;" horiz-adv-x="685" d="M367 926H502L360 783H277L367 926ZM76 714H201V389L519 714H673L388 429L693 0H537L303 341L201 240V0H76V714Z"  />
<glyph unicode="&#x40E;" horiz-adv-x="611" d="M-5 714H133L306 326L480 714H616L339 145Q317 99 294 68T246 18T194 -9T137 -17Q113 -17 91 -12T53 1V106Q90 88 126 88Q140 88 152 91T178 105T204 134T232 183L242 203L-5 714ZM206 925Q214 883 243 866T313 849Q351 849 378 868T414 925H471Q463 853 419 819T305 784Q236 784 195 820T148 925H206Z"  />
<glyph unicode="&#x40F;" horiz-adv-x="722" d="M73 714H198V108H523V714H648V0H423V-177H298V0H73V714Z"  />
<glyph unicode="&#x410;" horiz-adv-x="667" d="M267 714H400L675 0H541L474 189H189L122 0H-7L267 714ZM223 284H441L334 591H331L223 284Z"  />
<glyph unicode="&#x411;" horiz-adv-x="694" d="M654 221Q654 115 590 58T409 0H76V714H596V606H201V440H409Q527 440 590 384T654 221ZM529 218Q529 275 495 306T402 338H201V103H404Q529 103 529 218Z"  />
<glyph unicode="&#x412;" horiz-adv-x="704" d="M76 714H423Q519 714 577 670T635 537Q635 483 609 445T533 385V383Q599 369 633 321T667 199Q667 157 652 121T605 58T523 16T404 0H76V714ZM405 415Q450 415 480 440T510 514Q510 568 483 590T405 612H201V415H405ZM422 102Q479 102 510 131T542 215Q542 269 511 297T422 325H201V102H422Z"  />
<glyph unicode="&#x413;" horiz-adv-x="577" d="M76 714H570V606H201V0H76V714Z"  />
<glyph unicode="&#x414;" horiz-adv-x="716" d="M585 -177V0H127V-177H4V108H71Q114 193 139 304T164 564V714H630V108H708V-177H585ZM505 606H287V563Q287 412 265 302T205 108H505V606Z"  />
<glyph unicode="&#x415;" horiz-adv-x="630" d="M76 714H590V606H201V419H561V317H201V108H597V0H76V714Z"  />
<glyph unicode="&#x416;" horiz-adv-x="1032" d="M140 0H-12L295 402L18 714H176L452 394V714H577V393L855 714H1009L735 411L1043 0H887L654 321L577 238V0H452V231L375 319L140 0Z"  />
<glyph unicode="&#x417;" horiz-adv-x="648" d="M604 206Q604 163 586 123T532 51T444 2T322 -17Q257 -17 204 -2T113 45T53 124T32 236H155Q155 195 168 166T203 118T257 91T325 82Q395 82 437 114T479 208Q479 265 442 293T336 322H259V419H336Q392 419 426 447T460 527Q460 573 427 602T328 632Q262 632 224 603T179 507H60Q62 565 84 607T142 676T227 717T329 731Q382 731 428 719T508 682T563 620T583 533Q583 505 573 480T547 435T510 402T469 383V380Q532 364 568 320T604 206Z"  />
<glyph unicode="&#x418;" horiz-adv-x="722" d="M73 714H198V168L503 714H648V0H523V546L218 0H73V714Z"  />
<glyph unicode="&#x419;" horiz-adv-x="722" d="M73 714H198V168L503 714H648V0H523V546L218 0H73V714ZM263 925Q271 883 300 866T370 849Q408 849 435 868T471 925H528Q520 853 476 819T362 784Q293 784 252 820T205 925H263Z"  />
<glyph unicode="&#x41A;" horiz-adv-x="685" d="M76 714H201V389L519 714H673L388 429L693 0H537L303 341L201 240V0H76V714Z"  />
<glyph unicode="&#x41B;" horiz-adv-x="700" d="M501 0V606H275L260 223Q255 108 208 46T76 -17Q35 -17 4 -4V93Q18 89 28 87T50 85Q71 85 86 91T112 115T129 162T137 239L155 714H626V0H501Z"  />
<glyph unicode="&#x41C;" horiz-adv-x="889" d="M74 714H250L447 155H449L641 714H815V0H696V551H694L496 0H393L195 551H193V0H74V714Z"  />
<glyph unicode="&#x41D;" horiz-adv-x="722" d="M73 714H198V430H523V714H648V0H523V322H198V0H73V714Z"  />
<glyph unicode="&#x41E;" horiz-adv-x="760" d="M380 731Q460 731 523 701T631 620T698 501T722 357Q722 280 699 212T631 93T524 13T380 -17Q300 -17 237 12T129 93T62 212T38 357Q38 433 61 501T129 620T236 701T380 731ZM380 629Q323 629 282 606T214 545T176 457T163 357Q163 306 175 257T214 170T281 108T380 85Q437 85 478 108T546 169T584 257T597 357Q597 408 585 457T546 544T479 606T380 629Z"  />
<glyph unicode="&#x41F;" horiz-adv-x="722" d="M648 0H523V606H198V0H73V714H648V0Z"  />
<glyph unicode="&#x420;" horiz-adv-x="667" d="M76 714H391Q467 714 515 692T589 637T624 565T634 493Q634 460 625 422T589 350T515 296T391 274H201V0H76V714ZM201 376H384Q405 376 427 382T467 401T497 437T509 494Q509 529 499 552T472 588T433 607T386 612H201V376Z"  />
<glyph unicode="&#x421;" horiz-adv-x="722" d="M38 357Q38 433 61 501T129 620T236 701T380 731Q441 731 493 715T586 667T651 590T683 487H558Q542 550 500 589T380 629Q323 629 282 606T214 545T176 457T163 357Q163 306 175 257T214 170T281 108T380 85Q422 85 454 99T508 139T544 199T562 272H684Q680 208 656 155T593 64T499 4T380 -17Q300 -17 237 12T129 93T62 212T38 357Z"  />
<glyph unicode="&#x422;" horiz-adv-x="593" d="M8 714H586V606H359V0H234V606H8V714Z"  />
<glyph unicode="&#x423;" horiz-adv-x="611" d="M-5 714H133L306 326L480 714H616L339 145Q317 99 294 68T246 18T194 -9T137 -17Q113 -17 91 -12T53 1V106Q90 88 126 88Q140 88 152 91T178 105T204 134T232 183L242 203L-5 714Z"  />
<glyph unicode="&#x424;" horiz-adv-x="809" d="M467 643Q528 641 583 624T681 573T749 488T774 367Q774 299 750 248T684 160T586 104T467 80V0H342V80Q283 82 228 99T130 151T61 236T35 358Q35 426 59 477T125 564T223 619T342 643V714H467V643ZM467 185Q507 188 541 200T599 235T637 290T651 367Q651 410 638 441T600 493T542 525T467 539V185ZM342 538Q301 535 268 523T210 489T172 434T158 358Q158 314 171 284T209 232T267 200T342 184V538Z"  />
<glyph unicode="&#x425;" horiz-adv-x="648" d="M14 714H163L325 462L494 714H634L398 370L651 0H499L321 273L140 0H-3L250 370L14 714Z"  />
<glyph unicode="&#x426;" horiz-adv-x="734" d="M726 108V-177H603V0H73V714H198V108H523V714H648V108H726Z"  />
<glyph unicode="&#x427;" horiz-adv-x="686" d="M487 316Q443 307 394 300T290 292Q224 292 179 308T105 352T63 419T50 503V714H175V530Q175 464 208 433T310 402Q358 402 400 407T487 423V714H612V0H487V316H487Z"  />
<glyph unicode="&#x428;" horiz-adv-x="1070" d="M73 714H198V108H472V714H597V108H871V714H996V0H73V714Z"  />
<glyph unicode="&#x429;" horiz-adv-x="1082" d="M73 714H198V108H472V714H597V108H871V714H996V108H1074V-177H951V0H73V714Z"  />
<glyph unicode="&#x42A;" horiz-adv-x="812" d="M779 221Q779 115 715 58T534 0H221V606H8V714H346V440H534Q652 440 715 384T779 221ZM654 218Q654 275 620 306T527 338H346V103H529Q654 103 654 218Z"  />
<glyph unicode="&#x42B;" horiz-adv-x="895" d="M695 714H820V0H695V714ZM611 221Q611 115 547 58T366 0H73V714H198V440H366Q484 440 547 384T611 221ZM486 218Q486 275 452 306T359 338H198V103H361Q486 103 486 218Z"  />
<glyph unicode="&#x42C;" horiz-adv-x="667" d="M634 221Q634 115 570 58T389 0H76V714H201V440H389Q507 440 570 384T634 221ZM509 218Q509 275 475 306T382 338H201V103H384Q509 103 509 218Z"  />
<glyph unicode="&#x42D;" horiz-adv-x="722" d="M246 418H556Q553 460 540 498T502 566T443 612T360 629Q285 629 237 596T171 501H46Q56 551 83 593T150 666T243 714T358 731Q438 731 499 703T601 624T663 505T684 356Q684 272 659 204T588 86T481 10T346 -17Q283 -17 230 1T136 52T71 133T39 239H165Q171 206 185 178T221 129T275 97T346 85Q399 85 438 104T504 156T543 231T559 317H246V418Z"  />
<glyph unicode="&#x42E;" horiz-adv-x="1020" d="M651 731Q727 731 788 701T893 620T959 501T982 357Q982 280 959 212T893 93T789 13T651 -17Q577 -17 519 9T419 80T353 188T323 322H198V0H73V714H198V430H327Q337 494 363 549T430 645T526 708T651 731ZM651 629Q595 629 556 606T492 545T456 457T444 357Q444 306 455 257T492 170T556 108T651 85Q706 85 745 108T809 169T845 257T857 357Q857 408 846 457T809 544T745 606T651 629Z"  />
<glyph unicode="&#x42F;" horiz-adv-x="690" d="M491 0V294H345L143 0H-9L211 305Q128 329 92 380T56 500Q56 544 71 583T116 651T190 697T293 714H616V0H491ZM491 612H302Q239 612 210 582T181 501Q181 389 303 389H491V612Z"  />
<glyph unicode="&#x430;" horiz-adv-x="556" d="M493 115Q493 94 498 85T520 76Q528 76 534 76T548 78V-1Q542 -3 533 -5T513 -10T493 -13T476 -14Q441 -14 418 0T388 49Q354 16 305 1T209 -14Q173 -14 141 -5T85 23T47 70T32 137Q32 185 49 214T93 260T155 285T226 298L289 306Q341 313 363 325T386 371Q386 393 376 407T350 428T315 438T279 441Q231 441 200 421T165 359H51Q54 409 75 442T128 495T202 523T286 531Q324 531 361 523T427 497T475 451T493 381V115ZM379 259Q362 248 345 244T291 235L245 229Q225 226 208 221T176 206T154 182T146 147Q146 127 154 114T176 92T208 80T244 76Q266 76 290 81T334 98T366 128T379 174V259Z"  />
<glyph unicode="&#x431;" horiz-adv-x="593" d="M558 253Q558 192 540 143T487 59T407 5T305 -14Q241 -14 192 7T110 67T59 162T42 289Q42 359 54 424T97 542T177 630T305 675L352 681Q386 686 402 692T425 714H539Q535 684 522 663T489 627T441 605T382 593L318 585Q243 576 202 532T141 408H144Q175 456 221 482T333 509Q381 509 422 492T494 441T541 361T558 253ZM444 253Q444 331 407 375T302 419Q271 419 245 408T199 374T168 321T157 249Q157 171 196 124T303 76Q366 76 405 120T444 253Z"  />
<glyph unicode="&#x432;" horiz-adv-x="556" d="M521 156Q521 81 472 41T331 0H60V517H342Q414 517 455 483T497 390Q497 348 478 322T418 281V279Q469 266 495 234T521 156ZM174 431V311H320Q386 311 386 372Q386 431 316 431H174ZM174 228V86H331Q408 86 408 156Q408 190 389 209T331 228H174Z"  />
<glyph unicode="&#x433;" horiz-adv-x="426" d="M174 427V0H60V517H421V427H174Z"  />
<glyph unicode="&#x434;" horiz-adv-x="600" d="M481 -164V0H119V-164H7V90H68Q82 123 93 157T113 228T125 308T129 399V517H524V90H593V-164H481ZM410 427H240V394Q240 296 224 223T185 90H410V427Z"  />
<glyph unicode="&#x435;" horiz-adv-x="556" d="M149 229Q149 199 157 171T183 122T226 89T288 76Q339 76 369 97T414 162H522Q513 120 491 87T438 32T369 -2T288 -14Q227 -14 180 6T101 62T52 148T35 258Q35 313 52 362T102 449T181 509T285 531Q346 531 394 506T475 438T521 342T529 229H149ZM415 304Q413 331 404 356T378 399T338 429T285 441Q255 441 231 431T189 402T161 358T149 304H415Z"  />
<glyph unicode="&#x436;" horiz-adv-x="779" d="M652 0L496 223L446 169V0H332V165L282 220L124 0H-10L212 289L14 517H152L329 301H332V517H446V299H449L626 517H764L571 297L789 0H652Z"  />
<glyph unicode="&#x437;" horiz-adv-x="519" d="M482 156Q482 115 464 84T415 30T344 -3T258 -14Q145 -14 89 33T29 161H144Q149 111 182 93T261 74Q309 74 338 95T368 154Q368 185 347 206T267 227H203V311H249Q294 311 323 326T352 376Q352 408 331 426T258 444Q212 444 188 423T159 367H44Q48 412 67 443T117 493T187 522T269 531Q360 531 412 493T465 389Q465 348 441 322T382 282V280Q400 276 418 267T450 243T473 207T482 156Z"  />
<glyph unicode="&#x438;" horiz-adv-x="574" d="M60 0V517H174V140H177L370 517H514V0H400V377H397L204 0H60Z"  />
<glyph unicode="&#x439;" horiz-adv-x="574" d="M185 731Q193 689 222 672T292 655Q330 655 357 674T393 731H450Q442 659 398 625T284 590Q215 590 174 626T127 731H185ZM60 0V517H174V140H177L370 517H514V0H400V377H397L204 0H60Z"  />
<glyph unicode="&#x43A;" horiz-adv-x="534" d="M60 517H174V295L380 517H520L321 314L539 0H400L242 234L174 169V0H60V517Z"  />
<glyph unicode="&#x43B;" horiz-adv-x="566" d="M392 0V427H233L226 172Q224 122 211 87T176 30T128 -3T73 -14Q54 -14 38 -11T10 -3V86Q32 81 47 81Q63 81 75 85T95 101T108 135T114 194L123 517H506V0H392Z"  />
<glyph unicode="&#x43C;" horiz-adv-x="704" d="M60 0V517H207L354 103H356L497 517H644V0H536V360H534L408 0H297L170 360H168V0H60Z"  />
<glyph unicode="&#x43D;" horiz-adv-x="574" d="M60 0V517H174V314H400V517H514V0H400V224H174V0H60Z"  />
<glyph unicode="&#x43E;" horiz-adv-x="593" d="M297 -14Q235 -14 187 6T105 63T54 149T36 259Q36 318 53 368T104 454T186 510T297 531Q359 531 407 511T489 454T540 368T558 259Q558 199 541 149T490 63T408 7T297 -14ZM297 76Q335 76 363 92T409 134T435 192T444 259Q444 292 436 325T409 383T363 425T297 441Q259 441 231 425T185 384T159 325T150 259Q150 225 158 193T185 134T231 92T297 76Z"  />
<glyph unicode="&#x43F;" horiz-adv-x="574" d="M60 0V517H514V0H400V427H174V0H60Z"  />
<glyph unicode="&#x440;" horiz-adv-x="611" d="M63 517H171V447H173Q197 492 239 511T333 531Q394 531 439 510T515 451T560 363T575 256Q575 203 562 155T521 69T451 9T352 -14Q327 -14 302 -10T254 5T212 30T179 67H177V-191H63V517ZM461 258Q461 293 452 326T425 384T380 425T318 441Q246 441 210 392T173 258Q173 219 182 186T211 128T256 90T318 76Q357 76 384 92T428 133T453 191T461 258Z"  />
<glyph unicode="&#x441;" horiz-adv-x="556" d="M409 344Q402 392 371 416T291 441Q269 441 244 434T198 406T163 348T149 253Q149 221 156 189T180 132T223 92T286 76Q337 76 369 106T409 194H523Q507 92 447 39T286 -14Q225 -14 179 6T100 62T52 147T35 253Q35 311 51 362T99 450T178 509T290 531Q335 531 375 520T447 485T499 427T523 344H409Z"  />
<glyph unicode="&#x442;" horiz-adv-x="464" d="M289 427V0H175V427H5V517H459V427H289Z"  />
<glyph unicode="&#x443;" horiz-adv-x="519" d="M3 517H128L263 131H265L396 517H515L314 -28Q300 -63 287 -95T254 -151T205 -190T131 -205Q91 -205 52 -199V-103Q66 -105 79 -107T106 -110Q145 -110 160 -91T186 -38L199 2L3 517Z"  />
<glyph unicode="&#x444;" horiz-adv-x="830" d="M792 266Q792 212 780 162T743 72T677 10T580 -14Q554 -14 525 -3T475 34H472V-191H358V34H355Q326 7 297 -3T238 -14Q184 -14 146 9T84 72T49 161T38 266Q38 327 52 376T93 459T157 512T241 531Q311 531 355 478H358V714H472V478H475Q500 504 530 517T594 531Q640 531 677 513T739 460T778 376T792 266ZM678 264Q678 349 651 396T565 443Q539 443 511 430T472 382V131Q477 108 500 91T560 74Q594 74 616 90T652 132T672 193T678 264ZM358 382Q347 417 319 430T265 443Q207 443 180 396T152 264Q152 228 158 194T177 133T213 90T270 74Q306 74 329 91T358 131V382Z"  />
<glyph unicode="&#x445;" horiz-adv-x="537" d="M199 272L20 517H158L266 358L379 517H511L335 278L533 0H396L265 191L138 0H4L199 272Z"  />
<glyph unicode="&#x446;" horiz-adv-x="590" d="M583 90V-164H471V0H60V517H174V90H400V517H514V90H583Z"  />
<glyph unicode="&#x447;" horiz-adv-x="540" d="M480 0H366V212Q332 205 294 199T212 193Q131 193 83 233T35 361V517H149V381Q149 333 168 311T232 288Q264 288 298 292T366 304V517H480V0Z"  />
<glyph unicode="&#x448;" horiz-adv-x="814" d="M60 517H174V90H350V517H464V90H640V517H754V0H60V517Z"  />
<glyph unicode="&#x449;" horiz-adv-x="830" d="M60 517H174V90H350V517H464V90H640V517H754V90H823V-164H711V0H60V517Z"  />
<glyph unicode="&#x44A;" horiz-adv-x="630" d="M598 168Q598 89 551 45T414 0H151V427H5V517H265V329H410Q502 329 550 287T598 168ZM484 166Q484 201 463 220T399 240H265V89H401Q445 89 464 110T484 166Z"  />
<glyph unicode="&#x44B;" horiz-adv-x="727" d="M553 517H667V0H553V517ZM487 168Q487 89 440 45T303 0H60V517H174V329H299Q391 329 439 287T487 168ZM373 166Q373 201 352 220T288 240H174V89H290Q334 89 353 110T373 166Z"  />
<glyph unicode="&#x44C;" horiz-adv-x="539" d="M507 168Q507 89 460 45T323 0H60V517H174V329H319Q411 329 459 287T507 168ZM393 166Q393 201 372 220T308 240H174V89H310Q354 89 373 110T393 166Z"  />
<glyph unicode="&#x44D;" horiz-adv-x="556" d="M521 262Q521 204 503 154T452 66T372 8T267 -14Q169 -14 107 36T33 175H146Q154 127 186 102T267 76Q326 76 363 115T405 226H211V307H404Q399 370 364 405T272 441Q229 441 197 420T150 356H36Q56 435 117 483T274 531Q332 531 378 512T456 458T504 373T521 262Z"  />
<glyph unicode="&#x44E;" horiz-adv-x="808" d="M520 -14Q464 -14 419 3T342 52T291 128T267 226H174V0H60V517H174V312H270Q277 360 297 400T349 470T424 515T520 531Q580 531 627 511T706 454T756 368T773 259Q773 199 756 149T707 63T627 7T520 -14ZM520 74Q555 74 581 89T624 129T650 187T659 259Q659 296 651 329T625 388T581 428T520 443Q485 443 459 428T415 388T388 330T379 259Q379 221 388 188T414 129T458 89T520 74Z"  />
<glyph unicode="&#x44F;" horiz-adv-x="550" d="M376 0V208H277L123 0H-6L160 218Q99 235 74 273T48 361Q48 395 60 423T96 473T154 505T231 517H490V0H376ZM376 430H240Q201 430 181 412T160 361Q160 326 180 309T239 291H376V430Z"  />
<glyph unicode="&#x451;" horiz-adv-x="556" d="M149 229Q149 199 157 171T183 122T226 89T288 76Q339 76 369 97T414 162H522Q513 120 491 87T438 32T369 -2T288 -14Q227 -14 180 6T101 62T52 148T35 258Q35 313 52 362T102 449T181 509T285 531Q346 531 394 506T475 438T521 342T529 229H149ZM415 304Q413 331 404 356T378 399T338 429T285 441Q255 441 231 431T189 402T161 358T149 304H415ZM432 710V602H318V710H432ZM146 602V710H260V602H146Z"  />
<glyph unicode="&#x452;" horiz-adv-x="574" d="M400 310Q400 371 375 399T299 428Q270 428 247 417T208 388T183 344T174 290V0H60V571H-20V653H60V714H174V653H343V571H174V434H176Q197 469 238 492T331 516Q416 516 465 472T514 340V123Q514 55 493 -1T434 -99T341 -164T220 -191V-92Q308 -84 354 -30T400 122V310Z"  />
<glyph unicode="&#x453;" horiz-adv-x="426" d="M174 427V0H60V517H421V427H174ZM254 732H389L247 589H164L254 732Z"  />
<glyph unicode="&#x454;" horiz-adv-x="556" d="M523 176Q504 85 443 36T289 -14Q230 -14 183 5T103 58T53 142T35 253Q35 317 54 368T107 456T188 511T292 531Q388 531 448 486T523 357H409Q398 402 368 421T293 441Q232 441 193 406T149 307H350V226H148Q151 152 188 114T289 76Q336 76 367 102T410 176H523H523Z"  />
<glyph unicode="&#x455;" horiz-adv-x="519" d="M146 166Q151 116 184 96T263 76Q279 76 299 78T338 88T367 108T378 144Q377 166 362 180T324 202T270 217T209 230Q177 237 148 247T95 274T57 317T43 383Q43 425 63 453T115 499T185 524T259 531Q299 531 336 523T402 495T450 446T475 372H356Q348 413 319 427T251 441Q239 441 223 439T192 432T167 416T157 388Q157 367 171 354T209 333T263 318T325 305Q356 298 386 288T439 261T477 218T492 154Q492 108 471 76T417 24T342 -5T261 -14Q212 -14 171 -3T99 30T51 86T32 166H146Z"  />
<glyph unicode="&#x456;" horiz-adv-x="241" d="M63 714H177V606H63V714ZM63 517H177V0H63V517Z"  />
<glyph unicode="&#x457;" horiz-adv-x="241" d="M63 0V517H177V0H63ZM264 710V602H150V710H264ZM-22 602V710H92V602H-22Z"  />
<glyph unicode="&#x458;" horiz-adv-x="241" d="M63 714H177V606H63V714ZM63 517H177V-44Q177 -121 143 -163T29 -205Q12 -205 1 -204T-22 -201V-111Q-2 -115 17 -115Q48 -115 55 -96T63 -39V517Z"  />
<glyph unicode="&#x459;" horiz-adv-x="838" d="M386 427H233L226 172Q224 122 211 87T176 30T128 -3T73 -14Q54 -14 38 -11T10 -3V86Q32 81 47 81Q63 81 75 85T95 101T108 135T114 194L123 517H500V323H618Q710 323 758 281T806 165Q806 88 759 44T622 0H386V427ZM692 163Q692 196 671 215T607 234H500V89H609Q653 89 672 109T692 163Z"  />
<glyph unicode="&#x45A;" horiz-adv-x="830" d="M60 0V517H174V323H368V517H482V323H610Q702 323 750 281T798 165Q798 88 751 44T614 0H368V234H174V0H60ZM684 163Q684 196 663 215T599 234H482V89H601Q645 89 664 109T684 163Z"  />
<glyph unicode="&#x45B;" horiz-adv-x="574" d="M60 571H-20V653H60V714H174V653H343V571H174V434H176Q197 469 238 492T331 516Q416 516 465 472T514 340V0H400V310Q400 371 375 399T299 428Q270 428 247 417T208 388T183 344T174 290V0H60V571Z"  />
<glyph unicode="&#x45C;" horiz-adv-x="534" d="M60 517H174V295L380 517H520L321 314L539 0H400L242 234L174 169V0H60V517ZM293 732H428L286 589H203L293 732Z"  />
<glyph unicode="&#x45E;" horiz-adv-x="519" d="M164 731Q172 689 201 672T271 655Q309 655 336 674T372 731H429Q421 659 377 625T263 590Q194 590 153 626T106 731H164ZM3 517H128L263 131H265L396 517H515L314 -28Q300 -63 287 -95T254 -151T205 -190T131 -205Q91 -205 52 -199V-103Q66 -105 79 -107T106 -110Q145 -110 160 -91T186 -38L199 2L3 517Z"  />
<glyph unicode="&#x45F;" horiz-adv-x="574" d="M400 517H514V0H343V-164H229V0H60V517H174V90H400V517Z"  />
<glyph unicode="&#x490;" horiz-adv-x="577" d="M559 606H201V0H76V714H436V869H559V606Z"  />
<glyph unicode="&#x491;" horiz-adv-x="426" d="M419 427H174V0H60V517H307V670H419V427Z"  />
<glyph unicode="&#x2013;" horiz-adv-x="500" d="M0 326H500V218H0V326Z"  />
<glyph unicode="&#x2014;" horiz-adv-x="1000" d="M130 326H870V218H130V326Z"  />
<glyph unicode="&#x2018;" horiz-adv-x="278" d="M202 656Q141 633 141 567H202V432H77V567Q77 595 87 619T114 661T153 693T202 714V656Z"  />
<glyph unicode="&#x2019;" horiz-adv-x="278" d="M77 490Q113 495 125 520T138 579H77V714H202V579Q202 521 169 481T77 432V490Z"  />
<glyph unicode="&#x201A;" horiz-adv-x="278" d="M77 -89Q138 -67 138 0H77V135H202V0Q202 -28 192 -52T165 -95T125 -127T77 -147V-89Z"  />
<glyph unicode="&#x201C;" horiz-adv-x="444" d="M384 656Q323 633 323 567H384V432H259V567Q259 595 269 619T296 661T335 693T384 714V656ZM185 656Q124 633 124 567H185V432H60V567Q60 595 70 619T97 661T136 693T185 714V656Z"  />
<glyph unicode="&#x201D;" horiz-adv-x="444" d="M259 490Q320 512 320 579H259V714H384V579Q384 551 374 527T347 484T307 452T259 432V490ZM60 490Q121 512 121 579H60V714H185V579Q185 551 175 527T148 484T108 452T60 432V490Z"  />
<glyph unicode="&#x201E;" horiz-adv-x="444" d="M259 -89Q320 -67 320 0H259V135H384V0Q384 -28 374 -52T347 -95T307 -127T259 -147V-89ZM60 -89Q121 -67 121 0H60V135H185V0Q185 -28 175 -52T148 -95T108 -127T60 -147V-89Z"  />
<glyph unicode="&#x2020;" horiz-adv-x="556" d="M221 422H30V517H221V714H335V517H526V422H335V-160H221V422Z"  />
<glyph unicode="&#x2021;" horiz-adv-x="556" d="M221 37H30V132H221V422H30V517H221V714H335V517H526V422H335V132H526V37H335V-160H221V37Z"  />
<glyph unicode="&#x2022;" horiz-adv-x="500" d="M72 357Q72 394 86 426T124 483T180 521T250 535Q287 535 319 521T376 483T415 427T429 357Q429 320 415 288T377 231T320 192T250 178Q213 178 181 192T124 230T86 287T72 357Z"  />
<glyph unicode="&#x2026;" horiz-adv-x="1000" d="M763 135H902V0H763V135ZM430 135H569V0H430V135ZM97 135H236V0H97V135Z"  />
<glyph unicode="&#x2030;" horiz-adv-x="1148" d="M563 724H636L236 -24H165L563 724ZM231 714Q270 714 298 700T344 661T371 604T380 535Q380 506 373 477T348 425T302 386T231 371Q189 371 161 386T115 424T90 477T82 535Q82 571 90 603T117 660T164 699T231 714ZM231 654Q208 654 196 641T177 609T169 569T167 532Q167 515 169 498T178 465T197 441T231 431Q252 431 264 440T284 465T293 497T295 532Q295 548 294 569T286 609T266 641T231 654ZM917 -14Q875 -14 847 1T801 41T776 95T768 154Q768 190 776 222T803 277T850 315T917 329Q956 329 984 315T1030 278T1057 222T1066 154Q1066 125 1059 95T1034 41T988 2T917 -14ZM576 -14Q539 -14 511 -1T465 35T437 88T427 154Q427 190 435 221T462 277T509 315T576 329Q615 329 643 315T689 277T716 222T725 154Q725 119 716 89T688 35T641 -1T576 -14ZM917 46Q938 46 950 56T970 82T979 116T981 151Q981 167 980 187T972 226T952 256T917 269Q894 269 882 257T863 226T855 188T853 151Q853 134 855 116T864 82T883 56T917 46ZM576 46Q597 46 609 56T629 82T638 116T640 151Q640 167 639 187T631 226T611 256T576 269Q553 269 541 257T522 226T514 188T512 151Q512 135 514 117T523 83T542 57T576 46Z"  />
<glyph unicode="&#x2039;" horiz-adv-x="259" d="M50 216V328L205 451V348L110 272L205 196V93L50 216Z"  />
<glyph unicode="&#x203A;" horiz-adv-x="259" d="M209 328V216L54 93V196L149 272L54 348V451L209 328Z"  />
<glyph unicode="&#x20AC;" horiz-adv-x="556" d="M521 561Q457 625 381 625Q314 625 269 572Q231 525 218 455H482L456 391H211Q210 388 210 377V354Q210 326 211 323H442L417 260H216Q228 180 267 133Q312 76 389 76Q440 76 472 92Q502 107 540 142V31Q472 -13 389 -13Q255 -13 180 69Q116 139 99 260H22L49 323H94Q93 330 93 338T92 355Q92 362 92 371T94 391H22L48 455H101Q126 570 192 637Q269 714 389 714Q475 714 567 652L521 561Z"  />
<glyph unicode="&#x2116;" horiz-adv-x="1068" d="M488 0L190 511V0H71V700H203L501 188V700H620V0H488ZM841 432Q917 432 960 390T1004 279Q1004 244 993 215T960 165T908 133T841 121Q765 121 722 163T678 274Q678 308 689 337T722 387T774 420T841 432ZM841 366Q803 366 784 342T764 277Q764 235 785 211T841 187Q879 187 898 211T918 276Q918 318 897 342T841 366ZM679 0V85H1004V0H679Z"  />
<glyph unicode="&#x2122;" horiz-adv-x="990" d="M704 422L816 714H931V302H856V624H854L731 302H675L552 624H550V302H475V714H591L704 422ZM391 649H265V302H185V649H59V714H391V649Z"  />
<glyph unicode="&#xE002;" horiz-adv-x="241" d="M135 926H270L128 783H45L135 926Z"  />
<glyph unicode="&#xE00B;" horiz-adv-x="241" d="M263 904V796H149V904H263ZM-23 796V904H91V796H-23Z"  />
<glyph unicode="&#xE00F;" horiz-adv-x="241" d="M17 925Q25 883 54 866T124 849Q162 849 189 868T225 925H282Q274 853 230 819T116 784Q47 784 6 820T-41 925H17Z"  />

</font>
</defs>
</svg>
